<svg id="Maps_Travel" data-name="Maps &amp; Travel" xmlns="http://www.w3.org/2000/svg" width="60" height="60" viewBox="0 0 60 60"><title>007_009</title><polyline points="15.975 31 11 31 1 57 59 57 49 31 44.025 31" style="fill:#b1f1a8"/><polygon points="2.154 54 1 57 59 57 57.846 54 2.154 54" style="fill:#2c4b75;opacity:0.2"/><polygon points="11 34 15.975 34 44.025 34 49 34 57.846 57 59 57 49 31 44.025 31 15.975 31 11 31 1 57 2.154 57 11 34" style="fill:#fff;opacity:0.5"/><path d="M59,58H1a1.00049,1.00049,0,0,1-.93359-1.35889l10-26A1,1,0,0,1,11,30h4.97461a1,1,0,1,1,0,2H11.68652L2.45605,56H57.54395L48.31348,32H44.02539a1,1,0,1,1,0-2H49a1,1,0,0,1,.93359.64111l10,26A1.00049,1.00049,0,0,1,59,58Z" style="fill:#6d6daa"/><path d="M30,1A15,15,0,0,0,15,16c0,12,15,27,15,27S45,28,45,16A15,15,0,0,0,30,1Zm0,20a5,5,0,1,1,5-5A5,5,0,0,1,30,21Z" style="fill:#fff27d"/><path d="M30,39S16.639,25.63342,15.14227,14.04144A15.063,15.063,0,0,0,15,16c0,12,15,27,15,27S45,28,45,16a15.063,15.063,0,0,0-.14227-1.95856C43.361,25.63342,30,39,30,39Z" style="fill:#750000;opacity:0.2"/><path d="M30,4A15.00164,15.00164,0,0,1,44.92139,17.45874C44.96771,16.96887,45,16.48138,45,16a15,15,0,0,0-30,0c0,.48138.03229.96887.07861,1.45874A15.00164,15.00164,0,0,1,30,4Z" style="fill:#fff;opacity:0.75"/><path d="M30,44a.99676.99676,0,0,1-.707-.293C28.66895,43.08252,14,28.27295,14,16a16,16,0,0,1,32,0c0,12.27295-14.66895,27.08252-15.293,27.707A.99676.99676,0,0,1,30,44ZM30,2A14.01573,14.01573,0,0,0,16,16c0,9.98389,11.06348,22.4292,14,25.55518C32.93652,38.42725,44,25.97607,44,16A14.01573,14.01573,0,0,0,30,2Zm0,20a6,6,0,1,1,6-6A6.00656,6.00656,0,0,1,30,22Zm0-10a4,4,0,1,0,4,4A4.00427,4.00427,0,0,0,30,12Z" style="fill:#6d6daa"/></svg>