<svg id="Maps_Travel" data-name="Maps &amp; Travel" xmlns="http://www.w3.org/2000/svg" width="60" height="60" viewBox="0 0 60 60"><title>007_007</title><path d="M30,1A20.99995,20.99995,0,0,0,9,22C9,37,30,59,30,59S51,37,51,22A20.99995,20.99995,0,0,0,30,1Zm0,28a7,7,0,1,1,7-7A7,7,0,0,1,30,29Z" style="fill:#ff9797"/><path d="M30,55S10.66315,34.73376,9.11017,19.84131A21.23283,21.23283,0,0,0,9,22C9,37,30,59,30,59S51,37,51,22a21.23283,21.23283,0,0,0-.11017-2.15869C49.33685,34.73376,30,55,30,55Z" style="fill:#750000;opacity:0.2"/><path d="M30,4A20.98508,20.98508,0,0,1,50.92621,23.53851C50.97217,23.01886,51,22.50488,51,22A21,21,0,0,0,9,22c0,.50488.02783,1.01886.07379,1.53851A20.98508,20.98508,0,0,1,30,4Z" style="fill:#fff;opacity:0.5"/><path d="M30,60a1.00139,1.00139,0,0,1-.72363-.30957C28.4082,58.78027,8,37.22559,8,22a22,22,0,0,1,44,0c0,15.22559-20.4082,36.78027-21.27637,37.69043A1.00139,1.00139,0,0,1,30,60ZM30,2A20.0226,20.0226,0,0,0,10,22c0,12.877,16.332,31.50732,20,35.52832C33.666,53.50781,50,34.87158,50,22A20.0226,20.0226,0,0,0,30,2Zm0,28a8,8,0,1,1,8-8A8.00917,8.00917,0,0,1,30,30Zm0-14a6,6,0,1,0,6,6A6.00656,6.00656,0,0,0,30,16Z" style="fill:#6d6daa"/></svg>