<svg id="Food_2" xmlns="http://www.w3.org/2000/svg" width="60" height="60" viewBox="0 0 60 60"><title>006b021</title><g style="opacity:0.5"><path d="M35.16,27.22A19.77382,19.77382,0,0,0,32,37.96V51a8.00212,8.00212,0,0,0,7.83,8H20a7.9978,7.9978,0,0,0,8-8V37.96a19.80711,19.80711,0,0,0-3.16-10.75c2.285-2.21,8.535-2.585,10.31,0Z" style="fill:#bde3ef"/><path d="M56,1.33775l-19.65,24.56a17.35429,17.35429,0,0,0-1.19,1.66l-.01-.01a5.72619,5.72619,0,0,1-4.09,2.37,6.60258,6.60258,0,0,1-3.49-.36,6.05818,6.05818,0,0,1-2.73-2.01,19.15715,19.15715,0,0,0-1.19-1.65L4,1.33775Z" style="fill:#bde3ef"/></g><path d="M47.085,12.51831,36.875,25c-.43.53-3.66833,4.29333-5.20833,4.58333a7.82847,7.82847,0,0,1-4-.33333c-1.03-.41-3.98667-3.63667-4.41667-4.16667L12.125,11a4.62116,4.62116,0,0,1,4.215-.18336l3.22,1.98a3.68333,3.68333,0,0,0,3.74,0l3.22-1.98a3.68333,3.68333,0,0,1,3.74,0l3.22,1.98a3.68333,3.68333,0,0,0,3.74,0l3.22-1.98c1.11-.68,2.63-.68,4.365.29167Z" style="fill:#96d7ff"/><path d="M16.34,13.51l3.22,1.98a3.68335,3.68335,0,0,0,3.74,0l3.22-1.98a3.68306,3.68306,0,0,1,3.74,0l3.22,1.98a3.68335,3.68335,0,0,0,3.74,0l3.22-1.98a3.68306,3.68306,0,0,1,3.74,0l.6745.4173L46.46,11.92l-.03-.03-1.07-.65-1.18-.73a3.68335,3.68335,0,0,0-3.74,0l-3.22,1.98a3.68335,3.68335,0,0,1-3.74,0l-3.22-1.98a3.68335,3.68335,0,0,0-3.74,0L23.3,12.49a3.68335,3.68335,0,0,1-3.74,0l-3.22-1.98a3.68346,3.68346,0,0,0-3.74005,0l-.12.09,1.92377,2.4043A3.59983,3.59983,0,0,1,16.34,13.51Z" style="fill:#fff;opacity:0.5"/><path d="M21.43066,14.001a4.58551,4.58551,0,0,1-2.39258-.65918L15.81543,11.3623a2.6634,2.6634,0,0,0-2.69189.00049,1,1,0,0,1-1.04687-1.7041A4.67033,4.67033,0,0,1,16.8623,9.6582L20.085,11.6377a2.6634,2.6634,0,0,0,2.69189-.00049l3.2207-1.97852A4.67033,4.67033,0,0,1,30.7832,9.6582l3.22266,1.97949a2.66571,2.66571,0,0,0,2.69189,0L39.91992,9.6582a4.67122,4.67122,0,0,1,4.78613.00049L46.9541,11.04a1,1,0,0,1-1.04687,1.7041l-2.248-1.38135a2.6643,2.6643,0,0,0-2.69238-.00049L37.74463,13.3418a4.67256,4.67256,0,0,1-4.78564,0L29.73633,11.3623a2.6634,2.6634,0,0,0-2.69189.00049l-3.2207,1.97852A4.58063,4.58063,0,0,1,21.43066,14.001Z" style="fill:#6d6daa"/><g style="opacity:0.75"><polygon points="53.6 4 56 1 4 1 6.4 4 53.6 4" style="fill:#fff"/><path d="M29.8092,27.21c-.08539-.56995-.17535-1.12-.2746-1.65L25,1H14L27.226,25.56c.28943.53.55194,1.08.801,1.65C28.85417,28.64583,29.9823,28.15,29.8092,27.21Z" style="fill:#fff"/></g><g style="opacity:0.2"><path d="M30,26c-5.06,0-9-4-9-4l2.65,3.56a19.17372,19.17372,0,0,1,1.19,1.65,6.05809,6.05809,0,0,0,2.73,2.01,6.60251,6.60251,0,0,0,3.49.36A5.72627,5.72627,0,0,0,35.15,27.21l.00995.01a17.35848,17.35848,0,0,1,1.19-1.66L39,22S33.94,26,30,26Z" style="fill:#2c4b75"/><path d="M45,1S30.809,29.44,30.32925,29.58c-.0937.03015-.30794.076.381,0A5.82638,5.82638,0,0,0,34.85765,27.21l.01011.01a17.35489,17.35489,0,0,1,1.20669-1.66L56,1Z" style="fill:#2c4b75"/></g><path d="M39,59H32c-1-1-2-3.58-2-8V31.422c0-2.49,4-3.932,4-1.422l-2,3.46468V51C32,55.36,37.03026,58.91,39,59Z" style="fill:#2c4b75;opacity:0.2"/><path d="M27.57471,30.21875a.99859.99859,0,0,1-.36084-.06787,7.54214,7.54214,0,0,1-3.15674-2.31348,1,1,0,1,1,1.56055-1.251,5.53894,5.53894,0,0,0,2.31787,1.69922,1.00031,1.00031,0,0,1-.36084,1.93311Z" style="fill:#6d6daa"/><path d="M31.0542,30.58447a1.0001,1.0001,0,0,1-.15576-1.98779,5.55757,5.55757,0,0,0,3.47119-2.01025,1,1,0,1,1,1.56055,1.251,7.55742,7.55742,0,0,1-4.71729,2.73486A1.03105,1.03105,0,0,1,31.0542,30.58447Z" style="fill:#6d6daa"/><path d="M40,60h-.1665c-.02783,0-.05566-.001-.0835-.00342A9.011,9.011,0,0,1,31,51V37.96094a20.9206,20.9206,0,0,1,4.56738-13.021L53.91943,2H16a1,1,0,0,1,0-2H56a.99981.99981,0,0,1,.78076,1.62451L37.12891,26.189A18.91574,18.91574,0,0,0,33,37.96094V51a7.00786,7.00786,0,0,0,7,7,1,1,0,0,1,0,2Z" style="fill:#6d6daa"/><path d="M20,60a1,1,0,0,1,0-2,7.00786,7.00786,0,0,0,7-7V37.96094a18.91574,18.91574,0,0,0-4.12891-11.772L3.21924,1.62451A.99981.99981,0,0,1,4,0H9A1,1,0,0,1,9,2H6.08057L24.43262,24.93994A20.9206,20.9206,0,0,1,29,37.96094V51A9.01047,9.01047,0,0,1,20,60Z" style="fill:#6d6daa"/></svg>