<svg id="Food_2" xmlns="http://www.w3.org/2000/svg" width="60" height="60" viewBox="0 0 60 60"><title>006b019</title><path d="M42.99925,31.65V56a2.996,2.996,0,0,1-3,3h-20a2.996,2.996,0,0,1-3-3V30.51a3.68333,3.68333,0,0,1,3.74,0l3.22,1.98a3.68333,3.68333,0,0,0,3.74,0l3.22-1.98a3.68333,3.68333,0,0,1,3.74,0l3.22,1.98a3.68333,3.68333,0,0,0,3.74,0Z" style="fill:#89dbba"/><path d="M41.61924,32.49a3.68335,3.68335,0,0,1-3.74,0l-3.22-1.98a3.68306,3.68306,0,0,0-3.74,0l-3.22,1.98a3.68335,3.68335,0,0,1-3.74,0l-3.22-1.98a3.68306,3.68306,0,0,0-3.74,0v3a3.68306,3.68306,0,0,1,3.74,0l3.22,1.98a3.68335,3.68335,0,0,0,3.74,0l3.22-1.98a3.68306,3.68306,0,0,1,3.74,0l3.22,1.98a3.68335,3.68335,0,0,0,3.74,0l1.38-.84v-3Z" style="fill:#fff;opacity:0.5"/><path d="M42.99925,15V31.65l-1.38.84a3.68333,3.68333,0,0,1-3.74,0l-3.22-1.98a3.68333,3.68333,0,0,0-3.74,0l-3.22,1.98a3.68333,3.68333,0,0,1-3.74,0l-3.22-1.98a3.68333,3.68333,0,0,0-3.74,0V15Z" style="fill:#bde3ef;opacity:0.5"/><path d="M27.98926,32.94824a.91039.91039,0,0,1-.30566-.05225.95848.95848,0,0,1-.62793-1.22852l.0332-.09424a1.00025,1.00025,0,0,1,1.88672.665A1.0722,1.0722,0,0,1,27.98926,32.94824Zm.87109-2.40088a1.00038,1.00038,0,0,1-.94336-1.33105l.0332-.09473a.9996.9996,0,1,1,1.88672.66113l-.0332.09473A.999.999,0,0,1,28.86035,30.54736Zm.85059-2.50586a.91039.91039,0,0,1-.30566-.05225.95848.95848,0,0,1-.62793-1.22852l.0332-.09424a1.00025,1.00025,0,0,1,1.88672.665A1.0722,1.0722,0,0,1,29.71094,28.0415Zm.86133-2.45312a.91039.91039,0,0,1-.30566-.05225.95848.95848,0,0,1-.62793-1.22852l.0332-.09424a1.00025,1.00025,0,0,1,1.88672.665A1.0722,1.0722,0,0,1,30.57227,25.58838Zm.86133-2.45312a.91039.91039,0,0,1-.30566-.05225A.95848.95848,0,0,1,30.5,21.85449l.0332-.09424a1.00025,1.00025,0,0,1,1.88672.665A1.0722,1.0722,0,0,1,31.43359,23.13525Zm.86133-2.45361a.91039.91039,0,0,1-.30566-.05225.95848.95848,0,0,1-.62793-1.22852l.0332-.09424a1.00025,1.00025,0,0,1,1.88672.665A1.0722,1.0722,0,0,1,32.29492,20.68164Zm.86035-2.45312a.91039.91039,0,0,1-.30566-.05225.95848.95848,0,0,1-.62793-1.22852l.0332-.09424a1.00025,1.00025,0,0,1,1.88672.665A1.0722,1.0722,0,0,1,33.15527,18.22852Z" style="fill:#6d6daa;opacity:0.5"/><g style="opacity:0.2"><path d="M39.99925,56h-20a2.996,2.996,0,0,1-3-3v3a2.996,2.996,0,0,0,3,3h20a2.996,2.996,0,0,0,3-3V53A2.996,2.996,0,0,1,39.99925,56Z" style="fill:#2c4b75"/><path d="M36.99925,15h6a0,0,0,0,1,0,0V55.96532A3.03467,3.03467,0,0,1,39.96458,59H36.99925a0,0,0,0,1,0,0V15A0,0,0,0,1,36.99925,15Z" style="fill:#2c4b75"/></g><g style="opacity:0.75"><rect x="21.99925" y="14.99998" width="6" height="44" style="fill:#fff"/><rect x="16.99925" y="14.99998" width="26" height="3" style="fill:#fff"/></g><path d="M39.999,60h-20a4.00427,4.00427,0,0,1-4-4V15a.99974.99974,0,0,1,1-1h2a1,1,0,1,1,0,2h-1V56a2.00229,2.00229,0,0,0,2,2h20a2.00229,2.00229,0,0,0,2-2V16h-18a1,1,0,0,1,0-2h19a.99974.99974,0,0,1,1,1V56A4.00427,4.00427,0,0,1,39.999,60Z" style="fill:#6d6daa"/><path d="M39.751,34.001a4.58426,4.58426,0,0,1-2.39258-.65918L34.13574,31.3623a2.6643,2.6643,0,0,0-2.69238.00049l-3.21973,1.97852a4.67345,4.67345,0,0,1-4.78613.00049L20.21484,31.3623a2.66661,2.66661,0,0,0-2.69238.00049,1.0004,1.0004,0,0,1-1.04687-1.70508,4.67568,4.67568,0,0,1,4.78613.00049l3.22266,1.97949a2.6643,2.6643,0,0,0,2.69238-.00049l3.21973-1.97852a4.67345,4.67345,0,0,1,4.78613-.00049l3.22266,1.97949a2.66481,2.66481,0,0,0,2.69141,0l1.40527-.86328a1,1,0,1,1,1.04688,1.7041l-1.40527.86328A4.58426,4.58426,0,0,1,39.751,34.001Z" style="fill:#6d6daa"/><path d="M33.999,16.00049a1.00076,1.00076,0,0,1-.94824-1.31689l3-9a.99929.99929,0,0,1,.46289-.55762l9-5a.99974.99974,0,1,1,.9707,1.748l-8.66016,4.811-2.877,8.63135A.99993.99993,0,0,1,33.999,16.00049Z" style="fill:#6d6daa"/></svg>