<svg id="Food_2" xmlns="http://www.w3.org/2000/svg" width="60" height="60" viewBox="0 0 60 60"><title>006b041</title><path d="M51,35,3,56,24,8A27.00216,27.00216,0,0,1,51,35Z" style="fill:#ffd599"/><g style="opacity:0.2"><path d="M24,8l-.06165.14087A27.00583,27.00583,0,0,1,48.16669,35H51A27.00216,27.00216,0,0,0,24,8Z" style="fill:#750000"/><path d="M4.67731,52.16614,3,56,51,35a27.24751,27.24751,0,0,0-.173-3.02435Z" style="fill:#750000"/><circle cx="30" cy="24" r="5" style="fill:#750000"/><circle cx="40" cy="34" r="3" style="fill:#750000"/><path d="M14,40a3.00024,3.00024,0,1,0-.52307-5.94727l-1.99707,4.5647A2.99184,2.99184,0,0,0,14,40Z" style="fill:#750000"/></g><path d="M26.8,8.8c2.07141,0,.29083-.8-2.8-.8L3,56l3.89563-1.70435Z" style="fill:#fff;opacity:0.5"/><path d="M57,35a3,3,0,0,1-6,0A27.00216,27.00216,0,0,0,24,8a3,3,0,0,1,0-6A33.00691,33.00691,0,0,1,57,35Z" style="fill:#ffcc82"/><g style="opacity:0.2"><path d="M45.77869,10.22162A32.86294,32.86294,0,0,1,54,32a2.996,2.996,0,0,1-3,3,3,3,0,0,0,6,0A32.91438,32.91438,0,0,0,45.77869,10.22162Z" style="fill:#750000"/></g><g style="opacity:0.5"><path d="M27,5a32.86326,32.86326,0,0,1,21.77869,8.22162A32.91456,32.91456,0,0,0,24,2a3,3,0,0,0,0,6A2.996,2.996,0,0,1,27,5Z" style="fill:#fff"/></g><circle cx="30" cy="21" r="5" style="fill:#ff9797"/><path d="M30,19a4.98325,4.98325,0,0,1,4.74561,3.5A4.946,4.946,0,0,0,35,21a5,5,0,0,0-10,0,4.946,4.946,0,0,0,.25439,1.5A4.98325,4.98325,0,0,1,30,19Z" style="fill:#fff;fill-rule:evenodd;opacity:0.5"/><path d="M30,38a5.98945,5.98945,0,0,0-5.42078,8.55908L35.5614,41.75439A5.99885,5.99885,0,0,0,30,38Z" style="fill:#ff9797"/><path d="M30,41a5.95538,5.95538,0,0,1,3.91772,1.47351l1.64368-.71912A5.99849,5.99849,0,0,0,24,44a5.89608,5.89608,0,0,0,.19843,1.49323A5.99679,5.99679,0,0,1,30,41Z" style="fill:#fff;opacity:0.5"/><circle cx="40" cy="31" r="3" style="fill:#fff27d"/><path d="M14,38a3.00024,3.00024,0,1,0-.52307-5.94727l-1.99707,4.5647A2.99184,2.99184,0,0,0,14,38Z" style="fill:#b1f1a8"/><path d="M3,57a1,1,0,0,1-.916-1.40088l21-48A.99986.99986,0,0,1,24,7,28.03145,28.03145,0,0,1,52,35a.99986.99986,0,0,1-.59912.916l-48,21A.9961.9961,0,0,1,3,57ZM24.65039,9.00781l-19.71,45.05176,45.05176-19.71A26.03558,26.03558,0,0,0,24.65039,9.00781ZM51,35h0Z" style="fill:#6d6daa"/><path d="M54,39a4.00458,4.00458,0,0,1-4-4A26.02948,26.02948,0,0,0,24,9a4,4,0,0,1,0-8A34.03864,34.03864,0,0,1,58,35,4.00458,4.00458,0,0,1,54,39ZM24,3a2,2,0,0,0,0,4A28.03145,28.03145,0,0,1,52,35a2,2,0,0,0,4,0A32.036,32.036,0,0,0,24,3Z" style="fill:#6d6daa"/><path d="M24.5791,47.55957a.99976.99976,0,0,1-.9043-.57227,6.92971,6.92971,0,0,1-.67529-2.98682,6.9987,6.9987,0,0,1,13.48877-2.62061,1.00005,1.00005,0,0,1-.52637,1.291L24.97949,47.47559A.99581.99581,0,0,1,24.5791,47.55957Zm5.42041-8.55908a5.00589,5.00589,0,0,0-5,5,4.91947,4.91947,0,0,0,.15234,1.2168l9.03223-3.95166A4.97383,4.97383,0,0,0,29.99951,39.00049Z" style="fill:#6d6daa"/><path d="M29.99951,27.00049a6.00656,6.00656,0,0,1-6-6,1,1,0,0,1,2,0,4,4,0,1,0,4-4,1,1,0,0,1,0-2,6,6,0,1,1,0,12Z" style="fill:#6d6daa"/><path d="M39.99951,35.00049a4.00458,4.00458,0,0,1-4-4,1,1,0,0,1,2,0,2,2,0,1,0,2-2,1,1,0,0,1,0-2,4,4,0,0,1,0,8Z" style="fill:#6d6daa"/><path d="M13.99951,39.00049a3.98385,3.98385,0,0,1-3.36084-1.84131.9999.9999,0,0,1-.0752-.94189l1.99707-4.56494a.9991.9991,0,0,1,.74365-.584,3.96419,3.96419,0,0,1,4.69531,3.93213,1,1,0,1,1-2,0,2.00229,2.00229,0,0,0-1.84814-1.99414l-1.51172,3.45459a1.98084,1.98084,0,0,0,1.35986.53955,1,1,0,1,1,0,2Z" style="fill:#6d6daa"/><path d="M14,46a1,1,0,0,1-.707-1.707l1-1A.99989.99989,0,0,1,15.707,44.707l-1,1A.99676.99676,0,0,1,14,46Z" style="fill:#6d6daa"/><path d="M24,36a1.05235,1.05235,0,0,1-.71-.29A1.03173,1.03173,0,0,1,23,35a.9995.9995,0,0,1,.07959-.38037A1.15319,1.15319,0,0,1,23.29,34.29a1.00229,1.00229,0,0,1,1.08984-.21045A1.03554,1.03554,0,0,1,24.71,34.29a1.16214,1.16214,0,0,1,.21.32959A1,1,0,0,1,25,35a.99042.99042,0,0,1-1,1Z" style="fill:#6d6daa"/><path d="M26,14a.99042.99042,0,1,1,.71-.29A1.05235,1.05235,0,0,1,26,14Z" style="fill:#6d6daa"/><path d="M42,24a1,1,0,0,1-.38037-.08008.90422.90422,0,0,1-.54-.54A.999.999,0,0,1,41,23a1.05006,1.05006,0,0,1,.29-.71,1.15319,1.15319,0,0,1,.32959-.21045A1.03785,1.03785,0,0,1,42.71,22.29,1.05235,1.05235,0,0,1,43,23a.99953.99953,0,0,1-.08008.37988,1.16449,1.16449,0,0,1-.21.33008A1.05329,1.05329,0,0,1,42,24Z" style="fill:#6d6daa"/><path d="M20,29a1.00405,1.00405,0,1,1,1-1,1.38371,1.38371,0,0,1-.02.19971.652.652,0,0,1-.06006.18018.75916.75916,0,0,1-.09033.18018.85912.85912,0,0,1-.26953.26953.75916.75916,0,0,1-.18018.09033.652.652,0,0,1-.18018.06006A1.38371,1.38371,0,0,1,20,29Z" style="fill:#6d6daa"/><path d="M32,34a.99676.99676,0,0,1-.707-.293l-1-1A.99989.99989,0,0,1,31.707,31.293l1,1A1,1,0,0,1,32,34Z" style="fill:#6d6daa"/></svg>