<svg id="Food_1" xmlns="http://www.w3.org/2000/svg" width="60" height="60" viewBox="0 0 60 60"><title>006a040</title><rect x="5.999" y="18.00048" width="48" height="9" style="fill:#fff27d"/><rect x="5.999" y="27.00048" width="48" height="11" style="fill:#89dbba"/><path d="M55.77668,42.24048v2.3141a6.46522,6.46522,0,0,1-6.4443,6.4459H10.66549a6.46567,6.46567,0,0,1-6.4443-6.4459v-2.3141a1.24266,1.24266,0,0,1,1.24081-1.24H54.53578a1.24267,1.24267,0,0,1,1.2409,1.24Z" style="fill:#ffc661;fill-rule:evenodd"/><path d="M13.999,41.00048v6.46643a3.53355,3.53355,0,0,0,3.53351,3.53357H25.999v-10Z" style="fill:#fff;opacity:0.5"/><g style="opacity:0.2"><path d="M54.5358,41.00048H44.20237a1.24263,1.24263,0,0,1,1.24091,1.24v2.31409A6.46524,6.46524,0,0,1,38.999,51.00048H49.33237a6.46529,6.46529,0,0,0,6.44434-6.44592V42.24047A1.24267,1.24267,0,0,0,54.5358,41.00048Z" style="fill:#750000;fill-rule:evenodd"/><path d="M49.33237,48.00048H10.6655a6.46536,6.46536,0,0,1-6.41638-5.89777,1.14956,1.14956,0,0,0-.028.13776v2.31409a6.46572,6.46572,0,0,0,6.44434,6.44592H49.33237a6.46529,6.46529,0,0,0,6.44434-6.44592V42.24047a1.14956,1.14956,0,0,0-.028-.13776A6.46483,6.46483,0,0,1,49.33237,48.00048Z" style="fill:#750000;fill-rule:evenodd"/></g><path d="M29.99939,6.00048c-13.3593,0-24.3493,5.9176-25.6492,13.4925a1.27093,1.27093,0,0,0,.2707,1.0484,1.18739,1.18739,0,0,0,.9505.4591h48.8552a1.18761,1.18761,0,0,0,.9512-.4591,1.27094,1.27094,0,0,0,.2708-1.0484c-1.3-7.5749-12.29-13.4925-25.6492-13.4925Z" style="fill:#ffc661;fill-rule:evenodd"/><g style="opacity:0.2"><path d="M55.649,19.49047c-1.3-7.57-12.29-13.49-25.65-13.49-.65015,0-1.29272.01819-1.93079.04572C38.70359,6.16683,46.999,16.00048,44.999,21.00048h9.43a1.19806,1.19806,0,0,0,.95-.46A1.275,1.275,0,0,0,55.649,19.49047Z" style="fill:#750000"/><path d="M55.16325,17.74865a1.1654,1.1654,0,0,1-.73425.25183H5.569a1.16535,1.16535,0,0,1-.73419-.25183A9.35938,9.35938,0,0,0,4.349,19.49047a1.275,1.275,0,0,0,.27,1.05,1.19806,1.19806,0,0,0,.95.46h48.86a1.19806,1.19806,0,0,0,.95-.46,1.275,1.275,0,0,0,.27-1.05A9.35918,9.35918,0,0,0,55.16325,17.74865Z" style="fill:#750000"/></g><g style="opacity:0.5"><path d="M26.70875,21.00048H13.999c-.29025-8,8-15,16-15A32.59763,32.59763,0,0,0,26.70875,21.00048Z" style="fill:#fff"/><path d="M4.66733,20.58825C6.91013,14.56512,17.39841,9.00048,29.999,9.00048s23.08893,5.5647,25.33173,11.58783c.01556-.017.0332-.02979.04828-.04785a1.275,1.275,0,0,0,.27-1.05c-1.3-7.57-12.29-13.49-25.65-13.49s-24.35,5.92-25.65,13.49a1.275,1.275,0,0,0,.27,1.05C4.63407,20.55853,4.65177,20.57122,4.66733,20.58825Z" style="fill:#fff"/></g><path d="M.999,26.33438a1.46915,1.46915,0,0,1,1.16809-1.4546c1.5442-.2944,3.0882-1.0254,4.6318-1.0254,1.9337,0,3.8663,1.1461,5.8,1.1461s3.8663-1.1461,5.7999-1.1461,3.8671,1.1461,5.7999,1.1461c1.93431,0,3.8672-1.1461,5.8006-1.1461,1.93371,0,3.8665,1.1461,5.8,1.1461s3.8664-1.1461,5.7999-1.1461,4.134,1.1461,5.7999,1.1461c1.8511,0,3.8671-1.1461,5.8-1.1461,1.54491,0,3.0893.7317,4.634,1.0258a1.46383,1.46383,0,0,1,1.16592,1.4497v1.9517a1.491,1.491,0,0,1-1.87332,1.4374,16.32,16.32,0,0,0-3.9266-.8646c-1.9329,0-3.9489,1.1461-5.8,1.1461-1.6659,0-3.8663-1.1461-5.7999-1.1461s-3.8663,1.1461-5.7999,1.1461-3.86629-1.1461-5.8-1.1461c-1.9334,0-3.86629,1.1461-5.8006,1.1461-1.9328,0-3.8664-1.1461-5.7999-1.1461s-3.8663,1.1461-5.7999,1.1461-3.8663-1.1461-5.8-1.1461a19.69618,19.69618,0,0,0-3.9606.6541A1.48774,1.48774,0,0,1,.999,28.06028Z" style="fill:#ff9797;fill-rule:evenodd"/><path d="M55.77668,33.00048h-.5853a1.99962,1.99962,0,0,0-1.4142.5858l-3.435,3.435a1.00015,1.00015,0,0,1-1.4143,0l-3.435-3.435a1.9998,1.9998,0,0,0-1.4142-.5858h-1.8873a1.99962,1.99962,0,0,0-1.4142.5858l-3.435,3.435a1.00015,1.00015,0,0,1-1.4143,0l-3.435-3.435a1.9998,1.9998,0,0,0-1.4142-.5858h-1.8873a1.99962,1.99962,0,0,0-1.4142.5858l-3.435,3.435a1.00015,1.00015,0,0,1-1.4143,0l-3.435-3.435a1.9998,1.9998,0,0,0-1.4142-.5858h-1.8873a1.99962,1.99962,0,0,0-1.4142.5858l-3.435,3.435a1.00015,1.00015,0,0,1-1.4143,0l-3.435-3.435a1.9998,1.9998,0,0,0-1.4142-.5858h-.8575A3.23168,3.23168,0,0,0,.999,36.22268v1.5564a3.23082,3.23082,0,0,0,3.22139,3.2214h51.5563a3.23173,3.23173,0,0,0,3.22232-3.2223v-1.5554A3.23173,3.23173,0,0,0,55.77668,33.00048Z" style="fill:#b1f1a8;fill-rule:evenodd"/><g style="opacity:0.5"><path d="M57.83311,24.88018c-1.54474-.29413-3.08911-1.02582-4.634-1.02582-1.93286,0-3.94891,1.14612-5.8,1.14612-1.66589,0-3.86627-1.14612-5.79993-1.14612-1.93347,0-3.86627,1.14612-5.79987,1.14612s-3.86627-1.14612-5.8-1.14612c-1.93341,0-3.86633,1.14612-5.8006,1.14612-1.9328,0-3.86639-1.14612-5.79993-1.14612s-3.86627,1.14612-5.79987,1.14612-3.86633-1.14612-5.8-1.14612c-1.54358,0-3.08759.731-4.63177,1.02539A1.46918,1.46918,0,0,0,.999,26.33434v1.726a1.47938,1.47938,0,0,0,.06775.42346A1.43717,1.43717,0,0,1,2.16709,27.4259c1.54419-.29443,3.0882-1.02545,4.63177-1.02545,1.93372,0,3.86633,1.14612,5.8,1.14612s3.86627-1.14612,5.79987-1.14612,3.86713,1.14612,5.79993,1.14612c1.93427,0,3.86719-1.14612,5.8006-1.14612,1.93372,0,3.86646,1.14612,5.8,1.14612s3.86639-1.14612,5.79987-1.14612c1.93365,0,4.134,1.14612,5.79993,1.14612,1.85107,0,3.86713-1.14612,5.8-1.14612,1.54492,0,3.08929.73175,4.634,1.02582a1.437,1.437,0,0,1,1.12439,1.20685,1.49985,1.49985,0,0,0,.0415-.35156V26.32989A1.46378,1.46378,0,0,0,57.83311,24.88018Z" style="fill:#fff;fill-rule:evenodd"/><path d="M27.999,24.17272a15.26344,15.26344,0,0,1-3.80029.82776c-1.9328,0-3.86639-1.14612-5.79993-1.14612s-3.86627,1.14612-5.79987,1.14612a5.5007,5.5007,0,0,1-.59991-.04077v5a5.5007,5.5007,0,0,0,.59991.04077c1.93359,0,3.86627-1.14612,5.79987-1.14612s3.86713,1.14612,5.79993,1.14612a15.26344,15.26344,0,0,0,3.80029-.82776Z" style="fill:#fff;fill-rule:evenodd"/></g><path d="M57.83311,24.88018c-1.54474-.29413-3.08911-1.02582-4.634-1.02582-1.93286,0-3.94891,1.14612-5.8,1.14612A14.55125,14.55125,0,0,1,43.999,24.26v5a14.55125,14.55125,0,0,0,3.40009.74048c1.85107,0,3.86713-1.14612,5.8-1.14612a16.32035,16.32035,0,0,1,3.92664.86462A1.491,1.491,0,0,0,58.999,28.28155V26.32989A1.46378,1.46378,0,0,0,57.83311,24.88018Z" style="fill:#750000;fill-rule:evenodd;opacity:0.2"/><g style="opacity:0.5"><path d="M11.999,41.00048h16V33.40435a1.98668,1.98668,0,0,0-.2218.18188l-3.435,3.43506a1.00026,1.00026,0,0,1-1.41431,0l-3.435-3.43506a1.99989,1.99989,0,0,0-1.41418-.58575H16.19138a1.99968,1.99968,0,0,0-1.41418.58575L11.999,36.3645Z" style="fill:#fff;fill-rule:evenodd"/><path d="M31.07871,33.00048H29.19138a1.99968,1.99968,0,0,0-1.41418.58575L25.363,36.00048h9.54407L32.4929,33.58624A1.99989,1.99989,0,0,0,31.07871,33.00048Z" style="fill:#fff;fill-rule:evenodd"/><path d="M18.07871,33.00048H16.19138a1.99968,1.99968,0,0,0-1.41418.58575L12.363,36.00048h9.54407L19.4929,33.58624A1.99989,1.99989,0,0,0,18.07871,33.00048Z" style="fill:#fff;fill-rule:evenodd"/><path d="M53.7772,33.58624,51.363,36.00048h7.6134a3.22283,3.22283,0,0,0-3.19971-3h-.58533A1.99968,1.99968,0,0,0,53.7772,33.58624Z" style="fill:#fff;fill-rule:evenodd"/><path d="M4.22117,33.00048a3.22276,3.22276,0,0,0-3.19958,3h7.8855L6.4929,33.58624a1.99989,1.99989,0,0,0-1.41418-.58575Z" style="fill:#fff;fill-rule:evenodd"/><path d="M44.07871,33.00048H42.19138a1.99968,1.99968,0,0,0-1.41418.58575L38.363,36.00048h9.54407L45.4929,33.58624A1.99989,1.99989,0,0,0,44.07871,33.00048Z" style="fill:#fff;fill-rule:evenodd"/></g><g style="opacity:0.2"><path d="M55.77671,38.00048H4.22037A3.22916,3.22916,0,0,1,1.088,35.50085a3.18085,3.18085,0,0,0-.08905.7218V37.779a3.23081,3.23081,0,0,0,3.22137,3.22144H55.77671A3.23174,3.23174,0,0,0,58.999,37.77819V36.22277a3.18174,3.18174,0,0,0-.08923-.72229A3.23006,3.23006,0,0,1,55.77671,38.00048Z" style="fill:#750000;fill-rule:evenodd"/><path d="M55.77671,33.00048h-.58533a1.99968,1.99968,0,0,0-1.41418.58575l-3.435,3.43506a1.00026,1.00026,0,0,1-1.41431,0l-3.435-3.43506a1.99989,1.99989,0,0,0-1.41418-.58575H43.999v8H55.77671A3.23174,3.23174,0,0,0,58.999,37.77819V36.22277A3.23174,3.23174,0,0,0,55.77671,33.00048Z" style="fill:#750000;fill-rule:evenodd"/></g><path d="M54.42676,22.00049H5.57129a2.18915,2.18915,0,0,1-1.72656-.82861,2.27271,2.27271,0,0,1-.47949-1.8501C4.7666,11.1582,16.21582,5.00049,29.999,5.00049s25.2334,6.15771,26.63477,14.32373a2.26974,2.26974,0,0,1-.48047,1.84863A2.18835,2.18835,0,0,1,54.42676,22.00049Zm-24.42773-15c-12.61133,0-23.44434,5.56152-24.66309,12.66162a.27522.27522,0,0,0,.06055.248.19445.19445,0,0,0,.1748.09033H54.42676a.1936.1936,0,0,0,.1748-.08936.27245.27245,0,0,0,.06152-.24658C53.44434,12.562,42.61133,7.00049,29.999,7.00049Z" style="fill:#6d6daa"/><path d="M49.332,52.00049H10.665a7.45381,7.45381,0,0,1-7.44434-7.4458v-2.314a2.2435,2.2435,0,0,1,2.24121-2.24023H54.53613a2.24267,2.24267,0,0,1,2.24023,2.24023v2.314A7.45381,7.45381,0,0,1,49.332,52.00049Zm-43.87012-10a.24377.24377,0,0,0-.24121.24023v2.314a5.45121,5.45121,0,0,0,5.44434,5.4458H49.332a5.45121,5.45121,0,0,0,5.44434-5.4458v-2.314a.24358.24358,0,0,0-.24023-.24023Z" style="fill:#6d6daa"/><path d="M47.39941,31.00049a11.14077,11.14077,0,0,1-2.96387-.57959,11.104,11.104,0,0,0-2.83594-.56641,9.61882,9.61882,0,0,0-2.61621.53174,11.21241,11.21241,0,0,1-3.18457.61426,11.20575,11.20575,0,0,1-3.18359-.61426,9.61157,9.61157,0,0,0-2.61621-.53174,9.60512,9.60512,0,0,0-2.61523.53174,11.236,11.236,0,0,1-3.18555.61426,11.20575,11.20575,0,0,1-3.18359-.61426,9.61157,9.61157,0,0,0-2.61621-.53174,9.60512,9.60512,0,0,0-2.61523.53174,11.21241,11.21241,0,0,1-3.18457.61426,11.21241,11.21241,0,0,1-3.18457-.61426,9.60512,9.60512,0,0,0-2.61523-.53174,18.33026,18.33026,0,0,0-3.72266.625A2.48731,2.48731,0,0,1-.001,28.06006V26.33447a2.466,2.466,0,0,1,1.98047-2.437c.52832-.10059,1.06641-.25977,1.63477-.42871a11.23594,11.23594,0,0,1,3.18457-.61426,11.21241,11.21241,0,0,1,3.18457.61426,9.60512,9.60512,0,0,0,2.61523.53174,9.60512,9.60512,0,0,0,2.61523-.53174,11.21241,11.21241,0,0,1,3.18457-.61426,11.22277,11.22277,0,0,1,3.18457.61426,9.61237,9.61237,0,0,0,2.61523.53174,9.618,9.618,0,0,0,2.61719-.53174,11.20575,11.20575,0,0,1,3.18359-.61426,11.22277,11.22277,0,0,1,3.18457.61426,9.61237,9.61237,0,0,0,2.61523.53174,9.61882,9.61882,0,0,0,2.61621-.53174,11.21241,11.21241,0,0,1,3.18457-.61426,12.51093,12.51093,0,0,1,3.3877.64355,9.87867,9.87867,0,0,0,2.41211.50244,9.69211,9.69211,0,0,0,2.55566-.52344,11.60522,11.60522,0,0,1,3.24414-.62256,11.22277,11.22277,0,0,1,3.18457.61426c.56934.16895,1.10742.32861,1.63672.4292A2.46115,2.46115,0,0,1,59.999,26.33008v1.95166a2.49026,2.49026,0,0,1-3.124,2.40479c-.35449-.09131-.709-.19629-1.06348-.30127a9.608,9.608,0,0,0-2.6123-.53076,9.99614,9.99614,0,0,0-2.68066.542A11.26463,11.26463,0,0,1,47.39941,31.00049Zm-5.7998-3.146a12.51093,12.51093,0,0,1,3.3877.64355,9.87867,9.87867,0,0,0,2.41211.50244,9.69211,9.69211,0,0,0,2.55566-.52344,11.60522,11.60522,0,0,1,3.24414-.62256,11.20175,11.20175,0,0,1,3.18066.61328c.332.09814.66406.19678.99707.28271a.49822.49822,0,0,0,.43555-.08691.47548.47548,0,0,0,.18652-.38184V26.33008a.4664.4664,0,0,0-.35254-.46729,18.8195,18.8195,0,0,1-1.83105-.47656,9.61157,9.61157,0,0,0-2.61621-.53174,9.99614,9.99614,0,0,0-2.68066.542,11.26463,11.26463,0,0,1-3.11914.604,11.14077,11.14077,0,0,1-2.96387-.57959,11.104,11.104,0,0,0-2.83594-.56641,9.61882,9.61882,0,0,0-2.61621.53174,11.21241,11.21241,0,0,1-3.18457.61426,11.20575,11.20575,0,0,1-3.18359-.61426,9.61157,9.61157,0,0,0-2.61621-.53174,9.60512,9.60512,0,0,0-2.61523.53174,11.236,11.236,0,0,1-3.18555.61426,11.20575,11.20575,0,0,1-3.18359-.61426,9.61157,9.61157,0,0,0-2.61621-.53174,9.60512,9.60512,0,0,0-2.61523.53174,11.21241,11.21241,0,0,1-3.18457.61426,11.21241,11.21241,0,0,1-3.18457-.61426,9.60512,9.60512,0,0,0-2.61523-.53174,9.61882,9.61882,0,0,0-2.61621.53174c-.59082.17529-1.20215.35645-1.82812.47607a.47085.47085,0,0,0-.35547.47217v1.72559a.48536.48536,0,0,0,.18848.38818.46858.46858,0,0,0,.41113.08887,19.4732,19.4732,0,0,1,4.2002-.68262,11.21241,11.21241,0,0,1,3.18457.61426,9.60512,9.60512,0,0,0,2.61523.53174,9.60512,9.60512,0,0,0,2.61523-.53174,11.21241,11.21241,0,0,1,3.18457-.61426,11.22277,11.22277,0,0,1,3.18457.61426,9.61237,9.61237,0,0,0,2.61523.53174,9.618,9.618,0,0,0,2.61719-.53174,11.20575,11.20575,0,0,1,3.18359-.61426,11.22277,11.22277,0,0,1,3.18457.61426,9.61237,9.61237,0,0,0,2.61523.53174,9.61882,9.61882,0,0,0,2.61621-.53174A11.21241,11.21241,0,0,1,41.59961,27.85449Z" style="fill:#6d6daa"/><g style="opacity:0.5"><path d="M23,12a.99953.99953,0,0,1-.37988-.08008.93959.93959,0,0,1-.33008-.21,1.03424,1.03424,0,0,1-.21-.33008.65357.65357,0,0,1-.06055-.18018A.69407.69407,0,0,1,22,11a1.00437,1.00437,0,0,1,.29-.71.9338.9338,0,0,1,.33008-.21045,1.0032,1.0032,0,0,1,.75977,0A1.16226,1.16226,0,0,1,23.71,10.29a1.02671,1.02671,0,0,1,.21.32959A1,1,0,0,1,24,11a1.25919,1.25919,0,0,1-.02051.19971.61976.61976,0,0,1-.05957.18018.77551.77551,0,0,1-.08984.18018c-.04.0498-.08008.09961-.12012.1499a1.17134,1.17134,0,0,1-.33008.21A.99953.99953,0,0,1,23,12Z" style="fill:#6d6daa"/><path d="M37,12a1.03212,1.03212,0,0,1-.71-.29A.98783.98783,0,0,1,36,11a1.00437,1.00437,0,0,1,.29-.71A1.00405,1.00405,0,0,1,37.71,11.71,1.05423,1.05423,0,0,1,37,12Z" style="fill:#6d6daa"/><path d="M47,47a1.05235,1.05235,0,0,1-.71-.29,1.292,1.292,0,0,1-.2207-.33008,1.07667,1.07667,0,0,1,0-.76025A1.48476,1.48476,0,0,1,46.29,45.29a1.03425,1.03425,0,0,1,1.41016,0,.97409.97409,0,0,1,.21973,1.08984.915.915,0,0,1-.21973.33008.61294.61294,0,0,1-.15039.11963.5587.5587,0,0,1-.16992.09033.62025.62025,0,0,1-.19043.06006A1.24751,1.24751,0,0,1,47,47Z" style="fill:#6d6daa"/><path d="M31,47a1.05235,1.05235,0,0,1-.71-.29,1.01394,1.01394,0,0,1,0-1.41992,1.05056,1.05056,0,0,1,.89941-.27.60664.60664,0,0,1,.19043.05957.5587.5587,0,0,1,.16992.09033c.05957.04.11035.08008.16016.12012a1.15153,1.15153,0,0,1,.21.32959A1,1,0,0,1,32,46a1.05329,1.05329,0,0,1-.29.71.95.95,0,0,1-.16016.11963.5587.5587,0,0,1-.16992.09033.62025.62025,0,0,1-.19043.06006A1.24751,1.24751,0,0,1,31,47Z" style="fill:#6d6daa"/><path d="M13,45a.68105.68105,0,0,1-.2002-.02.649.649,0,0,1-.17969-.06006.762.762,0,0,1-.18066-.09033C12.38965,44.79,12.33984,44.75,12.29,44.71A1.02954,1.02954,0,0,1,12,44a1,1,0,0,1,.08008-.38037,1.15153,1.15153,0,0,1,.21-.32959,1.01757,1.01757,0,0,1,1.08984-.21045.90422.90422,0,0,1,.54.54A1,1,0,0,1,14,44a1.03393,1.03393,0,0,1-.29.71A1.05423,1.05423,0,0,1,13,45Z" style="fill:#6d6daa"/><path d="M30,17a1.03212,1.03212,0,0,1-.71-.29.82429.82429,0,0,1-.12012-.1499,1.66568,1.66568,0,0,1-.10059-.18018,1.37644,1.37644,0,0,1-.0498-.18018A.69407.69407,0,0,1,29,16a.98973.98973,0,0,1,.06934-.38037A1.48476,1.48476,0,0,1,29.29,15.29a.99658.99658,0,0,1,.89941-.27.60664.60664,0,0,1,.19043.05957.5587.5587,0,0,1,.16992.09033c.05957.04.11035.08008.16016.12012a1.15153,1.15153,0,0,1,.21.32959A1,1,0,0,1,31,16a1.25919,1.25919,0,0,1-.02051.19971.61976.61976,0,0,1-.05957.18018.77551.77551,0,0,1-.08984.18018c-.04.0498-.08008.09961-.12012.1499a.95.95,0,0,1-.16016.11963.5587.5587,0,0,1-.16992.09033.62025.62025,0,0,1-.19043.06006A1.24751,1.24751,0,0,1,30,17Z" style="fill:#6d6daa"/><path d="M14,15a.9595.9595,0,0,1-.91992-.62012A.99953.99953,0,0,1,13,14a1.24646,1.24646,0,0,1,.01953-.18994.61673.61673,0,0,1,.06055-.19043.74472.74472,0,0,1,.08984-.17969A1.55249,1.55249,0,0,1,13.29,13.29a1.04668,1.04668,0,0,1,1.41992,0c.04.0498.08008.09961.12012.1499a.78218.78218,0,0,1,.08984.17969.59046.59046,0,0,1,.05957.19043A1.13558,1.13558,0,0,1,15,14a.99042.99042,0,0,1-1,1Z" style="fill:#6d6daa"/><path d="M45,17a1.39038,1.39038,0,0,1-.2002-.02.649.649,0,0,1-.17969-.06006.762.762,0,0,1-.18066-.09033A1.52619,1.52619,0,0,1,44.29,16.71,1.02954,1.02954,0,0,1,44,16a.83229.83229,0,0,1,.08008-.38037,1.15153,1.15153,0,0,1,.21-.32959l.14941-.12012a.762.762,0,0,1,.18066-.09033A.6318.6318,0,0,1,44.7998,15.02a.9828.9828,0,0,1,.90039.27A1,1,0,0,1,45,17Z" style="fill:#6d6daa"/></g><path d="M55.77637,42.00049H4.2207A4.226,4.226,0,0,1-.001,37.7793V36.22266A4.22651,4.22651,0,0,1,4.2207,32.00049h.8584a2.98055,2.98055,0,0,1,2.12207.87939l3.43359,3.43457,3.43555-3.43506a2.97817,2.97817,0,0,1,2.12109-.87891h1.8877a2.98055,2.98055,0,0,1,2.12207.87939l3.43359,3.43457,3.43555-3.43506a2.97817,2.97817,0,0,1,2.12109-.87891h1.8877a2.98055,2.98055,0,0,1,2.12207.87939l3.43359,3.43457,3.43555-3.43506a2.97817,2.97817,0,0,1,2.12109-.87891h1.8877a2.98055,2.98055,0,0,1,2.12207.87939l3.43359,3.43457,3.43555-3.43506a2.97817,2.97817,0,0,1,2.12109-.87891h.585A4.22735,4.22735,0,0,1,59.999,36.22266v1.55566A4.22735,4.22735,0,0,1,55.77637,42.00049Zm-51.55566-8A2.22485,2.22485,0,0,0,1.999,36.22266V37.7793A2.22433,2.22433,0,0,0,4.2207,40.00049H55.77637A2.22506,2.22506,0,0,0,57.999,37.77832V36.22266a2.22506,2.22506,0,0,0-2.22266-2.22217h-.585a.9908.9908,0,0,0-.70605.29248l-3.43652,3.43555a2.0037,2.0037,0,0,1-2.82812.00049l-3.43457-3.43555a.99317.99317,0,0,0-.707-.293h-1.8877a.9908.9908,0,0,0-.70605.29248l-3.43652,3.43555a2.0037,2.0037,0,0,1-2.82812.00049l-3.43457-3.43555a.99317.99317,0,0,0-.707-.293h-1.8877a.9908.9908,0,0,0-.70605.29248l-3.43652,3.43555a2.0037,2.0037,0,0,1-2.82812.00049l-3.43457-3.43555a.99317.99317,0,0,0-.707-.293h-1.8877a.9908.9908,0,0,0-.70605.29248l-3.43652,3.43555A2.0037,2.0037,0,0,1,9.2207,37.729L5.78613,34.29346a.99317.99317,0,0,0-.707-.293Z" style="fill:#6d6daa"/></svg>