<svg id="Food_1" xmlns="http://www.w3.org/2000/svg" width="60" height="60" viewBox="0 0 60 60"><title>006a027</title><path d="M21.09409,16.54216c4.64075-.49567,5.19458-.61517,10.03491.23163,4.84033.84808,5.13556.7453,7.51428.38519A5.52117,5.52117,0,0,0,42.32,13.51a.66914.66914,0,0,0-.12549-.55524.58249.58249,0,0,0-.5061-.261,24.66528,24.66528,0,0,1-8.5202-.42273c-3.63574-.60809-8.0528-1.52087-9.96082.13324-.66418.57666-3.552,2.67059-2.618,3.8786A.58085.58085,0,0,0,21.09409,16.54216ZM2.20725,22.28075a.57854.57854,0,0,0,.52954-.20587,33.24249,33.24249,0,0,1,7.946-8.2981,30.14164,30.14164,0,0,0,7.01556-7.32709A5.51914,5.51914,0,0,0,17.403,1.276a.65511.65511,0,0,0-.49817-.27435.5768.5768,0,0,0-.5293.20715A42.024,42.024,0,0,1,8.66043,9.26536c-2.86334,2.3205-7.59265,5.95813-7.62085,8.483C1.03055,18.62974.68594,22.17784,2.20725,22.28075Zm34.01031,2.515c-.13489.871-.98242,4.33459.50922,4.65314a.58264.58264,0,0,0,.55408-.12836A33.12872,33.12872,0,0,1,46.32913,22.242a30.15557,30.15557,0,0,0,7.9906-6.25226,5.52409,5.52409,0,0,0,.44495-5.16052.64934.64934,0,0,0-.45435-.342.57221.57221,0,0,0-.55237.1272,41.97005,41.97005,0,0,1-8.7868,6.8714C41.80508,19.37559,36.60385,22.302,36.21756,24.79576Zm-5.47668-3.3161a5.523,5.523,0,0,0-4.67834-2.228.6571.6571,0,0,0-.47876.3042.57311.57311,0,0,0-.07318.56366,42.05709,42.05709,0,0,1,3.35266,10.63959c.65619,3.62714,1.3042,7.85992,3.50549,9.09772.76672.431,3.71375,2.44293,4.53241,1.15588a.57054.57054,0,0,0,.07452-.56226c-2.03271-4.20129-2.34814-4.45349-3.1864-9.29614A30.05584,30.05584,0,0,0,30.74088,21.47966Zm7.98541,10.572c-.24506.78979-1.51312,3.88226-.17371,4.384a.53665.53665,0,0,0,.53009-.04346,31.13044,31.13044,0,0,1,9.37256-5.3045,28.24908,28.24908,0,0,0,8.27295-4.68781A5.17513,5.17513,0,0,0,57.85745,21.678a.61552.61552,0,0,0-.37219-.38159.54027.54027,0,0,0-.533.04309,39.36739,39.36739,0,0,1-9.09515,5.152C44.65707,27.80107,39.43137,29.7932,38.72629,32.05168Zm-26.83344-6.3045a41.94729,41.94729,0,0,1,5.3197-9.80408.56822.56822,0,0,0,.03387-.56653.64814.64814,0,0,0-.41174-.39209,5.52238,5.52238,0,0,0-5.01593,1.29462,30.09788,30.09788,0,0,0-4.83917,8.91705A33.27657,33.27657,0,0,1,1.50137,35.29436a.56564.56564,0,0,0-.034.565c.55817,1.41943,3.833.00793,4.67017-.26941C8.53238,34.79558,10.55606,29.18278,11.89285,25.74718ZM22.004,8.25328a33.21527,33.21527,0,0,1,11.45538.88287,30.17521,30.17521,0,0,0,10.1145.777,5.52439,5.52439,0,0,0,3.81049-3.51074.64858.64858,0,0,0-.10431-.55786.57191.57191,0,0,0-.49512-.27881,42.03809,42.03809,0,0,1-11.11987-.856c-3.6106-.74268-9.42261-2.091-11.39264-.51007-.68756.55176-3.65106,2.53387-2.76355,3.77631A.57213.57213,0,0,0,22.004,8.25328ZM38.42813,45.52086a42.08633,42.08633,0,0,1-11.00079-1.8432.57065.57065,0,0,0-.54608.15314.65182.65182,0,0,0-.2356.51807,5.51716,5.51716,0,0,0,2.85638,4.3222,30.15306,30.15306,0,0,0,10.00464,1.674,33.22312,33.22312,0,0,1,11.33105,1.8985.57464.57464,0,0,0,.54553-.15192c1.15869-.992-1.23944-3.6311-1.7738-4.33026C48.07864,45.754,42.112,45.667,38.42813,45.52086Zm20.5545-11.381a.6151.6151,0,0,0-.27856-.45428.54017.54017,0,0,0-.52942-.07574,27.28575,27.28575,0,0,1-8.35529,2.37964c-3.41022.57037-7.59137.98187-8.77789,3.02887-.41339.71613-2.23859,3.07312-1.04309,3.85822a.53653.53653,0,0,0,.52667.07471c3.96259-1.85492,4.31262-1.62183,8.86261-2.347,4.54651-.72784,5.45038-1.06415,7.45062-2.10852A5.17465,5.17465,0,0,0,58.98264,34.13988Zm-12.67908,20.07a42.08306,42.08306,0,0,1-11.12219-.82971c-3.61273-.73413-9.42871-2.069-11.3938-.48279-.6853.5531-3.6449,2.54236-2.7536,3.78137a.57391.57391,0,0,0,.496.27814,33.19893,33.19893,0,0,1,11.45386.85455,30.16835,30.16835,0,0,0,10.11829.75293,5.51927,5.51927,0,0,0,3.80334-3.51831.66226.66226,0,0,0-.10425-.55951A.58118.58118,0,0,0,46.30356,54.20988ZM18.42545,19.73955a.65231.65231,0,0,0-.5639-.06.5796.5796,0,0,0-.40826.39545,41.96219,41.96219,0,0,1-3.97272,10.42487c-1.73792,3.24988-3.47089,5.59509-2.51282,7.93219.33624.81372,1.39532,4.2182,2.83679,3.71912a.57559.57559,0,0,0,.40961-.39508c1.01233-4.55652.53369-3.5708,2.88354-7.8877a30.15939,30.15939,0,0,0,3.61475-9.47882A5.52486,5.52486,0,0,0,18.42545,19.73955ZM11.91129,46.07567c-3.492-3.45807-3.348-3.39581-5.63-7.4679a.57546.57546,0,0,0-.50214-.26141c-1.52686-.06287-1.56329,3.5033-1.64789,4.38013-.24542,2.51306,2.688,5.0022,5.28613,7.61658a52.375,52.375,0,0,1,5.91235,6.32611.57155.57155,0,0,0,.53552.187.65.65,0,0,0,.48871-.28949,5.52193,5.52193,0,0,0,.12457-5.17914C15.10306,49.41337,15.40317,49.5338,11.91129,46.07567Zm9.67657,4.71722a.48718.48718,0,0,0,.33368-.38672,25.376,25.376,0,0,1,2.2229-9.77643,22.94789,22.94789,0,0,0,1.96173-8.63239c.0127-1.353-1.64594-3.27887-3.02094-3.80511a.72442.72442,0,0,0-.567.00995.4896.4896,0,0,0-.33362.3866,32.06625,32.06625,0,0,1-2.15631,9.491c-1.1615,3.01361-3.18152,7.84338-1.84991,9.77509C18.64316,48.52855,20.25424,51.37944,21.58786,50.79289Z" style="fill:#ffc661"/><g style="opacity:0.5"><path d="M38.72629,32.05168c-.22.70911-1.25854,3.26862-.50037,4.1485.18549-.664.41089-1.26019.50037-1.54852.70508-2.25848,5.93079-4.25061,9.1308-5.56024a39.36739,39.36739,0,0,0,9.09515-5.152.54027.54027,0,0,1,.533-.04309.61455.61455,0,0,1,.36908.37653,4.89743,4.89743,0,0,0,.00311-2.59491.61552.61552,0,0,0-.37219-.38159.54027.54027,0,0,0-.533.04309,39.36739,39.36739,0,0,1-9.09515,5.152C44.65707,27.80107,39.43137,29.7932,38.72629,32.05168Z" style="fill:#fff"/><path d="M30.74088,21.47966a5.523,5.523,0,0,0-4.67834-2.228.6571.6571,0,0,0-.47876.3042.57311.57311,0,0,0-.07318.56366c.26947.55554.50745,1.14386.75043,1.72681,1.48474-.08685,4.24434,1.14067,4.94729,2.44529Z" style="fill:#fff"/><path d="M41.04147,39.01836c-.41339.71613-2.23859,3.07312-1.04309,3.85822a.7435.7435,0,0,0,.2074.08636c.32068-.56708.6792-1.07349.83569-1.3446,1.18652-2.047,5.36768-2.4585,8.77789-3.02887a27.28575,27.28575,0,0,0,8.35529-2.37964.48256.48256,0,0,1,.42017.03,4.54156,4.54156,0,0,0,.38782-2.1.6151.6151,0,0,0-.27856-.45428.54017.54017,0,0,0-.52942-.07574,27.28575,27.28575,0,0,1-8.35529,2.37964C46.40915,36.55986,42.228,36.97136,41.04147,39.01836Z" style="fill:#fff"/><path d="M22.004,8.25328c.17706-.01215.34332-.02216.51294-.03284.67383-.63153,1.44543-1.172,1.75549-1.42078,1.97-1.58093,7.782-.2326,11.39264.51007A42.46681,42.46681,0,0,0,46.3378,8.1873a4.6653,4.6653,0,0,0,1.04657-1.78485.64858.64858,0,0,0-.10431-.55786.57191.57191,0,0,0-.49512-.27881,42.03809,42.03809,0,0,1-11.11987-.856c-3.6106-.74268-9.42261-2.091-11.39264-.51007-.68756.55176-3.65106,2.53387-2.76355,3.77631A.57213.57213,0,0,0,22.004,8.25328Z" style="fill:#fff"/><path d="M9.4583,21.04165a7.65869,7.65869,0,0,1,6.71757-3.58976c.3407-.5105.67639-1.02856,1.03668-1.50879a.56822.56822,0,0,0,.03387-.56653.64814.64814,0,0,0-.41174-.39209A6.09386,6.09386,0,0,0,10.75,17.04165Z" style="fill:#fff"/><path d="M22.18466,31.18877a.4896.4896,0,0,1,.33362-.3866.72442.72442,0,0,1,.567-.00995,5.66514,5.66514,0,0,1,2.8985,3.12952,17.77074,17.77074,0,0,0,.12244-1.92438c.0127-1.353-1.64594-3.27887-3.02094-3.80511a.72442.72442,0,0,0-.567.00995.4896.4896,0,0,0-.33362.3866Z" style="fill:#fff"/><path d="M36.21756,24.79576c-.10052.649-.59546,2.736-.22479,3.8902.08508-.55554.1853-1.03522.22479-1.29022.38629-2.49377,5.58752-5.42017,8.7536-7.30988a41.97005,41.97005,0,0,0,8.7868-6.8714.57221.57221,0,0,1,.55237-.1272.64934.64934,0,0,1,.45435.342,3.5486,3.5486,0,0,1,.29633.87982,5.65707,5.65707,0,0,0-.29633-3.4798.64934.64934,0,0,0-.45435-.342.57221.57221,0,0,0-.55237.1272,41.97005,41.97005,0,0,1-8.7868,6.8714C41.80508,19.37559,36.60385,22.302,36.21756,24.79576Z" style="fill:#fff"/><path d="M46.30356,54.20988a42.08306,42.08306,0,0,1-11.12219-.82971c-3.61273-.73413-9.42871-2.069-11.3938-.48279-.6853.5531-3.6449,2.54236-2.7536,3.78137a.57391.57391,0,0,0,.496.27814c.17413-.01239.33752-.02264.50452-.03363.67261-.63354,1.44385-1.17633,1.75305-1.4259,1.96509-1.58624,7.78107-.25134,11.3938.48279a42.49568,42.49568,0,0,0,10.683.85181,4.65594,4.65594,0,0,0,1.04108-1.78589.66226.66226,0,0,0-.10425-.55951A.58118.58118,0,0,0,46.30356,54.20988Z" style="fill:#fff"/><path d="M38.42813,45.52086a42.08633,42.08633,0,0,1-11.00079-1.8432.57065.57065,0,0,0-.54608.15314.65182.65182,0,0,0-.2356.51807,4.58844,4.58844,0,0,0,.5564,1.93073.4456.4456,0,0,1,.22528-.002,42.08633,42.08633,0,0,0,11.00079,1.8432c3.6839.14612,9.65051.23309,11.18134,2.24054a22.52222,22.52222,0,0,1,1.41162,1.88043.65349.65349,0,0,0,.36218-.15015c1.15869-.992-1.23944-3.6311-1.7738-4.33026C48.07864,45.754,42.112,45.667,38.42813,45.52086Z" style="fill:#fff"/><path d="M11.91129,46.07567c-3.492-3.45807-3.348-3.39581-5.63-7.4679a.57546.57546,0,0,0-.50214-.26141.84691.84691,0,0,0-.11279.01221c-.13037.04761-.27588.09991-.43188.15442-.99084.70074-1.03021,3.4566-1.10321,4.2135a3.32621,3.32621,0,0,0,.11267,1.179c.14105-1.3335,1.5139-2.75613,2.29771-1.44712,2.53058,4.22609,2.478,3.90868,5.08333,6.375,3.56891,3.37857,3.47809,3.18,4.85358,5.15422a3.1637,3.1637,0,0,1,.44427,1.08258,5.18441,5.18441,0,0,0-.44427-3.68256C15.10306,49.41337,15.40317,49.5338,11.91129,46.07567Z" style="fill:#fff"/><path d="M21.09409,16.54216c.14276-.01526.27051-.029.40582-.04352.65137-.66022,1.40674-1.23328,1.70746-1.49438,1.908-1.65411,6.32507-.74133,9.96082-.13324a24.7548,24.7548,0,0,0,8.17792.45514A4.65657,4.65657,0,0,0,42.32,13.51a.66914.66914,0,0,0-.12549-.55524.58249.58249,0,0,0-.5061-.261,24.66528,24.66528,0,0,1-8.5202-.42273c-3.63574-.60809-8.0528-1.52087-9.96082.13324-.66418.57666-3.552,2.67059-2.618,3.8786A.58085.58085,0,0,0,21.09409,16.54216Z" style="fill:#fff"/><path d="M8.66043,11.86534a42.024,42.024,0,0,0,7.71515-8.05652.5768.5768,0,0,1,.5293-.20715A.65511.65511,0,0,1,17.403,3.876a4.386,4.386,0,0,1,.65955,1.64807A5.81864,5.81864,0,0,0,17.403,1.276a.65511.65511,0,0,0-.49817-.27435.5768.5768,0,0,0-.5293.20715A42.024,42.024,0,0,1,8.66043,9.26536c-2.86334,2.3205-7.59265,5.95813-7.62085,8.483a20.476,20.476,0,0,0,.008,2.53369C1.15457,17.76005,5.8215,14.16606,8.66043,11.86534Z" style="fill:#fff"/><path d="M17.45328,22.675a.5796.5796,0,0,1,.40826-.39545.65231.65231,0,0,1,.5639.06,5.706,5.706,0,0,1,2.10083,2.98608q.10547-.48047.18616-.936a5.52486,5.52486,0,0,0-2.287-4.65.65231.65231,0,0,0-.5639-.06.5796.5796,0,0,0-.40826.39545Z" style="fill:#fff"/></g><path d="M15.76953,57.86133a1.51406,1.51406,0,0,1-1.23828-.59033,34.40272,34.40272,0,0,0-4.06445-4.49072C9.94824,52.27686,9.377,51.72119,8.708,51.04834c-.32617-.32861-.6582-.6543-.9873-.979-2.49219-2.45264-4.8457-4.76953-4.585-7.43994.00879-.09375.01758-.22168.02734-.37451.10645-1.60107.32715-4.90967,2.56152-4.90967.03223,0,.06348.00049.0957.002a1.55686,1.55686,0,0,1,1.33594.77637l.41895.749c1.84277,3.29834,1.87793,3.36133,5.04,6.49268,3.00586,2.97705,3.292,3.40039,4.14063,4.65674.1543.22754.32813.48486.543.79395,1.17285,1.68359.89453,4.82715-.11719,6.31152a1.63866,1.63866,0,0,1-1.2168.72363A1.88315,1.88315,0,0,1,15.76953,57.86133Zm.35352-1.80225.00293.00391ZM5.63867,39.5083a9.17982,9.17982,0,0,0-.47949,2.87988c-.0127.17676-.02246.3252-.0332.43457-.168,1.72119,1.9502,3.80566,3.998,5.82129.335.32959.6709.66113,1.002.99463.65918.66309,1.22363,1.21143,1.73438,1.70752A36.81387,36.81387,0,0,1,15.749,55.57471a4.652,4.652,0,0,0-.09082-3.61523c-.22168-.31885-.40137-.5835-.55957-.81787-.78711-1.165-1.02441-1.5166-3.8916-4.35547-3.3623-3.33008-3.47656-3.53369-5.37793-6.93848Zm-.22949-.41162.002.00439Z" style="fill:#6d6daa"/><path d="M40.97461,11.0625A36.81379,36.81379,0,0,1,33.25,10.11426,32.19189,32.19189,0,0,0,22.07227,9.251a1.5627,1.5627,0,0,1-1.373-.688c-1.35449-1.89648,1.34863-3.93408,2.64746-4.91357.12207-.09229.22559-.16992.2998-.22949,2.043-1.64014,6.41406-.89844,11.49609.16016l.72363.15039a40.70261,40.70261,0,0,0,10.84961.83789,1.52344,1.52344,0,0,1,1.38086.69873,1.65582,1.65582,0,0,1,.25684,1.38428h0c-.44824,1.74023-2.62988,4.02637-4.668,4.25537A23.83357,23.83357,0,0,1,40.97461,11.0625ZM25.55176,7.10791a35.63593,35.63593,0,0,1,8.11719,1.05078,28.8028,28.8028,0,0,0,9.79395.76074,4.65549,4.65549,0,0,0,2.77734-2.31885,43.41733,43.41733,0,0,1-10.77734-.91113l-.72754-.15137c-2.92285-.6084-8.36133-1.74121-9.83691-.55859-.08594.06934-.20605.15967-.34766.26709a8.30963,8.30963,0,0,0-2.11719,1.97656C23.60352,7.14893,24.61035,7.10791,25.55176,7.10791Zm-3.61523.14795-.01172.00049ZM46.8584,6.563l-.00391.00049Z" style="fill:#6d6daa"/><path d="M2.2627,23.28223c-.03711,0-.07422-.001-.1123-.00293-2.32715-.15771-2.18945-3.541-2.123-5.16748C.0332,17.96.03906,17.832.04,17.7373c.02832-2.61816,3.373-5.52539,7.41016-8.77979l.58008-.46875A40.76685,40.76685,0,0,0,15.56055.63037,1.56433,1.56433,0,0,1,16.96191.00293,1.6648,1.6648,0,0,1,18.21.68408h0c1.06348,1.44922,1.44629,4.58691.32715,6.31055a30.59046,30.59046,0,0,1-7.23145,7.564,32.25589,32.25589,0,0,0-7.75488,8.0957A1.53,1.53,0,0,1,2.2627,23.28223Zm-.34082-1.78809-.00488.00732ZM16.83105,2.28564A43.40371,43.40371,0,0,1,9.29,10.04248l-.585.47217c-2.32227,1.87207-6.64453,5.35645-6.665,7.24463-.001.10986-.00684.25781-.01465.43408a8.31676,8.31676,0,0,0,.1875,2.895,33.834,33.834,0,0,1,7.84668-8.09375,28.74846,28.74846,0,0,0,6.7998-7.08887A4.65142,4.65142,0,0,0,16.83105,2.28564Zm-.23437-.41943.001.00146S16.59961,1.87256,16.59668,1.86621Z" style="fill:#6d6daa"/><path d="M36.90137,30.46826a1.82144,1.82144,0,0,1-.38574-.042c-2.26758-.48389-1.64941-3.8125-1.35254-5.41162.02832-.15088.05176-.27783.06641-.37158.40039-2.58594,4.123-4.98584,8.58105-7.63086L44.458,16.627A40.66026,40.66026,0,0,0,53.0332,9.9248a1.55293,1.55293,0,0,1,1.4873-.415,1.63789,1.63789,0,0,1,1.127.84961h0c.84375,1.5874.77539,4.74658-.57617,6.28906A30.60183,30.60183,0,0,1,46.835,23.105a32.08172,32.08172,0,0,0-8.8291,6.90527A1.51455,1.51455,0,0,1,36.90137,30.46826ZM54.05371,11.74609a43.3482,43.3482,0,0,1-8.57129,6.59912l-.65137.38672c-2.56348,1.52148-7.33691,4.353-7.625,6.2168-.0166.10889-.04395.25586-.07617.43066A8.33093,8.33093,0,0,0,36.90234,28.27a33.71148,33.71148,0,0,1,8.92188-6.89111,28.74877,28.74877,0,0,0,7.74219-6.04785A4.64986,4.64986,0,0,0,54.05371,11.74609Zm.42969-.44385-.001.00146Zm-.60254-.00488.001.00146h0Z" style="fill:#6d6daa"/><path d="M2.667,37.48291A2.05605,2.05605,0,0,1,.53711,36.2251a1.54527,1.54527,0,0,1,.166-1.53271,32.26053,32.26053,0,0,0,5.3418-9.85107,30.57186,30.57186,0,0,1,4.999-9.19482c1.29785-1.58789,4.40527-2.1792,6.10742-1.61084l.00293.001a1.64352,1.64352,0,0,1,1.02539.98047,1.5492,1.5492,0,0,1-.16895,1.52783,40.6647,40.6647,0,0,0-5.18555,9.564l-.26758.69092c-1.87012,4.84033-3.62012,8.91455-6.10547,9.73926-.09082.03027-.21191.07471-.35645.12744A10.85225,10.85225,0,0,1,2.667,37.48291Zm-.3623-1.59326-.00293.00391Zm.28516-.38281a8.46822,8.46822,0,0,0,2.81934-.71875c.168-.06152.30859-.11279.41406-.14746,1.791-.59424,3.793-5.77734,4.86816-8.56152l.26953-.69482a43.23034,43.23034,0,0,1,5.08789-9.54639,4.65169,4.65169,0,0,0-3.45605,1.07422,28.722,28.722,0,0,0-4.67871,8.63916A33.866,33.866,0,0,1,2.58984,35.50684ZM16.41309,15.34277l-.002.002Z" style="fill:#6d6daa"/><path d="M36.13867,18.42432a32.044,32.044,0,0,1-5.18262-.66553,23.496,23.496,0,0,0-9.19043-.2832l-.56543.06055a1.55628,1.55628,0,0,1-1.40137-.64111c-1.4209-1.8374,1.2002-3.97559,2.46-5.00342.12012-.09766.2207-.17969.293-.24219,2.123-1.84229,6.29-1.13135,9.96191-.50342l.81934.13867a23.74532,23.74532,0,0,0,8.248.415,1.55571,1.55571,0,0,1,1.40234.64063,1.67074,1.67074,0,0,1,.31641,1.37061l-.002.01172C42.915,15.479,40.81934,17.84424,38.792,18.14795l-.24316.03711A15.25458,15.25458,0,0,1,36.13867,18.42432ZM25.874,15.15137a30.82092,30.82092,0,0,1,5.42773.6377c4.50977.79,4.87988.73193,6.94629.41895l.24609-.0376a4.6562,4.6562,0,0,0,2.69043-2.41992,25.80079,25.80079,0,0,1-8.18164-.49316l-.82617-.14014c-3.07715-.52539-6.90527-1.17871-8.31445.04248-.083.07227-.2002.168-.33887.28125a8.29594,8.29594,0,0,0-2.03711,2.05322l.06543-.00684A41.27113,41.27113,0,0,1,25.874,15.15137Zm16.44629-1.6416h0Z" style="fill:#6d6daa"/><path d="M40.44922,59.7207A37.02174,37.02174,0,0,1,32.77637,58.79a32.15272,32.15272,0,0,0-11.1748-.83545,1.54033,1.54033,0,0,1-1.37988-.69287c-1.35547-1.8833,1.33984-3.92725,2.63477-4.90967.124-.09375.22754-.17236.30176-.23242,2.042-1.646,6.41406-.91455,11.498.13232l.72461.14844a40.74019,40.74019,0,0,0,10.85156.812,1.57324,1.57324,0,0,1,1.37891.688,1.66279,1.66279,0,0,1,.2627,1.395c-.44434,1.74219-2.61914,4.03076-4.6582,4.2627A23.79126,23.79126,0,0,1,40.44922,59.7207Zm-15.2959-3.918a35.78569,35.78569,0,0,1,8.03711,1.03076,28.741,28.741,0,0,0,9.79785.7373,4.64548,4.64548,0,0,0,2.77441-2.3252,43.47993,43.47993,0,0,1-10.78027-.88525l-.72949-.14941c-2.92383-.60254-8.36621-1.72266-9.83789-.53516-.08594.06934-.20605.16113-.34961.27a8.32736,8.32736,0,0,0-2.10937,1.97949C23.1582,55.84619,24.18945,55.80273,25.15332,55.80273ZM21.46,55.95947,21.4541,55.96Z" style="fill:#6d6daa"/><path d="M50.97656,53.26563a1.45429,1.45429,0,0,1-.44336-.06934,32.18651,32.18651,0,0,0-11.05762-1.85156,30.62068,30.62068,0,0,1-10.32031-1.73584c-1.92871-.71289-3.49707-3.45654-3.50977-5.25244a1.65261,1.65261,0,0,1,.58105-1.28174,1.544,1.544,0,0,1,1.50781-.34863,40.82581,40.82581,0,0,0,10.7334,1.7959l.73633.02783c5.18848.19238,9.6123.52148,11.2002,2.605.05664.07422.13672.17285.23242.29,1.02637,1.26465,3.16211,3.89551,1.39648,5.40674A1.62513,1.62513,0,0,1,50.97656,53.26563Zm.168-1.97412h0ZM27.707,44.8125a4.64655,4.64655,0,0,0,2.1416,2.92041,28.77318,28.77318,0,0,0,9.68945,1.61279,33.81677,33.81677,0,0,1,11.15332,1.80176A9.01108,9.01108,0,0,0,49.084,48.70557c-.11035-.13623-.20312-.25049-.26953-.3374-1.14551-1.50293-6.7002-1.709-9.68457-1.81982L38.3877,46.52A43.42466,43.42466,0,0,1,27.707,44.8125Z" style="fill:#6d6daa"/><path d="M36.06543,42.44678a8.71186,8.71186,0,0,1-3.8623-1.52588c-.13086-.0791-.24121-.146-.32422-.19238-2.49609-1.40283-3.207-5.37158-3.89551-9.21l-.10449-.58105a40.77337,40.77337,0,0,0-3.26758-10.38135,1.54942,1.54942,0,0,1,.12891-1.5376,1.65489,1.65489,0,0,1,1.19043-.7583h.001c1.7793-.23389,4.71484.937,5.68945,2.74463a30.50674,30.50674,0,0,1,3.15332,9.97949,20.8831,20.8831,0,0,0,2.48047,7.75684l.62109,1.27393a1.56191,1.56191,0,0,1-.13574,1.54248A1.86282,1.86282,0,0,1,36.06543,42.44678Zm.01074-1.55811.002.00244ZM26.67383,20.23926a43.44006,43.44006,0,0,1,3.17383,10.34229l.10449.584c.5498,3.06494,1.2334,6.87891,2.90723,7.81982.0957.0542.22461.13086.377.22314a8.35716,8.35716,0,0,0,2.61914,1.22607l-.39648-.814a22.53675,22.53675,0,0,1-2.65527-8.29541,28.67065,28.67065,0,0,0-2.94336-9.37207A4.66115,4.66115,0,0,0,26.67383,20.23926Zm-.26562-.56006.00293.00488Z" style="fill:#6d6daa"/><path d="M38.80762,37.48486A1.74533,1.74533,0,0,1,38.207,37.374c-2.09863-.78564-1.05273-3.82178-.5498-5.28076.04785-.13721.08789-.25244.11426-.33789.74121-2.376,4.55273-4.09375,9.084-5.93506l.623-.25391a38.10261,38.10261,0,0,0,8.8584-5.01562,1.52209,1.52209,0,0,1,1.49219-.19336,1.61542,1.61542,0,0,1,.9707.98535v.00146A6.1462,6.1462,0,0,1,57.376,27.16211a28.743,28.743,0,0,1-8.54883,4.854,30.12348,30.12348,0,0,0-9.13086,5.16553A1.40905,1.40905,0,0,1,38.80762,37.48486Zm-.33594-1.88379-.01074.0083ZM57.02344,22.5415A40.79793,40.79793,0,0,1,48.2373,27.417l-.62891.25586c-2.58887,1.05225-7.40723,3.01074-7.92773,4.67676-.03027.09912-.07715.23438-.13184.39551a8.926,8.926,0,0,0-.6123,2.49707A31.65555,31.65555,0,0,1,48.084,30.15967a26.899,26.899,0,0,0,7.99707-4.522A4.27963,4.27963,0,0,0,57.02344,22.5415Zm.54688-.416-.00391.00293Z" style="fill:#6d6daa"/><path d="M40.34766,43.99365a1.65016,1.65016,0,0,1-.89062-.27637c-1.85742-1.21973-.2168-3.74854.4834-4.82812.09668-.14941.17969-.27588.23438-.37061,1.28711-2.21973,4.83105-2.77881,8.25879-3.31934.41309-.06494.82227-.12939,1.2207-.19629A26.44378,26.44378,0,0,0,57.749,32.70459a1.52165,1.52165,0,0,1,1.499.1416,1.6136,1.6136,0,0,1,.72754,1.17627,6.14573,6.14573,0,0,1-2.6748,5.35986C55.168,40.49561,54.12793,40.8584,49.5459,41.5918c-.834.13281-1.52734.23389-2.12793.32129a17.08724,17.08724,0,0,0-6.46875,1.94385A1.3762,1.3762,0,0,1,40.34766,43.99365Zm-.24414-1.94922-.0127.00635Zm17.875-7.24512a28.9974,28.9974,0,0,1-7.99316,2.17627c-.40527.06787-.82031.1333-1.24023.19922-2.6875.42383-6.03125.95117-6.83887,2.34521-.06641.11572-.168.27295-.28809.458a8.2522,8.2522,0,0,0-.97852,1.81836,18.31065,18.31065,0,0,1,6.49023-1.8623c.59375-.08643,1.27832-.186,2.10059-.31689,4.55664-.73,5.293-1.041,7.14453-2.00781A4.282,4.282,0,0,0,57.97852,34.79932Zm.625-.28613-.00391.002Z" style="fill:#6d6daa"/><path d="M13.47559,43.21289c-1.77441.00049-2.78125-2.67676-3.293-4.03711-.05566-.14795-.10254-.272-.13867-.36182-.99219-2.41895.28125-4.69727,1.75586-7.33545.25977-.46338.5293-.9458.79883-1.4502a40.64906,40.64906,0,0,0,3.87793-10.16846,1.56152,1.56152,0,0,1,1.05273-1.12354,1.64734,1.64734,0,0,1,1.40918.145h0c1.541.92041,3.11621,3.66016,2.75879,5.68213a30.59169,30.59169,0,0,1-3.72168,9.78271l-.25684.47217c-1.64941,3.02734-1.64941,3.02734-2.14062,5.354-.10352.48926-.22656,1.0752-.3877,1.80029A1.55277,1.55277,0,0,1,14.127,43.09814,1.98511,1.98511,0,0,1,13.47559,43.21289ZM18.291,20.89209a43.28076,43.28076,0,0,1-3.92871,10.0791c-.27539.51611-.55176,1.00928-.81641,1.4834-1.45508,2.60205-2.249,4.145-1.65332,5.59814.043.10205.09766.24658.16211.41895a8.3105,8.3105,0,0,0,1.29,2.58105c.10938-.49951.19824-.92432.27637-1.29346.542-2.564.585-2.67432,2.3418-5.89795l.25684-.47119a28.75952,28.75952,0,0,0,3.50879-9.17578A4.66144,4.66144,0,0,0,18.291,20.89209Z" style="fill:#6d6daa"/><path d="M21.20117,51.87939c-1.61328,0-2.958-2.085-3.6543-3.16406-.07715-.11963-.1416-.21973-.19141-.29248-1.43066-2.07471-.16406-5.80176,1.50684-10.10059l.23242-.60205a30.85834,30.85834,0,0,0,2.0918-9.187,1.47606,1.47606,0,0,1,.93164-1.24756,1.72221,1.72221,0,0,1,1.32422-.02734c1.67383.64063,3.68164,2.90137,3.66406,4.74854A23.51632,23.51632,0,0,1,25.07422,40.998a24.42162,24.42162,0,0,0-2.1543,9.46533,1.47243,1.47243,0,0,1-.92871,1.24463A1.94229,1.94229,0,0,1,21.20117,51.87939ZM23.13574,29.332A33.49405,33.49405,0,0,1,20.96191,38.439l-.23633.60742c-.93262,2.40088-2.66895,6.87012-1.72363,8.24072.05859.08545.13574.20361.22559.34424A7.697,7.697,0,0,0,20.959,49.76514a25.93811,25.93811,0,0,1,2.25586-9.50293,21.65894,21.65894,0,0,0,1.8916-8.272A4.31185,4.31185,0,0,0,23.13574,29.332Zm-.4082-.20557h0Z" style="fill:#6d6daa"/></svg>