<svg id="Food_1" xmlns="http://www.w3.org/2000/svg" width="60" height="60" viewBox="0 0 60 60"><title>006a002</title><path d="M55.54942,27.51638,29.51112,29.494l13.316-22.46573a2.20737,2.20737,0,0,0,.2209-1.82007,2.20406,2.20406,0,0,0-1.1913-1.39248,28.49151,28.49151,0,1,0,16.1431,25.99938,2.27852,2.27852,0,0,0-2.4504-2.2987Z" style="fill:#ffc661"/><g style="opacity:0.2"><path d="M54.01929,41.02116a28.4893,28.4893,0,0,1-52.95715-13.02A28.48931,28.48931,0,1,0,57.99982,29.815a2.28407,2.28407,0,0,0-.12463-.75415A28.50933,28.50933,0,0,1,54.01929,41.02116Z" style="fill:#750000"/><circle cx="34.63682" cy="50.83442" r="3.8781" style="fill:#750000"/><circle cx="29.01752" cy="13.02431" r="3" style="fill:#750000"/></g><g style="opacity:0.5"><path d="M28.58019,30.36357a1.574,1.574,0,0,0,1.49052,2.37064l25.47873-2.21787a2.26256,2.26256,0,0,1,2.32574,1.54456c.06674-.73567.11461-1.47354.12425-2.21437a2.31415,2.31415,0,0,0-.66328-1.66607,2.21608,2.21608,0,0,0-1.78672-.66412L28.87952,29.85857Z" style="fill:#fff"/><path d="M5.00293,17.96666A28.49516,28.49516,0,0,1,41.85669,6.81572a2.25129,2.25129,0,0,1,.75433.577l.21606-.3645A2.20728,2.20728,0,0,0,43.048,5.20817a2.20412,2.20412,0,0,0-1.19135-1.39246A28.48955,28.48955,0,0,0,1.06214,31.00114,28.352,28.352,0,0,1,5.00293,17.96666Z" style="fill:#fff"/></g><path d="M57.18342,21.05888A20.52309,20.52309,0,0,0,49.24,8.27137a1.93353,1.93353,0,0,0-2.8167.56536l-9.4215,15.89615,18.4254-1.3992a1.93427,1.93427,0,0,0,1.7562-2.2748Z" style="fill:#ffc661"/><path d="M57.18342,21.05888a20.44013,20.44013,0,0,0-.538-2.19159,1.92037,1.92037,0,0,1-1.75989,1.63306l-16.09973,1.2226-1.784,3.00995,18.42535-1.39923a1.93421,1.93421,0,0,0,1.75623-2.27478Z" style="fill:#750000;opacity:0.2"/><path d="M47.43419,12.75c.95833-1.58333,1.83333-1.375,2.81671-.56537a22.36727,22.36727,0,0,1,6.94458,9.21417,1.96933,1.96933,0,0,0-.01691-.54047A20.07185,20.07185,0,0,0,49.24,8.27135a1.93351,1.93351,0,0,0-2.81665.56537L37.00184,24.73289l3.61186-.47522Z" style="fill:#fff;opacity:0.5"/><path d="M29.4624,58.97705A29.48541,29.48541,0,0,1,4.14258,14.457,29.66187,29.66187,0,0,1,42.2915,2.915a3.1988,3.1988,0,0,1,1.71338,2.00342A3.20474,3.20474,0,0,1,43.688,7.5376l-12.33691,20.814,24.12256-1.832h.00146A3.2781,3.2781,0,0,1,59,29.82666,29.48138,29.48138,0,0,1,29.4624,58.97705Zm.18018-56.94287A27.66471,27.66471,0,0,0,5.86328,15.47656,27.4902,27.4902,0,1,0,57,29.80322a1.27859,1.27859,0,0,0-1.37646-1.28955L29.58691,30.49121a.99978.99978,0,0,1-.936-1.50684L41.9668,6.51855a1.20193,1.20193,0,0,0,.12354-1.02148,1.19633,1.19633,0,0,0-.6665-.77979A27.07178,27.07178,0,0,0,29.64258,2.03418Z" style="fill:#6d6daa"/><circle cx="18.27607" cy="33.25853" r="4.25855" style="fill:#750000;opacity:0.2"/><circle cx="18.44237" cy="31.35923" r="4.25855" style="fill:#ff9797"/><path d="M18.44239,30a4.35879,4.35879,0,0,1,4.25854,1.35925A4.25877,4.25877,0,1,0,14.454,32.80888,4.79323,4.79323,0,0,1,18.44239,30Z" style="fill:#fff;fill-rule:evenodd;opacity:0.5"/><circle cx="33.38682" cy="48.37608" r="3.8781" style="fill:#ff9797"/><path d="M30.80036,50.79271A3.86013,3.86013,0,0,1,37.215,47.88078,3.868,3.868,0,1,0,30.85029,51.288,3.83053,3.83053,0,0,1,30.80036,50.79271Z" style="fill:#fff;fill-rule:evenodd;opacity:0.5"/><circle cx="18.44237" cy="45.86788" r="2.5082" style="fill:#fff27d"/><circle cx="29.01752" cy="10.27431" r="3" style="fill:#fff27d"/><path d="M37.002,25.73291a.99981.99981,0,0,1-.86035-1.50977L45.563,8.32715a2.93309,2.93309,0,0,1,4.27393-.85791,21.44131,21.44131,0,0,1,8.33057,13.41064v.00049a2.93425,2.93425,0,0,1-2.66455,3.4502L37.07764,25.73C37.05225,25.73193,37.02686,25.73291,37.002,25.73291ZM48.10742,8.88623a1.04129,1.04129,0,0,0-.20459.02148.87639.87639,0,0,0-.61914.439L38.8418,23.59033l16.50977-1.25391a.93428.93428,0,0,0,.84814-1.09863A19.44907,19.44907,0,0,0,48.64355,9.07422.87085.87085,0,0,0,48.10742,8.88623Z" style="fill:#6d6daa"/><circle cx="13.48737" cy="17.71908" r="2.5085" style="fill:#b1f1a8"/><circle cx="47.66042" cy="37.98283" r="3" style="fill:#b1f1a8"/><path d="M18.44238,36.61768a5.25854,5.25854,0,1,1,5.2583-5.2583,1,1,0,0,1-2,0,3.25854,3.25854,0,1,0-3.2583,3.2583,1,1,0,0,1,0,2Z" style="fill:#6d6daa"/><path d="M13.4873,21.22754a1,1,0,1,1,0-2,1.50854,1.50854,0,1,0-1.5083-1.5083,1,1,0,0,1-2,0,3.50854,3.50854,0,1,1,3.5083,3.5083Z" style="fill:#6d6daa"/><path d="M29.01758,14.375a4.10059,4.10059,0,0,1,0-8.20117,1,1,0,0,1,0,2,2.10059,2.10059,0,1,0,2.10059,2.10059,1,1,0,0,1,2,0A4.105,4.105,0,0,1,29.01758,14.375Z" style="fill:#6d6daa"/><path d="M33.38672,53.25439a4.87817,4.87817,0,0,1,0-9.75635,1,1,0,0,1,0,2A2.87817,2.87817,0,1,0,36.26514,48.376a1,1,0,0,1,2,0A4.884,4.884,0,0,1,33.38672,53.25439Z" style="fill:#6d6daa"/><path d="M18.44238,49.376a3.50806,3.50806,0,1,1,3.5083-3.5083,1,1,0,0,1-2,0,1.5083,1.5083,0,1,0-1.5083,1.5083,1,1,0,0,1,0,2Z" style="fill:#6d6daa"/><path d="M7.49555,31.23729a1.37183,1.37183,0,1,1,1.37158-1.37207A1.3739,1.3739,0,0,1,7.49555,31.23729Z" style="fill:#6d6daa"/><path d="M25.91694,23.24657A1.37158,1.37158,0,1,1,27.28852,21.875,1.37348,1.37348,0,0,1,25.91694,23.24657Z" style="fill:#6d6daa"/><path d="M30.3891,38.98289a1.37183,1.37183,0,1,1,1.37207-1.37158A1.37307,1.37307,0,0,1,30.3891,38.98289Z" style="fill:#6d6daa"/><path d="M47.66064,42.0835a1,1,0,0,1,0-2,2.10059,2.10059,0,1,0-2.10107-2.10059,1,1,0,0,1-2,0,4.10083,4.10083,0,1,1,4.10107,4.10059Z" style="fill:#6d6daa"/></svg>