<svg id="Food_2" xmlns="http://www.w3.org/2000/svg" width="60" height="60" viewBox="0 0 60 60"><title>006b018</title><path d="M22.29965,15h21.4a46.84115,46.84115,0,0,1,2.26,11.85l-.1.01-4.66-1.97a7.32833,7.32833,0,0,0-5.41,0l-4.66,1.97a7.42854,7.42854,0,0,1-5.41,0l-4.67-1.97a5.53809,5.53809,0,0,0-.84-.29A89.20175,89.20175,0,0,1,22.29965,15Z" style="fill:#bde3ef;opacity:0.5"/><g style="opacity:0.2"><path d="M43.56291,15H38.9254a73.32261,73.32261,0,0,1,1.3874,13.301c0,11.07473-5.89577,14.15616-6.23171,14.26884a8.16954,8.16954,0,0,0,1.67013.02346c1.22033-.0975,10.24926-4.84262,10.24926-14.2923A43.65173,43.65173,0,0,0,43.56291,15Z" style="fill:#2c4b75"/></g><path d="M33.34964,13.25c-.41-1.19-1.48-2.2-2.44-2.05l-.01-.02h-.01l-.02-.04c.72-.98.01-2.71-1.57-3.85-1.58-1.15-3.44-1.27-4.15-.29l-.04-.01-.03-.01c-.19-1.2-1.91-1.92-3.84-1.61-1.92.31-3.33,1.53-3.14,2.73l-.03.02-.03.02c-.98-.71-2.71-.01-3.85,1.56995s-1.27,3.44-.29,4.16l-.01.03-.00995.03c-1.2.19-1.92,1.91-1.61,3.84s1.53,3.33,2.73,3.14l.02.03v.01l.02.02c-.71.98-.01,2.71,1.57,3.85a4.03551,4.03551,0,0,0,3.35.85l2.34-10.67h11.12A3.42786,3.42786,0,0,0,33.34964,13.25Z" style="fill:#fff27d"/><g style="opacity:0.75"><path d="M14.18967,12.50995c1.14-1.58,2.87-2.28,3.85-1.56995l.03-.02.03-.02c-.19-1.2,1.22-2.42,3.14-2.73,1.93-.31,3.65.41,3.84,1.61l.03.01.04.01c.71-.98,2.57-.86,4.15.29,1.58,1.14,2.29,2.87,1.57,3.85l.02.04h.01l.01.02a2.14177,2.14177,0,0,1,1.86359,1h.64642a3.42786,3.42786,0,0,0-.07-1.75c-.41-1.19-1.48-2.2-2.44-2.05l-.01-.02h-.01l-.02-.04c.72-.98.01-2.71-1.57-3.85-1.58-1.15-3.44-1.27-4.15-.29l-.04-.01-.03-.01c-.19-1.2-1.91-1.92-3.84-1.61-1.92.31-3.33,1.53-3.14,2.73l-.03.02-.03.02c-.98-.71-2.71-.01-3.85,1.56995-1.00464,1.3924-1.22253,2.99994-.5899,3.85541A5.42938,5.42938,0,0,1,14.18967,12.50995Z" style="fill:#fff"/><path d="M12.39768,18.33783a2.06423,2.06423,0,0,1,1.482-1.60785l.00995-.03.01-.03a2.30989,2.30989,0,0,1-.49036-2.56812c-.90784.509-1.40637,2.00763-1.13965,3.66809A5.60542,5.60542,0,0,0,12.39768,18.33783Z" style="fill:#fff"/></g><path d="M38.78965,41.13a7.6026,7.6026,0,0,0-3.79,6.65V51a7.9978,7.9978,0,0,0,8,8h-19.83a8.00212,8.00212,0,0,0,7.83-8V47.78a7.61874,7.61874,0,0,0-3.79-6.66c-.06-.03-.12-.07-.17-.1,1.87667-2.43667,10.96-1.60333,11.96-.02A2.3924,2.3924,0,0,1,38.78965,41.13Z" style="fill:#bde3ef;opacity:0.5"/><path d="M20.20967,24.34217a5.53809,5.53809,0,0,1,.84.29l4.67,1.97a7.42854,7.42854,0,0,0,5.41,0l4.66-1.97a7.32833,7.32833,0,0,1,5.41,0l4.76,1.96c.03.48.04.96.04,1.45a14.9243,14.9243,0,0,1-7,12.7,13.89838,13.89838,0,0,1-4.95,1.21,14.64383,14.64383,0,0,1-7.01-1.19c-.01-.01-.03-.01-.04-.02a14.79312,14.79312,0,0,1-6.8-10.28C20.06967,29.66217,20.16967,24.70217,20.20967,24.34217Z" style="fill:#ffc661"/><path d="M20.20969,27.6275a5.53223,5.53223,0,0,1,.84.29l4.67,1.97a7.42871,7.42871,0,0,0,5.41,0l4.66-1.97a7.32839,7.32839,0,0,1,5.41,0l4.68524,1.92926a14.81966,14.81966,0,0,0,.11475-1.80457c0-.49005-.01-.97-.04-1.45l-4.76-1.96a7.32839,7.32839,0,0,0-5.41,0l-4.66,1.97a7.42871,7.42871,0,0,1-5.41,0l-4.67-1.97a5.53891,5.53891,0,0,0-.84-.29c-.03308.29742-.10675,3.7298-.05811,5.3667C20.16825,28.65393,20.1937,27.77142,20.20969,27.6275Z" style="fill:#fff;opacity:0.5"/><path d="M30.89965,11.18h-.01l-.02-.04c.72-.98.01-2.71-1.57-3.85-1.58-1.15-3.44-1.27-4.15-.29l-.04-.01-.03-.01c-.19-1.2-1.91-1.92-3.84-1.61-1.92.31-3.33,1.53-3.14,2.73l-.03.02-.03.02c-.98-.71-2.71-.01-3.85,1.57s-1.27,3.44-.29,4.16l-.01.03-.01.03c-1.2.19-1.92,1.91-1.61,3.84s1.53,3.33,2.73,3.14l.02.03v.01l.02.02c-.71.98-.01,2.71,1.57,3.85a4.03552,4.03552,0,0,0,3.35.85l.15.01c-.07.86-.11,1.74-.11,2.62a15.09913,15.09913,0,0,0,.2,2.42l-.03.01a15.00458,15.00458,0,1,1,17.79-15.81V15h-4.54a3.42782,3.42782,0,0,0-.07-1.75c-.41-1.19-1.48-2.2-2.44-2.05Z" style="fill:#fffad1"/><g style="opacity:0.2"><path d="M12.26962,14.77a5.66081,5.66081,0,0,0,.15466.686,2.0246,2.0246,0,0,1,1.45538-1.526l.00995-.03.01-.03c-.7077-.52-.82806-1.6355-.41571-2.80969C12.52811,11.52637,11.99558,13.06384,12.26962,14.77Z" style="fill:#750000"/><path d="M20.10965,25.68l-.09418-.00629c.00769.29236.01483.58466.03992.87616C20.07169,26.259,20.08628,25.96716,20.10965,25.68Z" style="fill:#750000"/><path d="M20.01291,27.69427A14.95422,14.95422,0,0,1,8.07962,14.5a14.97661,14.97661,0,0,0,12.09,16.23l.03-.01a15.09828,15.09828,0,0,1-.2-2.42C19.99967,28.09772,20.00882,27.8963,20.01291,27.69427Z" style="fill:#750000"/></g><path d="M33.60965,5.39A14.99841,14.99841,0,0,0,8.07224,17.44873,14.99013,14.99013,0,0,1,37.47617,15h.48346v-.08A14.98583,14.98583,0,0,0,33.60965,5.39Z" style="fill:#fff"/><path d="M20.17188,31.73242a1.03378,1.03378,0,0,1-.18848-.01758,16.0024,16.0024,0,0,1-8.29785-27.0293A16,16,0,0,1,38.958,14.84766a.99965.99965,0,1,1-1.99414.14355A14.0001,14.0001,0,1,0,20.3584,29.75a1.00007,1.00007,0,0,1-.18652,1.98242Z" style="fill:#6d6daa"/><path d="M22.03418,16.82471a1.02432,1.02432,0,0,1-.23145-.02686l-8.34082-1.97363a1.00006,1.00006,0,0,1,.46094-1.94629l8.34082,1.97363a1.00009,1.00009,0,0,1-.22949,1.97314Z" style="fill:#6d6daa"/><path d="M23.209,15.979a.99979.99979,0,0,1-.97363-1.23193l1.9541-8.187a1,1,0,0,1,1.94531.46436l-1.9541,8.187A.99986.99986,0,0,1,23.209,15.979Z" style="fill:#6d6daa"/><path d="M24.834,15.979a.99979.99979,0,0,1-.53223-1.84668l6.2334-3.91357a.99955.99955,0,1,1,1.0625,1.69336l-6.2334,3.91357A.991.991,0,0,1,24.834,15.979Z" style="fill:#6d6daa"/><path d="M14.84668,22.04736a1.00005,1.00005,0,0,1-.52246-1.85352l6.8623-4.19336a1.00022,1.00022,0,0,1,1.043,1.707l-6.8623,4.19336A.999.999,0,0,1,14.84668,22.04736Z" style="fill:#6d6daa"/><path d="M22.30176,16a.99757.99757,0,0,1-.85254-.47656L17.11328,8.46973a.99957.99957,0,1,1,1.70313-1.04687l4.33594,7.05371A.99968.99968,0,0,1,22.30176,16Z" style="fill:#6d6daa"/><path d="M18.09961,9.10352a1.00069,1.00069,0,0,1-.98633-.8418A2.8885,2.8885,0,0,1,18.2207,5.64893,5.79978,5.79978,0,0,1,21.085,4.38428c2.50488-.40576,4.7002.66943,4.98438,2.44189a.9999.9999,0,0,1-1.97461.31641c-.07617-.47168-1.19238-1.021-2.69336-.78369a3.84076,3.84076,0,0,0-1.86816.79932,1.003,1.003,0,0,0-.44531.78711.999.999,0,0,1-.8291,1.14551A.9804.9804,0,0,1,18.09961,9.10352Z" style="fill:#6d6daa"/><path d="M13.89844,14.86621a.99192.99192,0,0,1-.585-.18994c-1.4541-1.05225-1.4248-3.48975.06543-5.55029a5.8005,5.8005,0,0,1,2.41992-1.98633,2.88646,2.88646,0,0,1,2.83105.189A.99976.99976,0,1,1,17.458,8.94873a1.00659,1.00659,0,0,0-.90332.04248A3.83449,3.83449,0,0,0,15,10.29883c-.89355,1.23438-.90137,2.47705-.51465,2.75732a.99963.99963,0,0,1-.58691,1.81006Z" style="fill:#6d6daa"/><path d="M14.78613,21.92871a3.00941,3.00941,0,0,1-2.2373-1.13672,5.79309,5.79309,0,0,1-1.26465-2.86426,5.79682,5.79682,0,0,1,.30566-3.11572,2.88873,2.88873,0,0,1,2.13574-1.86865A.9999.9999,0,0,1,14.042,14.918c-.21973.03516-.44727.28516-.6084.66895a3.83549,3.83549,0,0,0-.1748,2.02393,3.84222,3.84222,0,0,0,.79883,1.86865,1.01329,1.01329,0,0,0,.78711.44482.9999.9999,0,1,1,.31641,1.97461A2.36737,2.36737,0,0,1,14.78613,21.92871Z" style="fill:#6d6daa"/><path d="M33.417,16a1.00036,1.00036,0,0,1-.98145-1.19678,2.32892,2.32892,0,0,0-.0293-1.22314c-.30273-.86865-1.01367-1.43555-1.33887-1.3916a.9999.9999,0,1,1-.31641-1.97461c1.59473-.26025,3.01953,1.20313,3.54395,2.70752a4.28334,4.28334,0,0,1,.10156,2.27539A1.00042,1.00042,0,0,1,33.417,16Z" style="fill:#6d6daa"/><path d="M30.873,12.14453a1,1,0,0,1-.80859-1.58643,1.007,1.007,0,0,0-.043-.90332,4.18448,4.18448,0,0,0-3.19336-2.311.9981.9981,0,0,0-.87109.24219,1.00015,1.00015,0,0,1-1.62109-1.17187A2.90007,2.90007,0,0,1,26.9668,5.34863a5.79105,5.79105,0,0,1,2.91895,1.13086A5.79225,5.79225,0,0,1,31.873,8.89893a2.888,2.888,0,0,1-.18945,2.832A.99837.99837,0,0,1,30.873,12.14453Z" style="fill:#6d6daa"/><path d="M19.23633,26.77344a5.63687,5.63687,0,0,1-3.21-1.14062c-2.05957-1.49023-2.84961-3.79639-1.79883-5.251a1.00015,1.00015,0,1,1,1.62109,1.17188c-.28027.38721.11523,1.56592,1.34961,2.459a3.13545,3.13545,0,0,0,2.46191.70361,1.0001,1.0001,0,0,1,.59961,1.9082A3.41993,3.41993,0,0,1,19.23633,26.77344Z" style="fill:#6d6daa"/><path d="M36.61523,25.44824a.91039.91039,0,0,1-.30566-.05225.95848.95848,0,0,1-.62793-1.22852l.0332-.09424a1.00025,1.00025,0,0,1,1.88672.665A1.0722,1.0722,0,0,1,36.61523,25.44824Zm.87988-2.39795a1.00188,1.00188,0,0,1-.94043-1.34131l.03418-.09424a1.00028,1.00028,0,0,1,1.88086.68164l-.03418.09424A1.00064,1.00064,0,0,1,37.49512,23.05029Zm.86133-2.502a.91039.91039,0,0,1-.30566-.05225.95848.95848,0,0,1-.62793-1.22852l.0332-.09424a1.00025,1.00025,0,0,1,1.88672.665A1.0722,1.0722,0,0,1,38.35645,20.54834Zm.87012-2.4502a.91039.91039,0,0,1-.30566-.05225.95848.95848,0,0,1-.62793-1.22852l.0332-.09424a1.00025,1.00025,0,0,1,1.88672.665A1.0722,1.0722,0,0,1,39.22656,18.09814Z" style="fill:#6d6daa;opacity:0.5"/><path d="M41.99967,59h-7c-1-1-2-3.58-2-8V44.422c0-2.49,3-3.46717,3-.95717l-1,2.9998V51C34.99967,55.36,40.02992,58.91,41.99967,59Z" style="fill:#2c4b75;opacity:0.2"/><g style="opacity:0.75"><polygon points="21.625 18 44.375 18 43.701 15 22.299 15 21.625 18" style="fill:#fff"/><path d="M32.67911,41.75646l-.00813-.01627c-.03045-.065-.0609-.12185-.0914-.17873C31.38519,39.37577,30.5625,33.9481,30.5625,28.301c0-6.744.57488-13.301.57488-13.301H26.00246a53.53548,53.53548,0,0,0-1.94016,13.301c0,5.64706,2.77654,11.07473,6.80768,13.26042.10286.05688.20571.11372.30852.17873.01374.00813.02058.01627.02742.01627a7.34005,7.34005,0,0,0,2.09355.70446A1.89269,1.89269,0,0,1,32.67911,41.75646Z" style="fill:#fff"/></g><g style="opacity:0.2"><path d="M37.93211,39.12389a11.94054,11.94054,0,0,1-11.83948-1.1436A15.03958,15.03958,0,0,1,20.03582,26.864c-.277,6.08157,2.49769,12.14121,8.215,14.78378,5.51541,2.54923,11.84571.02757,15.11205-4.80386A16.15716,16.15716,0,0,0,45.96433,26.864,14.68249,14.68249,0,0,1,37.93211,39.12389Z" style="fill:#750000"/><path d="M40.191,24.665c.07559,1.17994.12183,2.40486.12183,3.636,0,11.07473-5.89577,14.15616-6.23171,14.26884a8.16954,8.16954,0,0,0,1.67013.02346c1.22033-.0975,10.24926-4.84262,10.24926-14.2923,0-.53243-.01519-1.06369-.04318-1.59066C42.958,25.875,41.583,24.79167,40.191,24.665Z" style="fill:#750000"/></g><path d="M40,16.00049a1.00076,1.00076,0,0,1-.94824-1.31689l3-9a.99929.99929,0,0,1,.46289-.55762l9-5a.99974.99974,0,1,1,.9707,1.748l-8.66016,4.811-2.877,8.63135A.99993.99993,0,0,1,40,16.00049Z" style="fill:#6d6daa"/><path d="M43,60a9.01015,9.01015,0,0,1-9-9V47.78174a8.59329,8.59329,0,0,1,4.2998-7.52588A13.96432,13.96432,0,0,0,45,28.2998,44.76773,44.76773,0,0,0,42.97363,16H23.02734A44.7662,44.7662,0,0,0,21,28.2998a13.95856,13.95856,0,0,0,6.69824,11.95313A8.59518,8.59518,0,0,1,32,47.77979V51a9.01088,9.01088,0,0,1-8.751,8.99658C23.22168,59.999,23.19434,60,23.166,60H23a1,1,0,0,1,0-2,7.00818,7.00818,0,0,0,7-7V47.77979a6.593,6.593,0,0,0-3.28125-5.78271A16.01432,16.01432,0,0,1,19,28.2998a46.417,46.417,0,0,1,2.35742-13.63086A.99937.99937,0,0,1,22.30078,14H43.7002a.99937.99937,0,0,1,.94336.66895A46.42437,46.42437,0,0,1,47,28.2998,16.01972,16.01972,0,0,1,39.28027,41.999,6.59269,6.59269,0,0,0,36,47.78174V51a7.00818,7.00818,0,0,0,7,7,1,1,0,0,1,0,2Z" style="fill:#6d6daa"/><path d="M34.04785,43.21289a1,1,0,0,1-.042-1.999,11.85392,11.85392,0,0,0,4.58008-1.123,1,1,0,1,1,.82617,1.82129,13.94857,13.94857,0,0,1-5.32031,1.2998Zm-3.49609-.14844a1.0358,1.0358,0,0,1-.1543-.01172,14.70312,14.70312,0,0,1-3.81055-1.14209,1,1,0,1,1,.82617-1.82129,12.6793,12.6793,0,0,0,3.291.98682,1,1,0,0,1-.15234,1.98828Z" style="fill:#6d6daa"/><path d="M28.41992,28.37451a8.03437,8.03437,0,0,1-3.0957-.58984l-4.66309-1.979a4.9464,4.9464,0,0,0-.709-.23633,1.00023,1.00023,0,0,1,.49414-1.93848,7.03167,7.03167,0,0,1,.99609.3335l4.66309,1.97949a6.39649,6.39649,0,0,0,4.62988,0l4.66016-1.97852a8.41952,8.41952,0,0,1,6.19238-.00049L46.251,25.94434a.99987.99987,0,1,1-.78125,1.84082l-4.66309-1.97949a6.39649,6.39649,0,0,0-4.62988.00049L31.5166,27.78467A8.03578,8.03578,0,0,1,28.41992,28.37451Z" style="fill:#6d6daa"/></svg>