<svg id="Food_2" xmlns="http://www.w3.org/2000/svg" width="60" height="60" viewBox="0 0 60 60"><title>006b012</title><path d="M43.88006,51.01l-.6,4.54a3.99752,3.99752,0,0,1-3.96,3.45h-18.83a4.0076,4.0076,0,0,1-3.97-3.45l-.57-4.54.05-.01h27.8Z" style="fill:#efeae1"/><polygon points="47.84 21 43.88 51.01 43.8 51 16 51 15.95 51.01 12.16 21 47.84 21" style="fill:#ff9797"/><path d="M50.85006,19.47a1.00379,1.00379,0,0,1-.85,1.53h-40a1.00379,1.00379,0,0,1-.85-1.53l2.87-4.59a4.006,4.006,0,0,1,3.39-1.88h29.18a4.006,4.006,0,0,1,3.39,1.88Z" style="fill:#efeae1"/><polygon points="27.689 21.25 18.7 21.25 21.7 50.986 27.266 50.986 27.689 21.25" style="fill:#fff;opacity:0.75"/><g style="opacity:0.2"><path d="M43.23854,52.55a4.00757,4.00757,0,0,1-3.97,3.45H20.47a4.00757,4.00757,0,0,1-3.97-3.45v3A4.00757,4.00757,0,0,0,20.47,59H39.26857a4.00757,4.00757,0,0,0,3.97-3.45Z" style="fill:#750000"/><path d="M43.7515,51H36.69531l.06325.02-.33723,4.53c-.14756,1.98-1.03809,3.45-2.092,3.45h4.66839A4.17226,4.17226,0,0,0,43.201,55.55l.67757-4.53Z" style="fill:#750000"/><polygon points="38.9 21 37.059 51 43.883 51 44 51.02 47.389 21 38.9 21" style="fill:#750000"/><polygon points="46.789 25 12.4 25 12 21 47.389 21 46.789 25" style="fill:#750000"/></g><path d="M29.41451,13H19.36971A2.70738,2.70738,0,0,0,17.054,14.88L15.1061,19.47c-.28607.67.04089,1.53.57214,1.53h12.83C28.50826,15.65623,28.76167,14.43748,29.41451,13Z" style="fill:#fff;opacity:0.75"/><path d="M50.69681,19.47,47.8242,14.88A4.04444,4.04444,0,0,0,44.40929,13H37.00006c.48469,0,.93419.71,1.194,1.88l.6044,4.59c.14743.67-.02115,1.53-.295,1.53H49.85308A.99653.99653,0,0,0,50.69681,19.47Z" style="fill:#750000;opacity:0.2"/><path d="M27.55812,55.975l-.25806-5.13.0484-.02-5.7484.02.51849,5.13a3.00569,3.00569,0,0,0,3.21643,2.85h3.824C28.35249,58.825,27.671,57.955,27.55812,55.975Z" style="fill:#fff;opacity:0.75"/><path d="M39.31641,60H20.48633a5.02,5.02,0,0,1-4.95312-4.31689L11.1709,21.125a1,1,0,0,1,1.98438-.25l4.36084,34.54639A3.00924,3.00924,0,0,0,20.48633,58H39.31641a3.01274,3.01274,0,0,0,2.97217-2.59033l4.55762-34.54053a.99981.99981,0,1,1,1.98242.26172L44.27051,55.67725A5.0221,5.0221,0,0,1,39.31641,60Z" style="fill:#6d6daa"/><path d="M43.80273,52H16a1,1,0,0,1,0-2H43.80273a1,1,0,1,1,0,2Z" style="fill:#6d6daa"/><path d="M49.99854,22H10.00146a1.99964,1.99964,0,0,1-1.69531-3.06006l2.86816-4.58984A4.97177,4.97177,0,0,1,15.41455,12H44.58594a4.97221,4.97221,0,0,1,4.23975,2.34961l2.86914,4.59082A2.00037,2.00037,0,0,1,49.99854,22Zm-34.584-8a2.98281,2.98281,0,0,0-2.54395,1.40967L10.002,20l-.00049.00049-.00244.00488L49.99854,20l-2.86914-4.59033A2.982,2.982,0,0,0,44.58594,14ZM9.15381,19.47021h0Z" style="fill:#6d6daa"/><path d="M34.00049,14.00049a1.00166,1.00166,0,0,1-.96191-1.27539l2-7a1.00061,1.00061,0,0,1,.47559-.59912l9-5a1,1,0,1,1,.97168,1.748L36.84766,6.67285,34.96143,13.2749A1.0008,1.0008,0,0,1,34.00049,14.00049Z" style="fill:#6d6daa"/></svg>