<svg id="Food_2" xmlns="http://www.w3.org/2000/svg" width="60" height="60" viewBox="0 0 60 60"><title>006b023</title><path d="M58.98089,27.75134v8.5a8.75319,8.75319,0,0,1-8.75,8.75h-8.23v-7.97h6.67a2.311,2.311,0,0,0,2.31-2.31v-5.37a2.31956,2.31956,0,0,0-2.31-2.32h-6.67v-8.03h8.23A8.75319,8.75319,0,0,1,58.98089,27.75134Z" style="fill:#f2f0e1"/><g style="opacity:0.2"><path d="M52.00044,29.35131v-3a2.31962,2.31962,0,0,0-2.31-2.32H42.00087v3h7.68958A2.31962,2.31962,0,0,1,52.00044,29.35131Z" style="fill:#750000"/><path d="M50.23091,42.00134h-8.23v3h8.23a8.75325,8.75325,0,0,0,8.75-8.75v-3A8.75325,8.75325,0,0,1,50.23091,42.00134Z" style="fill:#750000"/></g><path d="M52.00044,37.72131v-3a2.311,2.311,0,0,1-2.31,2.31H42.00087v3h7.68958A2.311,2.311,0,0,0,52.00044,37.72131Z" style="fill:#fff"/><path d="M50.23091,19.00134h-8.23v3h8.23a8.75321,8.75321,0,0,1,8.75,8.75v-3A8.75321,8.75321,0,0,0,50.23091,19.00134Z" style="fill:#fff"/><path d="M8.82089,15.82392c1.37,1.2,3.12,3.94,7.75,4.19,5.16.28,7.53-2.88,9.43-4.29a3.75749,3.75749,0,0,1,.98-.55c1.66-.57,2.3,1.69,5.92,1.87,5.12.26,7.63-4.7,10.42-2.46.47.38,1.66,1.44,1.66,1.44v16.33l-1.46.89a3.68333,3.68333,0,0,1-3.74,0l-3.22-1.98a3.68333,3.68333,0,0,0-3.74,0l-3.22,1.98a3.68333,3.68333,0,0,1-3.74,0l-3.22-1.98a3.68333,3.68333,0,0,0-3.74,0l-3.22,1.98a3.68333,3.68333,0,0,1-3.74,0l-3.22-1.98a3.68333,3.68333,0,0,0-3.74,0v-14.44a6.73807,6.73807,0,0,0,1.5-.93,1.43349,1.43349,0,0,1,2.32-.09C8.81089,15.81392,8.81089,15.82392,8.82089,15.82392Z" style="fill:#f2f0e1"/><path d="M21.00044,45.00134v-32h-9v32c0,7.732,5.268,14,13,14h3C23.00044,58.00134,21.00044,51.25115,21.00044,45.00134Z" style="fill:#fff"/><path d="M44.98089,45.00137v.03a14.03272,14.03272,0,0,1-14,13.97h-12a14.04116,14.04116,0,0,1-14-14v-14.46a3.68333,3.68333,0,0,1,3.74,0l3.22,1.98a3.68333,3.68333,0,0,0,3.74,0l3.22-1.98a3.68333,3.68333,0,0,1,3.74,0l3.22,1.98a3.68333,3.68333,0,0,0,3.74,0l3.22-1.98a3.68333,3.68333,0,0,1,3.74,0l3.22,1.98a3.68333,3.68333,0,0,0,3.74,0l1.46-.89Z" style="fill:#ffc661"/><path d="M21.00044,45.00134v-32h-9v32c0,7.732,5.268,14,13,14h3C23.00044,58.00134,21.00044,51.25115,21.00044,45.00134Z" style="fill:#fff;opacity:0.75"/><path d="M43.52089,32.52136a3.68335,3.68335,0,0,1-3.74,0l-3.22-1.98a3.68335,3.68335,0,0,0-3.74,0l-3.22,1.98a3.68346,3.68346,0,0,1-3.74005,0l-3.22-1.98a3.68335,3.68335,0,0,0-3.74,0l-3.22,1.98a3.68335,3.68335,0,0,1-3.74,0l-3.22-1.98a3.68335,3.68335,0,0,0-3.74,0v2.99994a3.68335,3.68335,0,0,1,3.74,0l3.22,1.98a3.68306,3.68306,0,0,0,3.74,0l3.22-1.98a3.68335,3.68335,0,0,1,3.74,0l3.22,1.98a3.68318,3.68318,0,0,0,3.74005,0l3.22-1.98a3.68335,3.68335,0,0,1,3.74,0l3.22,1.98a3.68306,3.68306,0,0,0,3.74,0l1.46-.89v-3Z" style="fill:#fff;opacity:0.75"/><g style="opacity:0.2"><path d="M43.34047,13.86138c-2.79-2.24005-5.3,2.72-10.42,2.46-3.62-.18-4.26-2.44-5.92-1.87a3.75625,3.75625,0,0,0-.98.55c-1.9,1.41-4.27,4.57-9.43,4.29-4.63-.25-6.38-2.99-7.75-4.19-.01,0-.01-.01-.02-.02a1.43349,1.43349,0,0,0-2.32.09,6.73884,6.73884,0,0,1-1.5.93v2.97a6.73884,6.73884,0,0,0,1.5-.93,1.43346,1.43346,0,0,1,2.32-.09c.01.01.01.02.02.02,1.37,1.2,3.12,3.94,7.75,4.19,5.16.28,7.53-2.88,9.43-4.29a3.75625,3.75625,0,0,1,.98-.55c1.66-.57,2.3,1.69,5.92,1.87,5.12.26,7.63-4.7,10.42-2.46.47.38,1.66,1.44,1.66,1.44V15.30139S43.81044,14.24139,43.34047,13.86138Z" style="fill:#750000"/><path d="M30.98091,56.00134h-12a14.04114,14.04114,0,0,1-14-14v3a14.04114,14.04114,0,0,0,14,14h12a14.03278,14.03278,0,0,0,14-13.97V42.03131a14.03278,14.03278,0,0,1-14,13.97Z" style="fill:#750000"/><path d="M37.00044,13.00134v32c0,7.732-3.60413,14-8.05,14h2.05a14,14,0,0,0,14-14v-32Z" style="fill:#750000"/></g><path d="M26.00089,15.00137c-1.9,1.41-4.27,4.57-9.43,4.29-4.63-.25-6.38-2.99-7.75-4.19-.01,0-.01-.01-.02-.02a1.43349,1.43349,0,0,0-2.32.09,2.40165,2.40165,0,0,1-1.53.72,5.37919,5.37919,0,0,1-1.35-.11c-3.79-.71-7.51-22.58,20.42-11.8,4.53,1.75,11.1.78,16.7-.3,4.68-.9,7.05,1.3,7.87,3.43,1.06,2.74-.12,6.98-2.44,8.51a2.08691,2.08691,0,0,1-1.1-.42,20.49166,20.49166,0,0,1-1.73-1.34c-2.79-2.24-5.3,2.72-10.42,2.46-3.62-.18-4.26-2.44-5.92-1.87A3.75749,3.75749,0,0,0,26.00089,15.00137Z" style="fill:#f2f0e1"/><path d="M25.00044,7.00134a19.24549,19.24549,0,0,0,4.99917.68352c1.00083,1.31648,2.298,1.50151,4.00083,1.31648,2.26638-.24625,5.55813-2.21039,7.72089-2.6275,3.77356-.72565,6.0434.5647,7.21173,2.20813a5.88747,5.88747,0,0,0-.34216-1.47058c-.82-2.13-3.19-4.33-7.87-3.43005-5.6,1.08-12.17,2.05-16.7.3C-.35588-5.42719-.6226,10.03259,2.22365,14.59112c-.71316-3.52135,1.42174-7.26587,6.77686-8.72275.99994,1.133,2.67553,3.06241,4.99994,3.133C16.83774,9.08746,21.1642,5.873,25.00044,7.00134Z" style="fill:#fff"/><path d="M45.00044,4.00134c3,5-1.20953,7.241-1.67957,6.861-2.79-2.24-5.3,2.72-10.42,2.46-3.03035-.15073-4.42125-.97484-4.794-2.41255a.614.614,0,0,0-.94357-.34577c-1.97174,1.35485-7.00816,4.66275-11.16292,4.43728-4.63-.25-5.80957-1.699-7.17957-2.899-.01,0-.01-.01-.02-.02a1.43347,1.43347,0,0,0-2.31995.09,2.40158,2.40158,0,0,1-1.53.72,5.37636,5.37636,0,0,1-1.35-.11C2.51845,12.57958,1.445,10.64886,1.1097,8.24761c-.51434,3.60126.97955,7.25055,2.49121,7.53375a5.37921,5.37921,0,0,0,1.35.11,2.40189,2.40189,0,0,0,1.53-.72,1.43343,1.43343,0,0,1,2.31995-.09c.01.01.01.02.02.02,1.37,1.2,3.12,3.94,7.75,4.19,5.16.28,7.53-2.88,9.43-4.29a3.7575,3.7575,0,0,1,.98-.55c1.66-.57,2.3,1.69,5.92,1.87,5.12.26,7.63-4.7,10.42-2.46a20.50071,20.50071,0,0,0,1.73,1.34,2.08685,2.08685,0,0,0,1.1.42c2.0921-1.3797,3.2511-4.96,2.6825-7.65991C49.00044,6.00134,46.00044,4.00134,45.00044,4.00134Z" style="fill:#750000;opacity:0.2"/><path d="M30.97949,60.00146H18.981a15.0187,15.0187,0,0,1-15.00146-15.002V16.10156a1,1,0,0,1,2,0V44.99951A13.0164,13.0164,0,0,0,18.981,58.00146H30.97949a13.01442,13.01442,0,0,0,13-13,1,1,0,0,1,1-1h5.25a7.75868,7.75868,0,0,0,7.75-7.75v-8.5a7.75868,7.75868,0,0,0-7.75-7.75h-5.25a1,1,0,0,1-1-1v-3.7002a1,1,0,1,1,2,0v2.7002h4.25a9.76129,9.76129,0,0,1,9.75,9.75v8.5a9.76129,9.76129,0,0,1-9.75,9.75h-4.2832A15.02,15.02,0,0,1,30.97949,60.00146ZM48.667,38.03418h-3.6875a1,1,0,0,1-1-1v-10a1,1,0,0,1,1-1H48.667a3.31607,3.31607,0,0,1,3.3125,3.3125v5.375A3.31607,3.31607,0,0,1,48.667,38.03418Zm-2.6875-2H48.667a1.31409,1.31409,0,0,0,1.3125-1.3125v-5.375a1.31409,1.31409,0,0,0-1.3125-1.3125h-2.6875Z" style="fill:#6d6daa"/><path d="M44.97949,46.03418a1,1,0,0,1-1-1v-2a1,1,0,0,1,2,0v2A1,1,0,0,1,44.97949,46.03418Z" style="fill:#6d6daa"/><path d="M44.97949,22.03418a1,1,0,0,1-1-1v-2a1,1,0,0,1,2,0v2A1,1,0,0,1,44.97949,22.03418Z" style="fill:#6d6daa"/><path d="M27.731,34.03516a4.57893,4.57893,0,0,1-2.39258-.65967l-3.22266-1.979a2.6634,2.6634,0,0,0-2.69189,0L16.20313,33.375a4.66811,4.66811,0,0,1-4.78564.00049L8.19482,31.396a2.64084,2.64084,0,0,0-2.6709.00049,1,1,0,0,1-1.04687-1.7041,4.64918,4.64918,0,0,1,4.76416-.00049l3.22314,1.97949a2.6602,2.6602,0,0,0,2.69141,0l3.22119-1.979a4.67033,4.67033,0,0,1,4.78564,0l3.22266,1.979a2.6611,2.6611,0,0,0,2.69189,0l3.22217-1.979a4.67122,4.67122,0,0,1,4.78613,0l3.22021,1.97852a2.6643,2.6643,0,0,0,2.69238.00049l1.4585-.89648a1,1,0,0,1,1.04688,1.7041l-1.4585.89648a4.6721,4.6721,0,0,1-4.78662-.001l-3.21973-1.978a2.662,2.662,0,0,0-2.69238,0l-3.22217,1.979A4.58188,4.58188,0,0,1,27.731,34.03516Z" style="fill:#6d6daa"/><path d="M17.1875,20.3125q-.32739,0-.66846-.01807a10.62466,10.62466,0,0,1-7.64355-3.748c-.394-.40332-.98975-1.0127-1.19873-1.01465a1.42228,1.42228,0,0,0-.49414.34619,3.85618,3.85618,0,0,1-3.76367.8833c-1.24561-.23047-2.356-1.64941-2.97021-3.79541-.84717-2.959-.71582-7.43945,2.44336-10.32812,2.76465-2.52881,8.7373-4.50977,21.48975.40869,4.22021,1.62939,10.53271.74023,16.15088-.34424,5.09961-.98633,7.98682,1.4458,8.98828,4.05029,1.24316,3.21777-.12988,7.93359-2.82617,9.70166a.99742.99742,0,0,1-.47559.16162c-.9707.07422-1.95752-.68066-3.15234-1.66992l-.36865-.30225c-.85059-.68164-1.57666-.36914-3.43408.70068a11.15619,11.15619,0,0,1-6.4165,1.978,8.137,8.137,0,0,1-4.33447-1.47021c-.76318-.4834-.93164-.54492-1.209-.45068a6.96292,6.96292,0,0,0-1.78076,1.29834C23.85352,18.15283,21.37207,20.3125,17.1875,20.3125ZM7.67578,13.53174h.01807c1.041.00928,1.769.75439,2.61182,1.61719A8.65014,8.65014,0,0,0,16.627,18.29736c3.78906.20605,5.89014-1.63232,7.5835-3.10645a7.97,7.97,0,0,1,2.44629-1.68164,3.18894,3.18894,0,0,1,2.92627.65332,6.22449,6.22449,0,0,0,3.36621,1.1626,9.47957,9.47957,0,0,0,5.31641-1.71387c1.72949-.99707,3.69043-2.12744,5.68359-.52832l.39355.32275a10.78815,10.78815,0,0,0,1.56592,1.144,7.1949,7.1949,0,0,0,1.74609-7.07813c-.34521-.89893-1.85449-3.75244-6.74268-2.80566C35.01367,5.80469,28.353,6.72314,23.66162,4.9126,11.86572.36133,6.59033,1.96533,4.2417,4.11328c-2.48437,2.272-2.56055,5.89209-1.87061,8.30176.45264,1.58057,1.14307,2.32959,1.41211,2.37939h0c1.06494.19727,1.53076.11816,1.99365-.33887A2.70629,2.70629,0,0,1,7.67578,13.53174Z" style="fill:#6d6daa"/><path d="M8.91748,16.22168a.99724.99724,0,0,1-.75732-.34619A19.368,19.368,0,0,1,5.666,11.12891.99987.99987,0,0,1,7.543,10.439a17.18969,17.18969,0,0,0,2.13086,4.12891,1,1,0,0,1-.75635,1.65381Z" style="fill:#6d6daa"/><path d="M26.00537,15.99658a1,1,0,0,1-.60107-1.7998,11.9547,11.9547,0,0,0,2.38623-2.43115,1.00008,1.00008,0,1,1,1.62793,1.16211,13.90579,13.90579,0,0,1-2.814,2.86865A.99445.99445,0,0,1,26.00537,15.99658Z" style="fill:#6d6daa"/><g style="opacity:0.5"><path d="M40.98,17.02979a.99015.99015,0,0,1-.38037-.06982,1.063,1.063,0,0,1-.32959-.22021,1.01309,1.01309,0,0,1-.29-.71,1.0413,1.0413,0,0,1,.29-.7002.90907.90907,0,0,1,.32959-.21973,1.02171,1.02171,0,0,1,1.09033.21973,1.01136,1.01136,0,0,1,.29.7002,1.263,1.263,0,0,1-.02.2002.71348.71348,0,0,1-.06006.18994.56241.56241,0,0,1-.08984.16992c-.04.0498-.08008.10986-.12012.1499A1.00729,1.00729,0,0,1,40.98,17.02979Z" style="fill:#6d6daa"/><path d="M12.98,21.04a1.00775,1.00775,0,1,1,.71-.30029A1.01684,1.01684,0,0,1,12.98,21.04Z" style="fill:#6d6daa"/><path d="M20.98,21.04a1.54205,1.54205,0,0,1-.2002-.02L20.59961,20.96c-.05957-.03027-.11963-.06006-.17969-.09033a1.62567,1.62567,0,0,1-.1499-.12988,1.004,1.004,0,0,1,.90967-1.68994l.18018.06006c.06006.02979.12012.06006.16992.08984a1.03437,1.03437,0,0,1,.16016.12988.99675.99675,0,0,1-.16016,1.54c-.0498.03027-.10986.06006-.16992.09033l-.18018.06006A1.38371,1.38371,0,0,1,20.98,21.04Z" style="fill:#6d6daa"/><path d="M28.98,21.02979a.99015.99015,0,0,1-.38037-.06982,1.063,1.063,0,0,1-.32959-.22021,1.01309,1.01309,0,0,1-.29-.71,1.1943,1.1943,0,0,1,.02-.18994.59212.59212,0,0,1,.06006-.18994A.54155.54155,0,0,1,28.1499,19.48a.60527.60527,0,0,1,.12012-.15039.90907.90907,0,0,1,.32959-.21973,1.02548,1.02548,0,0,1,1.09033.21973.98707.98707,0,0,1,.12012.15039.56241.56241,0,0,1,.08984.16992.61731.61731,0,0,1,.06006.18994,1.25383,1.25383,0,0,1,.02.18994,1.03393,1.03393,0,0,1-.29.71A1.00729,1.00729,0,0,1,28.98,21.02979Z" style="fill:#6d6daa"/><path d="M36.98,21.04a1.38349,1.38349,0,0,1-.2002-.02L36.59961,20.96c-.05957-.03027-.11963-.06006-.17969-.09033a1.62567,1.62567,0,0,1-.1499-.12988.97571.97571,0,0,1-.21-.31982A.86546.86546,0,0,1,35.98,20.04a1.01513,1.01513,0,0,1,.29-.71045,1.70353,1.70353,0,0,1,.1499-.12988c.06006-.02979.12012-.06006.17969-.08984l.18018-.06006A1.00529,1.00529,0,0,1,37.98,20.04a.86546.86546,0,0,1-.08008.37988.99143.99143,0,0,1-.21.31982A1.01772,1.01772,0,0,1,36.98,21.04Z" style="fill:#6d6daa"/><path d="M8.98,25.02979a.99714.99714,0,0,1-.71-1.7002,1.03718,1.03718,0,0,1,1.41992,0,1.01136,1.01136,0,0,1,.29.7002,1.03393,1.03393,0,0,1-.29.71A1.00729,1.00729,0,0,1,8.98,25.02979Z" style="fill:#6d6daa"/><path d="M16.98,25.02979a1.00645,1.00645,0,0,1-.71-.29,1.03173,1.03173,0,0,1-.29-.71,1.00921,1.00921,0,0,1,.29-.7002,1.042,1.042,0,0,1,.90967-.27979l.18018.06006c.06006.02979.12012.06006.16992.08984a1.03437,1.03437,0,0,1,.16016.12988.99515.99515,0,0,1-.71,1.7002Z" style="fill:#6d6daa"/><path d="M24.98,25.04a1.01684,1.01684,0,0,1-.71-.30029,1.03173,1.03173,0,0,1-.29-.71,1.00921,1.00921,0,0,1,.29-.7002,1.03146,1.03146,0,0,1,.8999-.27979c.06982.02.12988.04.18994.06006.06006.02979.12012.06006.16992.08984a1.03437,1.03437,0,0,1,.16016.12988.99675.99675,0,0,1-.16016,1.54c-.0498.03027-.10986.06006-.16992.09033-.06006.02-.12012.04-.18994.06006A1.25383,1.25383,0,0,1,24.98,25.04Z" style="fill:#6d6daa"/><path d="M32.98,25.02979a.99015.99015,0,0,1-.38037-.06982,1.063,1.063,0,0,1-.32959-.22021,1.01309,1.01309,0,0,1-.29-.71,1.0413,1.0413,0,0,1,.29-.7002.90907.90907,0,0,1,.32959-.21973.93245.93245,0,0,1,.57031-.06006c.06982.02.12988.04.18994.06006.06006.02979.12012.06006.16992.08984a1.03437,1.03437,0,0,1,.16016.12988,1.0413,1.0413,0,0,1,.29.7002,1.263,1.263,0,0,1-.02.2002.71348.71348,0,0,1-.06006.18994.56241.56241,0,0,1-.08984.16992c-.04.0498-.08008.10986-.12012.1499a1.00673,1.00673,0,0,1-.16016.12988c-.0498.03027-.10986.06006-.16992.09033a1.0385,1.0385,0,0,1-.18994.0498A.61444.61444,0,0,1,32.98,25.02979Z" style="fill:#6d6daa"/><path d="M40.98,25.04a1,1,0,0,1-.38037-.08008,1.063,1.063,0,0,1-.32959-.22021,1.01309,1.01309,0,0,1-.29-.71,1.0413,1.0413,0,0,1,.29-.7002.90907.90907,0,0,1,.32959-.21973,1.02171,1.02171,0,0,1,1.09033.21973,1.0413,1.0413,0,0,1,.29.7002,1.263,1.263,0,0,1-.02.2002.71348.71348,0,0,1-.06006.18994.56241.56241,0,0,1-.08984.16992.98122.98122,0,0,1-.12012.1499A1.01772,1.01772,0,0,1,40.98,25.04Z" style="fill:#6d6daa"/><path d="M12.98,29.04a1.00775,1.00775,0,0,1-1-1.01025,1.0413,1.0413,0,0,1,.29-.7002,1.02071,1.02071,0,0,1,1.08984-.21973,1.01585,1.01585,0,0,1,.62012.91992,1.03393,1.03393,0,0,1-.29.71,1.2006,1.2006,0,0,1-.33008.22021A.99953.99953,0,0,1,12.98,29.04Z" style="fill:#6d6daa"/><path d="M20.98,29.04a1.01684,1.01684,0,0,1-.71-.30029,1.03173,1.03173,0,0,1-.29-.71,1.0413,1.0413,0,0,1,.29-.7002,1.01473,1.01473,0,0,1,.90967-.27979l.18018.06006c.06006.02979.12012.06006.18018.08984a1.85732,1.85732,0,0,1,.1499.12988,1.0413,1.0413,0,0,1,.29.7002,1.03393,1.03393,0,0,1-.29.71A1.01772,1.01772,0,0,1,20.98,29.04Z" style="fill:#6d6daa"/><path d="M28.98,29.02979a.99015.99015,0,0,1-.38037-.06982,1.063,1.063,0,0,1-.32959-.22021.97571.97571,0,0,1-.21-.31982.87969.87969,0,0,1-.08008-.39014.838.838,0,0,1,.08008-.37988.98294.98294,0,0,1,.21-.32031.83358.83358,0,0,1,.32959-.21973.99921.99921,0,0,1,1.38037.91992,1.04933,1.04933,0,0,1-.08008.39014.99143.99143,0,0,1-.21.31982A1.00729,1.00729,0,0,1,28.98,29.02979Z" style="fill:#6d6daa"/><path d="M36.98,29.02979a1.00645,1.00645,0,0,1-.71-.29.97571.97571,0,0,1-.21-.31982.87969.87969,0,0,1-.08008-.39014,1.1943,1.1943,0,0,1,.02-.18994.59212.59212,0,0,1,.06006-.18994A.54155.54155,0,0,1,36.1499,27.48a.60527.60527,0,0,1,.12012-.15039,1.70353,1.70353,0,0,1,.1499-.12988c.06006-.02979.12012-.06006.17969-.08984l.18018-.06006a1.02434,1.02434,0,0,1,.91016.27979.98707.98707,0,0,1,.12012.15039.56241.56241,0,0,1,.08984.16992.61731.61731,0,0,1,.06006.18994,1.25383,1.25383,0,0,1,.02.18994.87969.87969,0,0,1-.08008.39014.99143.99143,0,0,1-.21.31982A1.00729,1.00729,0,0,1,36.98,29.02979Z" style="fill:#6d6daa"/></g></svg>