<svg id="Food_2" xmlns="http://www.w3.org/2000/svg" width="60" height="60" viewBox="0 0 60 60"><title>006b015</title><path d="M39.83,59H20a7.9978,7.9978,0,0,0,8-8V39.83a6.76215,6.76215,0,0,0-3.58-5.9c2.58-2.555,8.33-2.805,11.2-.02A6.7837,6.7837,0,0,0,32,39.84V51A8.00212,8.00212,0,0,0,39.83,59Z" style="fill:#d4edff;opacity:0.5"/><path d="M18.2,14.49a3.68333,3.68333,0,0,0,3.74,0l3.22-1.98a3.68333,3.68333,0,0,1,3.74,0l3.22,1.98a3.68333,3.68333,0,0,0,3.74,0l3.22-1.98a3.68333,3.68333,0,0,1,3.74,0l3.07,1.86c.07.99.11,1.99.11,3,0,6.95-4.05,13.63-9.93,16.32A13.04577,13.04577,0,0,1,30,35a12.54185,12.54185,0,0,1-6.07-1.31C18.125,31.1875,14,24.32,14,17.37a43.29679,43.29679,0,0,1,.33-5.16Z" style="fill:#b1f1a8"/><path d="M14.33,15.21l3.87,2.28a3.68335,3.68335,0,0,0,3.74,0l3.22-1.98a3.68318,3.68318,0,0,1,3.74005,0l3.22,1.98a3.68335,3.68335,0,0,0,3.74,0l3.22-1.98a3.68306,3.68306,0,0,1,3.74,0l3.07,1.86c.0285.40277.04822.80841.0661,1.21448C45.98334,18.181,46,17.77606,46,17.37c0-1.01-.04-2.01-.11-3l-3.07-1.86a3.68306,3.68306,0,0,0-3.74,0l-3.22,1.98a3.68335,3.68335,0,0,1-3.74,0L28.9,12.51a3.68318,3.68318,0,0,0-3.74005,0l-3.22,1.98a3.68335,3.68335,0,0,1-3.74,0l-3.87-2.28A43.2951,43.2951,0,0,0,14,17.37c0,.45947.02051.91821.05585,1.37573C14.10748,17.54431,14.19208,16.35492,14.33,15.21Z" style="fill:#fff;opacity:0.5"/><path d="M43.17,1a59.0352,59.0352,0,0,1,2.72,13.37h-.05l-3.02-1.86a3.68333,3.68333,0,0,0-3.74,0l-3.22,1.98a3.68333,3.68333,0,0,1-3.74,0L28.9,12.51a3.68333,3.68333,0,0,0-3.74,0l-3.22,1.98a3.68333,3.68333,0,0,1-3.74,0l-3.22-1.98a4.60345,4.60345,0,0,0-.59-.29l-.06-.01A58.9653,58.9653,0,0,1,16.83,1Z" style="fill:#d4edff;opacity:0.5"/><path d="M23,27.19971a1.00405,1.00405,0,0,1-.71-1.71,1.0214,1.0214,0,0,1,1.08984-.21,1.15386,1.15386,0,0,1,.33008.21,1.01394,1.01394,0,0,1,0,1.41992,1.14343,1.14343,0,0,1-.33008.21A.99038.99038,0,0,1,23,27.19971Z" style="fill:#fff"/><path d="M30.12988,25.0498a1.01309,1.01309,0,0,1-.71-.29.96027.96027,0,0,1-.12988-.16016c-.03027-.0498-.06006-.10986-.09033-.16992a1.17456,1.17456,0,0,1-.0498-.17969.68268.68268,0,0,1-.02-.2002,1.00729,1.00729,0,0,1,.29-.71,1.03363,1.03363,0,0,1,1.40967,0,1.7007,1.7007,0,0,1,.13037.1499c.02979.06006.06006.12012.08984.18018l.06006.17969a1.011,1.011,0,0,1,0,.40039l-.06006.17969c-.02979.06006-.06006.12012-.08984.16992a.98812.98812,0,0,1-.13037.16016A1.00716,1.00716,0,0,1,30.12988,25.0498Z" style="fill:#fff"/><path d="M25,20a.83864.83864,0,0,1-.38037-.08008,1.16214,1.16214,0,0,1-.32959-.21A1.051,1.051,0,0,1,24,19a.9995.9995,0,0,1,.07959-.38037.90758.90758,0,0,1,.54-.54A1.01874,1.01874,0,0,1,25.71,18.29a1.16214,1.16214,0,0,1,.21.32959A.83864.83864,0,0,1,26,19a.99042.99042,0,0,1-1,1Z" style="fill:#fff"/><path d="M19,22a.99042.99042,0,0,1-1-1,.9995.9995,0,0,1,.07959-.38037A1.15319,1.15319,0,0,1,18.29,20.29a1.04668,1.04668,0,0,1,1.41992,0,1.16214,1.16214,0,0,1,.21.32959A.83864.83864,0,0,1,20,21a1.05329,1.05329,0,0,1-.29.71A1.03393,1.03393,0,0,1,19,22Z" style="fill:#fff"/><path d="M34.37988,20.86963a1.03959,1.03959,0,0,1-.39014-.06982,1.00377,1.00377,0,0,1-.31982-.22021.86823.86823,0,0,1-.12988-.1499c-.03027-.0498-.06006-.10986-.09033-.16992-.02-.06006-.04-.12988-.06006-.18994a1.23816,1.23816,0,0,1-.00977-.18994.97287.97287,0,0,1,.29-.71.98028.98028,0,0,1,1.40967,0,.93267.93267,0,0,1,.13037.1499c.02979.0498.06006.10986.08984.16992.02.06006.04.12988.06006.18994a.95973.95973,0,0,1,0,.39014c-.02.06006-.04.12988-.06006.18994-.02979.06006-.06006.12012-.08984.16992a.89246.89246,0,0,1-.13037.1499A.96447.96447,0,0,1,34.37988,20.86963Z" style="fill:#fff"/><path d="M38.34961,26a.99953.99953,0,0,1-.37988-.08008.90089.90089,0,0,1-.54-.54A.99953.99953,0,0,1,37.34961,25a1.05235,1.05235,0,0,1,.29-.71,1.15552,1.15552,0,0,1,.33008-.21045.99964.99964,0,0,1,1.09033.21045,1.54536,1.54536,0,0,1,.11963.1499.76551.76551,0,0,1,.09033.17969.63471.63471,0,0,1,.05957.18018,1.3181,1.3181,0,0,1,.02.2002.844.844,0,0,1-.07959.37988,1.16449,1.16449,0,0,1-.21.33008A1.05448,1.05448,0,0,1,38.34961,26Z" style="fill:#fff"/><path d="M40.5498,19.07959A.999.999,0,0,1,40.16992,19a.91632.91632,0,0,1-.33008-.22021,1.03875,1.03875,0,0,1-.29-.7002,1.01484,1.01484,0,0,1,.29-.71,1.061,1.061,0,0,1,.33008-.21973.999.999,0,0,1,1.37988.92969,1.03221,1.03221,0,0,1-.08008.38037.9887.9887,0,0,1-.21.31982,1.77709,1.77709,0,0,1-.1499.12988c-.06006.03027-.12012.06006-.18018.09033l-.17969.06006A1.54491,1.54491,0,0,1,40.5498,19.07959Z" style="fill:#fff"/><path d="M32,30.59961a1.05186,1.05186,0,0,1-.71-.28955,1.16226,1.16226,0,0,1-.21045-.33008.94755.94755,0,0,1,0-.76025,1.03554,1.03554,0,0,1,.21045-.33008.99941.99941,0,0,1,1.08984-.21,1.16449,1.16449,0,0,1,.33008.21,1.04271,1.04271,0,0,1,.21.33008.94226.94226,0,0,1,0,.76025.90089.90089,0,0,1-.54.54A.999.999,0,0,1,32,30.59961Z" style="fill:#fff"/><g style="opacity:0.2"><path d="M36.07,30.69c-.15.07-.29.14-.43.21a.035.035,0,0,1-.02.01,13.898,13.898,0,0,1-4.57,1.05,15.6556,15.6556,0,0,1-3.5-.15,12.046,12.046,0,0,1-3.13-.88c-.01,0-.02-.01-.04-.02-.15-.08-.3-.15-.45-.22-5.53168-2.53064-9.44141-8.59271-9.8855-15.08862C14.01776,16.1883,14,16.7779,14,17.37c0,6.95,4.05,13.63,9.93,16.32.15.07.3.14.45.22.02.01.03.02.04.02a12.046,12.046,0,0,0,3.13.88,15.6556,15.6556,0,0,0,3.5.15,13.898,13.898,0,0,0,4.57-1.05.035.035,0,0,0,.02-.01c.14-.07.28-.14.43-.21C41.95,31,46,24.32,46,17.37c0-.5921-.01776-1.1817-.04449-1.76862C45.51141,22.09729,41.60168,28.15937,36.07,30.69Z" style="fill:#2c4b75"/><path d="M43,1H37.29248A90.24037,90.24037,0,0,1,39,17.37c0,13.63-7.2561,17.42242-7.66956,17.5611a10.0545,10.0545,0,0,0,2.05548.02887C34.88782,34.84,46,29,46,17.37A53.72352,53.72352,0,0,0,43,1Z" style="fill:#2c4b75"/></g><path d="M39,59H32c-1-1-2-3.58-2-8V36.95717c0-2.49,3-3.46717,3-.95717l-1.55371,2.9998V51C31.44629,55.36,37.03026,58.91,39,59Z" style="fill:#2c4b75;opacity:0.2"/><g style="opacity:0.75"><polygon points="16 4 44 4 43.17 1 16.83 1 16 4" style="fill:#fff"/><path d="M29.605,33.93l-.01-.02c-.03748-.08-.075-.15-.11249-.22C28.01251,31,27,24.32,27,17.37,27,9.07,27.70752,1,27.70752,1h-6.3197A65.88775,65.88775,0,0,0,19,17.37c0,6.95,3.41718,13.63,8.37842,16.32.12659.07.25317.14.3797.22.01691.01.02533.02.03375.02a9.03363,9.03363,0,0,0,2.5766.867A2.32939,2.32939,0,0,1,29.605,33.93Z" style="fill:#fff"/></g><path d="M31.04932,35.9585a1,1,0,0,1-.04248-1.999,11.8495,11.8495,0,0,0,4.57959-1.123,1,1,0,0,1,.82617,1.82129,13.94405,13.94405,0,0,1-5.31982,1.2998Zm-3.49609-.14844a1.03736,1.03736,0,0,1-.15479-.01172,14.72861,14.72861,0,0,1-3.81006-1.1416,1,1,0,1,1,.82422-1.82227,12.72068,12.72068,0,0,0,3.29248.9873,1,1,0,0,1-.15186,1.98828Z" style="fill:#6d6daa"/><path d="M40,60h-.1665c-.02783,0-.05566-.001-.0835-.00342A9.011,9.011,0,0,1,31,51V39.83691a7.74831,7.74831,0,0,1,4.65088-7.05127C41.15576,30.2583,45,23.91895,45,17.36914A55.43877,55.43877,0,0,0,42.44434,2H24a1,1,0,0,1,0-2H43.16943a.99937.99937,0,0,1,.94336.66895A56.89042,56.89042,0,0,1,47,17.36914c0,7.30469-4.32373,14.3916-10.51416,17.23389A5.7693,5.7693,0,0,0,33,39.83691V51a7.00786,7.00786,0,0,0,7,7,1,1,0,0,1,0,2Z" style="fill:#6d6daa"/><path d="M20,60a1,1,0,0,1,0-2,7.00786,7.00786,0,0,0,7-7V39.835a5.76994,5.76994,0,0,0-3.48584-5.2334C17.32373,31.76074,13,24.67432,13,17.36914A56.8794,56.8794,0,0,1,15.88867.66895.99937.99937,0,0,1,16.832,0H19a1,1,0,0,1,0,2H17.55713A55.42833,55.42833,0,0,0,15,17.36914c0,6.5498,3.84424,12.88867,9.34814,15.415A7.747,7.747,0,0,1,29,39.835V51A9.01047,9.01047,0,0,1,20,60Z" style="fill:#6d6daa"/><path d="M33.98877,16.001a4.58426,4.58426,0,0,1-2.39258-.65918L28.37354,13.3623a2.6634,2.6634,0,0,0-2.69189.00049l-3.2207,1.97852a4.67033,4.67033,0,0,1-4.78564.00049L14.45264,13.3623a2.31713,2.31713,0,0,0-.41162-.19873,1.00012,1.00012,0,0,1,.69141-1.877,4.32994,4.32994,0,0,1,.76709.37158l3.22266,1.97949a2.6634,2.6634,0,0,0,2.69189-.00049l3.2207-1.97852a4.67168,4.67168,0,0,1,4.78516-.00049l3.22314,1.97949a2.66571,2.66571,0,0,0,2.69189,0l3.22217-1.97949a4.67122,4.67122,0,0,1,4.78613.00049l3.01855,1.855a1,1,0,1,1-1.04687,1.7041l-3.01855-1.855A2.6643,2.6643,0,0,0,39.604,13.3623L36.38184,15.3418A4.58722,4.58722,0,0,1,33.98877,16.001Z" style="fill:#6d6daa"/></svg>