<svg id="Food_2" xmlns="http://www.w3.org/2000/svg" width="60" height="60" viewBox="0 0 60 60"><title>006b039</title><polygon points="50.999 22.001 10.999 22.001 8.999 18.001 52.999 18.001 50.999 22.001" style="fill:#ced8ee;fill-rule:evenodd"/><polygon points="16.499 18 17.772 22 25.499 22 24.999 18 16.499 18" style="fill:#fff;fill-rule:evenodd;opacity:0.75"/><polygon points="26.999 18 27.423 22 30.166 22 29.999 18 26.999 18" style="fill:#fff;fill-rule:evenodd;opacity:0.75"/><polygon points="41.764 18.001 40.999 22.001 51.053 22.001 52.999 18.001 41.764 18.001" style="fill:#2c4b75;fill-rule:evenodd;opacity:0.2"/><path d="M10.68925,41.88048a1.334,1.334,0,0,0-1.9,0l-3.35,4.3a1.25892,1.25892,0,0,0-.14,1.74c4.44,4.44,7.42,7.47,9.69,9.69a1.352,1.352,0,0,0,1.9,0l3.81-3.82a1.334,1.334,0,0,0,0-1.9Z" style="fill:#97c1ff"/><path d="M20.69926,51.8905l-1.91669-1.91669a1.33387,1.33387,0,0,1,0,1.9l-3.81,3.82a1.352,1.352,0,0,1-1.9,0c-.5191-.50769.88916.9118,1.91669,1.91669a1.352,1.352,0,0,0,1.9,0l3.81-3.82A1.334,1.334,0,0,0,20.69926,51.8905Z" style="fill:#2c4b75;opacity:0.2"/><path d="M7.52257,48.26379l3.35-4.3a1.33387,1.33387,0,0,1,1.9,0l-2.08331-2.08331a1.334,1.334,0,0,0-1.9,0l-3.35,4.3a1.25891,1.25891,0,0,0-.14,1.74C8.75151,51.37273,7.05259,48.73382,7.52257,48.26379Z" style="fill:#fff;opacity:0.5"/><path d="M36.90925,29.71048c-1.01,1.42-3.51,3.31-5.45,4.74a14.09794,14.09794,0,0,1-2.81,1.7l-.03-.08c2.54-1.52,4.88-7.42,4.88-7.42-.21-.71,1.02-3.76,2.82-5.26,1.81-1.5,4.8-1.95,4.8-.53l.1.14A12.89371,12.89371,0,0,0,36.90925,29.71048Z" style="fill:#f9e2dc"/><path d="M41.47925,22.82048c2.16-1.38,4.7-.44,2.89,1.81-2.34,2.91-2.27,5.28-3.29,7.32-.16,2.29-3.55,4.81-4.94,6.46a28.45974,28.45974,0,0,1-6.81,6.2,105.83659,105.83659,0,0,0-9.37,6.54l-7.32-7.32.33-.34a11.48346,11.48346,0,0,1,2.23-7.21,22.41756,22.41756,0,0,0,2.55-4.88c1.06-5.81-.31-6.81.55-8.49a2.301,2.301,0,0,1,3.51-.15,6.77617,6.77617,0,0,1,1.32,4.78c-.25,3.34-1.11,6.78.71,8.13a4.40061,4.40061,0,0,0,4.81.48,14.09794,14.09794,0,0,0,2.81-1.7c1.94-1.43,4.44-3.32,5.45-4.74a12.89371,12.89371,0,0,1,4.31-6.71C41.29925,22.94048,41.38925,22.88048,41.47925,22.82048Z" style="fill:#f9e2dc"/><g style="opacity:0.2"><path d="M39.66592,30.08381c-.16,2.29-4.13664,4.67668-5.52665,6.32664a28.45973,28.45973,0,0,1-6.81,6.2,105.84076,105.84076,0,0,0-9.37,6.54l2,2a105.84076,105.84076,0,0,1,9.37-6.54,28.45973,28.45973,0,0,0,6.81-6.2c1.39-1.65,4.78-4.17,4.94-6.46a66.5062,66.5062,0,0,0,3.29-7.32C45.99925,20.33381,40.99925,26.41715,39.66592,30.08381Z" style="fill:#cc7e54"/></g><g style="opacity:0.5"><path d="M31.64927,36.15044a14.10044,14.10044,0,0,0,2.81-1.7c1.94-1.43005,4.44-3.32,5.45-4.74005a12.89409,12.89409,0,0,1,4.31-6.71c.08-.06.17-.12.26-.18.09692-.062.19513-.11383.29321-.1665-.53052-.65-1.97931-.67291-3.29321.1665-.09.06-.18.12-.26.18a12.89409,12.89409,0,0,0-4.31,6.71c-1.00995,1.42-3.50995,3.31-5.45,4.74005a14.10044,14.10044,0,0,1-2.81,1.7c-.19025.08368-.37616.1524-.56067.21533A4.44737,4.44737,0,0,0,31.64927,36.15044Z" style="fill:#fff"/><path d="M14.16592,45.58381l.87147-1.01164a3.88988,3.88988,0,0,0,.94414-2.25353,11.67113,11.67113,0,0,1,2.21774-6.0382,22.4175,22.4175,0,0,0,2.55-4.88c1.06-5.81-.31-6.81.55-8.49a1.255,1.255,0,0,1,.27753-.34515,2.28482,2.28482,0,0,0-3.27753.34515c-.86,1.68.51,2.68-.55,8.49a22.4175,22.4175,0,0,1-2.55,4.88,11.4837,11.4837,0,0,0-2.23,7.21l-.33.34Z" style="fill:#fff"/></g><g style="opacity:0.5"><path d="M30.999,5.00049a.99974.99974,0,0,1-1-1v-2a1,1,0,1,1,2,0v2A.99974.99974,0,0,1,30.999,5.00049Z" style="fill:#6d6daa"/><path d="M24.01074,5.92139a1.00016,1.00016,0,0,1-.96484-.74121L22.52734,3.248A1,1,0,0,1,24.459,2.72949l.51855,1.93213a1.002,1.002,0,0,1-.9668,1.25977Z" style="fill:#6d6daa"/><path d="M37.98828,5.92139a1.00193,1.00193,0,0,1-.9668-1.25928L37.53906,2.73a.99989.99989,0,1,1,1.93164.51758l-.51758,1.93213A.99975.99975,0,0,1,37.98828,5.92139Z" style="fill:#6d6daa"/><path d="M44.498,8.61816a.99991.99991,0,0,1-.86523-1.5l1-1.73242a1.00016,1.00016,0,0,1,1.73242,1l-1,1.73242A1.0001,1.0001,0,0,1,44.498,8.61816Z" style="fill:#6d6daa"/><path d="M50.09082,12.90869a1.00024,1.00024,0,0,1-.707-1.70752l1.415-1.41406a1.00024,1.00024,0,0,1,1.41406,1.415l-1.415,1.41406A.99829.99829,0,0,1,50.09082,12.90869Z" style="fill:#6d6daa"/><path d="M17.5,8.61816a1.0001,1.0001,0,0,1-.86719-.5l-1-1.73242a1.00016,1.00016,0,0,1,1.73242-1l1,1.73242a.99991.99991,0,0,1-.86523,1.5Z" style="fill:#6d6daa"/><path d="M11.90723,12.90869a.99676.99676,0,0,1-.707-.293L9.78613,11.20166A.99989.99989,0,1,1,11.2002,9.7876l1.41406,1.41406a1,1,0,0,1-.707,1.707Z" style="fill:#6d6daa"/></g><path d="M36.31926,23.3905a7.67544,7.67544,0,0,0-1.39575,1.61H39.226a9.16634,9.16634,0,0,1,1.99323-2l-.1-.14C41.11924,21.44048,38.12925,21.8905,36.31926,23.3905Z" style="fill:#cc7e54;opacity:0.2"/><path d="M19.92969,52.17041a1,1,0,0,1-.707-1.707,1.157,1.157,0,0,1,.13477-.11279,107.96065,107.96065,0,0,1,9.44727-6.59131A27.317,27.317,0,0,0,35.377,37.76367c.40527-.481.9502-1.01318,1.52734-1.57666,1.30273-1.27246,3.08691-3.01514,3.17676-4.30615a1.01648,1.01648,0,0,1,.10352-.37744,12.96539,12.96539,0,0,0,.749-2.083,14.22072,14.22072,0,0,1,2.65625-5.4165,1.42234,1.42234,0,0,0,.39648-.75879,2.27632,2.27632,0,0,0-1.96875.418c-.06934.04639-.13574.08984-.19336.13379a11.9835,11.9835,0,0,0-3.9541,6.19141,1.02057,1.02057,0,0,1-.14551.30176c-1.083,1.52246-3.49609,3.36133-5.67187,4.96582a14.92506,14.92506,0,0,1-3.0166,1.81689,5.35927,5.35927,0,0,1-5.78809-.5957c-1.92773-1.43066-1.626-4.17627-1.30566-7.0835.06934-.63525.14063-1.2832.18945-1.92773a5.82824,5.82824,0,0,0-1.06055-4.03076,1.33372,1.33372,0,0,0-1.18555-.397,1.04707,1.04707,0,0,0-.69629.32764,2.86147,2.86147,0,0,0-.12988,1.7627,21.1009,21.1009,0,0,1-.32715,6.45166,23.01712,23.01712,0,0,1-2.72852,5.29443,10.47131,10.47131,0,0,0-2.03809,6.52539,1.00023,1.00023,0,1,1-1.99219.18164,12.44383,12.44383,0,0,1,2.4209-7.89551,21.59731,21.59731,0,0,0,2.3877-4.542,18.91779,18.91779,0,0,0,.28613-5.82959,4.65182,4.65182,0,0,1,.33984-2.85937,2.88572,2.88572,0,0,1,2.208-1.39844A3.31188,3.31188,0,0,1,22.5459,22.084,7.78142,7.78142,0,0,1,24.126,27.61768c-.0498.665-.123,1.33643-.19629,1.99463-.25488,2.32031-.49609,4.51221.50488,5.25488a3.41225,3.41225,0,0,0,3.8125.36768A13.05884,13.05884,0,0,0,30.86523,33.646,31.62331,31.62331,0,0,0,36.001,29.25781c.40723-1.33936,1.75-5.02979,4.6416-7.07373.06055-.04687.16016-.11475.26074-.18164,1.69824-1.084,3.6543-1.09766,4.59082-.05371.28613.31934,1.10742,1.502-.3457,3.30859a12.37521,12.37521,0,0,0-2.29883,4.73535,15.47937,15.47937,0,0,1-.79395,2.23535c-.25293,1.97021-2.10937,3.78369-3.75488,5.39014-.541.52832-1.05176,1.02734-1.39648,1.43652a29.14608,29.14608,0,0,1-7.04883,6.40625,105.68672,105.68672,0,0,0-9.2666,6.46631c-.02539.02-.05078.03906-.07715.05615A.99641.99641,0,0,1,19.92969,52.17041Z" style="fill:#6d6daa"/><path d="M28.62012,37.07031a.99982.99982,0,0,1-.51465-1.85791c1.76465-1.05615,3.67383-5.01025,4.376-6.7124-.02246-1.54932,1.53125-4.48877,3.19727-5.87744,1.45117-1.20361,3.92871-2.07373,5.40137-1.38037a1.73487,1.73487,0,0,1,1.03906,1.61816.9999.9999,0,0,1-1.9873.15771A4.73328,4.73328,0,0,0,36.958,24.16064,8.27387,8.27387,0,0,0,34.47559,28.457a.75555.75555,0,0,1-.04687.562c-.252.63623-2.54492,6.2627-5.2959,7.90918A.997.997,0,0,1,28.62012,37.07031Z" style="fill:#6d6daa"/><path d="M15.94238,58.99756a2.35537,2.35537,0,0,1-1.65332-.67334c-1.42578-1.39453-3.13379-3.10986-5.30664-5.29395-1.28711-1.29248-2.7373-2.75-4.39062-4.40283a2.04789,2.04789,0,0,1-.56934-1.687,2.4736,2.4736,0,0,1,.66113-1.417L8,41.26563a.9685.9685,0,0,1,.07617-.08594,2.38926,2.38926,0,0,1,3.32617,0l1.94434,1.94385h0l8.05957,8.06006a2.33364,2.33364,0,0,1-.00684,3.3208l-3.80176,3.812A2.33382,2.33382,0,0,1,15.94238,58.99756ZM9.53125,42.55518,6.22852,46.79492a.98586.98586,0,0,1-.082.09277.42388.42388,0,0,0-.13379.33594c1.64746,1.64355,3.09863,3.10205,4.38672,4.396,2.166,2.17578,3.86719,3.88525,5.28906,5.27588a.35084.35084,0,0,0,.49414.00732l3.80859-3.81836a.33763.33763,0,0,0,.10547-.24414.32906.32906,0,0,0-.09766-.23584L9.98242,42.5874A.28134.28134,0,0,0,9.53125,42.55518Z" style="fill:#6d6daa"/><path d="M9.74023,46.68994a.61445.61445,0,0,1-.19043-.02,1.08488,1.08488,0,0,1-.19043-.05029,1.70621,1.70621,0,0,1-.3291-.21973,1.02954,1.02954,0,0,1-.29-.71A1.25284,1.25284,0,0,1,8.75977,45.5a.60843.60843,0,0,1,.05957-.18994.57348.57348,0,0,1,.09082-.17041c.04-.06006.08008-.10986.12012-.15967.0498-.04.09961-.08008.15918-.12012A.93722.93722,0,0,1,9.35938,44.77,1.04694,1.04694,0,0,1,9.5498,44.71a1.027,1.027,0,0,1,.90039.27.90014.90014,0,0,1,.11914.15967.57348.57348,0,0,1,.09082.17041.60843.60843,0,0,1,.05957.18994,1.25485,1.25485,0,0,1,.02051.18994,1.03393,1.03393,0,0,1-.29.71A1.00814,1.00814,0,0,1,9.74023,46.68994Z" style="fill:#6d6daa"/><path d="M50.999,23.00049h-40a1.0004,1.0004,0,0,1-.89453-.55273l-2-4A1.0001,1.0001,0,0,1,8.999,17.00049h44a1.0001,1.0001,0,0,1,.89453,1.44727l-2,4A1.0004,1.0004,0,0,1,50.999,23.00049Zm-39.38184-2H50.38086l1-2H10.61719Z" style="fill:#6d6daa"/><path d="M54.999,19.00049h-48a1,1,0,0,1,0-2h48a1,1,0,0,1,0,2Z" style="fill:#6d6daa"/></svg>