<svg id="Food_1" xmlns="http://www.w3.org/2000/svg" width="60" height="60" viewBox="0 0 60 60"><title>006a088</title><path d="M54.99967,24v3q0,1.2972.10349,2.5913l1.5592,18.423A3.67577,3.67577,0,0,1,52.99967,52h0a3.67578,3.67578,0,0,1-3.66271-3.9857l1.5592-18.423q.1035-1.293.10351-2.5913V24Z" style="fill:#ced8ee;fill-rule:evenodd"/><path d="M55.10318,29.59129q-.10355-1.293-.10352-2.59131V24h-1.75s.03448,4.72931.10352,5.59131l.584,18.423c.15206,1.796-.29155,3.36371-1.93748,3.83093a3.63743,3.63743,0,0,0,1,.15479,3.67575,3.67575,0,0,0,3.66266-3.98572Z" style="fill:#2c4b75;fill-rule:evenodd;opacity:0.2"/><path d="M52.31215,48.01427c.19485-4.60394.484-18.423.484-18.423.069-.862.10352-5.59131.10352-5.59131h-1.9v3q0,1.29721-.10352,2.59131l-1.5592,18.423C49.15543,50.15886,52.21221,50.37618,52.31215,48.01427Z" style="fill:#fff;fill-rule:evenodd;opacity:0.75"/><circle cx="22.99978" cy="30.00026" r="22.0001" style="fill:#d4edff"/><path d="M37.51981,13.4796A21.99407,21.99407,0,0,1,6.47946,44.52074,21.99507,21.99507,0,1,0,37.51981,13.4796Z" style="fill:#fff;fill-rule:evenodd;opacity:0.75"/><path d="M2.99967,32.00029A21.99394,21.99394,0,0,1,39.51981,15.4796,21.99508,21.99508,0,1,0,8.47946,46.52074,21.91014,21.91014,0,0,1,2.99967,32.00029Z" style="fill:#2c4b75;fill-rule:evenodd;opacity:0.2"/><circle cx="22.99988" cy="30.00006" r="15.2311" style="fill:#fff"/><path d="M58.99967,20v1a3.00781,3.00781,0,0,1-2.999,2.9986H50.00015A3.00875,3.00875,0,0,1,46.99967,21l.00149-1Z" style="fill:#ced8ee;fill-rule:evenodd"/><path d="M56.97568,20a1.62846,1.62846,0,0,1-1.5108,1.39858H47.03006a2.91426,2.91426,0,0,0,2.97009,2.6h6.00049A3.00781,3.00781,0,0,0,58.99967,21V20Z" style="fill:#2c4b75;fill-rule:evenodd;opacity:0.2"/><path d="M53,53a4.676,4.676,0,0,1-4.65918-5.06934l1.55957-18.42383C49.96582,28.67285,50,27.82715,50,27V24a1,1,0,0,1,2,0v3c0,.87988-.03613,1.77832-.10645,2.66992L50.333,48.09863a2.65,2.65,0,0,0,.69629,2.03613,2.73865,2.73865,0,0,0,3.94043,0,2.64748,2.64748,0,0,0,.69629-2.03613L54.10742,29.6748C54.03613,28.791,54,27.89258,54,27V24a1,1,0,0,1,2,0v3c0,.83887.03418,1.68359.10059,2.51074L57.6582,47.93066A4.67463,4.67463,0,0,1,53,53Z" style="fill:#6d6daa"/><path d="M56.001,24.999H50A4.00375,4.00375,0,0,1,46,21l.001-13a1,1,0,0,1,1-1h0a1,1,0,0,1,1,1L48,21a2.00177,2.00177,0,0,0,2,1.999h6.001A2.00094,2.00094,0,0,0,58,21V8a1,1,0,0,1,2,0V21A4.00354,4.00354,0,0,1,56.001,24.999Z" style="fill:#6d6daa"/><path d="M55,21a.99942.99942,0,0,1-1-1V8a1,1,0,0,1,2,0V20A.99942.99942,0,0,1,55,21Z" style="fill:#6d6daa"/><path d="M51,21a.99942.99942,0,0,1-1-1V8a1,1,0,0,1,2,0V20A.99942.99942,0,0,1,51,21Z" style="fill:#6d6daa"/><path d="M23,53A23,23,0,1,1,46,30,23.02557,23.02557,0,0,1,23,53ZM23,9A21,21,0,1,0,44,30,21.02422,21.02422,0,0,0,23,9Z" style="fill:#6d6daa"/><g style="opacity:0.5"><path d="M22.01953,45.22949a.98866.98866,0,0,1,.99023-1h0a1.018,1.018,0,0,1,1.00977,1h0a1.00256,1.00256,0,0,1-1,1h0A.99632.99632,0,0,1,22.01953,45.22949Zm-3.2002.46a.993.993,0,0,1-.71-1.22949h0a1.00224,1.00224,0,0,1,1.2207-.71h0a1.01261,1.01261,0,0,1,.71,1.22949h0a1.00574,1.00574,0,0,1-.9707.74023h0A1.048,1.048,0,0,1,18.81934,45.68945Zm7.1709-.71973a.99315.99315,0,0,1,.71-1.21973v-.00977a1.00122,1.00122,0,0,1,1.21973.71h0a1.009,1.009,0,0,1-.71,1.22949h.00977a1.207,1.207,0,0,1-.26953.03027h0A.98975.98975,0,0,1,25.99023,44.96973Zm-11.09082-.90039a1.009,1.009,0,0,1-.36914-1.36914h0a1.00539,1.00539,0,0,1,1.36914-.36035h0a.99561.99561,0,0,1,.37012,1.36035h0a1.0186,1.0186,0,0,1-.87012.5h0A1.00226,1.00226,0,0,1,14.89941,44.06934Zm14.86035-.37988a1.00677,1.00677,0,0,1,.36035-1.37012h0a1.00851,1.00851,0,0,1,1.37012.36035h0a1.00271,1.00271,0,0,1-.37012,1.37012h0a.961.961,0,0,1-.49023.13965h0A.99425.99425,0,0,1,29.75977,43.68945ZM11.54,41.49023a.99493.99493,0,0,1,0-1.41016h0a.99493.99493,0,0,1,1.41016,0h0a.99669.99669,0,0,1,0,1.41016h0a.97014.97014,0,0,1-.71.29h0A.96246.96246,0,0,1,11.54,41.49023Zm21.5293-.02051a.99669.99669,0,0,1,0-1.41016h0a.99669.99669,0,0,1,1.41016,0h0a.99493.99493,0,0,1,0,1.41016h0a.96327.96327,0,0,1-.71.29h0A.96017.96017,0,0,1,33.06934,41.46973ZM8.9502,38.13965H8.96a.99875.99875,0,0,1,.35938-1.37012h0a.99965.99965,0,0,1,1.36035.37012h.00977A.9984.9984,0,0,1,10.31934,38.5h0a1.01815,1.01815,0,0,1-.5.13965h0A1.01608,1.01608,0,0,1,8.9502,38.13965Zm26.75.33984a1.00078,1.00078,0,0,1-.37012-1.37012h0A.9983.9983,0,0,1,36.7002,36.75h0a.99224.99224,0,0,1,.35938,1.35938h0a.9931.9931,0,0,1-.87012.5h0A.94468.94468,0,0,1,35.7002,38.47949Zm-28.37012-4.25a.98772.98772,0,0,1,.7002-1.21973h0a1.00269,1.00269,0,0,1,1.22949.7002h0a1.0164,1.0164,0,0,1-.71,1.22949h0a1.06393,1.06393,0,0,1-.25977.03027h0A.98148.98148,0,0,1,7.33008,34.22949ZM37.46,34.91016a1.00476,1.00476,0,0,1-.71-1.23047h0a1.0073,1.0073,0,0,1,1.22949-.71h0a1.00741,1.00741,0,0,1,.7002,1.23047h0a.9908.9908,0,0,1-.96.73926h0A1.17726,1.17726,0,0,1,37.46,34.91016ZM6.76953,30.03027a.99632.99632,0,0,1,1-1h0a1.00256,1.00256,0,0,1,1,1h0a1.00319,1.00319,0,0,1-1,1h0A1.00319,1.00319,0,0,1,6.76953,30.03027ZM37.22949,30h0v-.06055h0a.99693.99693,0,0,1,1-1h0a.98805.98805,0,0,1,1,.99023h0v.04h0V30h0a1.00256,1.00256,0,0,1-1,1h0A1.00319,1.00319,0,0,1,37.22949,30Zm-29.21-2.9502a.98955.98955,0,0,1-.71-1.21973h0a1.00224,1.00224,0,0,1,1.2207-.71h0a1.00232,1.00232,0,0,1,.71,1.21973h0a1.00039,1.00039,0,0,1-.96.75h0A.74086.74086,0,0,1,8.01953,27.0498Zm28.7207-.79a.9936.9936,0,0,1,.69922-1.22949h0a.9946.9946,0,0,1,1.2207.71h0A.9889.9889,0,0,1,37.96,26.96h0a.7751.7751,0,0,1-.25977.04h0A1.00093,1.00093,0,0,1,36.74023,26.25977ZM9.29,23.28027a1.00748,1.00748,0,0,1-.37012-1.37012h0v.00977h0A1.001,1.001,0,0,1,10.29,21.5498h0a.98479.98479,0,0,1,.35938,1.36035h0a.97927.97927,0,0,1-.85937.5h0A1.01131,1.01131,0,0,1,9.29,23.28027Zm26.00977-.44043a.998.998,0,0,1,.36035-1.37012h0a.9982.9982,0,0,1,1.37012.36035h0a1.00851,1.00851,0,0,1-.36035,1.37012h0a1.01131,1.01131,0,0,1-.5.12988h0A.99646.99646,0,0,1,35.2998,22.83984ZM11.5,19.96973a1.01583,1.01583,0,0,1-.00977-1.41992h0a1.0085,1.0085,0,0,1,1.41992,0h0a.99669.99669,0,0,1,0,1.41016h0a.976.976,0,0,1-.71.2998h0A.99872.99872,0,0,1,11.5,19.96973Zm21.53027-.07031h0a.99469.99469,0,0,1-.01074-1.40918h0a1.00762,1.00762,0,0,1,1.41992-.01074h0a1.00671,1.00671,0,0,1,0,1.41992h0a1.0027,1.0027,0,0,1-.71.29h0A.95647.95647,0,0,1,33.03027,19.89941ZM14.47949,17.33008A1.00271,1.00271,0,0,1,14.84961,15.96h0a.99815.99815,0,0,1,1.36035.35937h0a.99775.99775,0,0,1-.36035,1.37012h0a1.01479,1.01479,0,0,1-.5.14063h0A1.00907,1.00907,0,0,1,14.47949,17.33008Zm15.58984.31934a1.009,1.009,0,0,1-.36914-1.36914h0a1.00845,1.00845,0,0,1,1.36914-.37012h0a1.00936,1.00936,0,0,1,.37012,1.37012h0a1.00672,1.00672,0,0,1-.87012.5h0A1.00226,1.00226,0,0,1,30.06934,17.64941ZM18.0498,15.55957a.99314.99314,0,0,1,.7002-1.22949h0a1.0007,1.0007,0,0,1,1.22949.7002h0a1.00418,1.00418,0,0,1-.71,1.22949h.01074a1.24607,1.24607,0,0,1-.26074.04h0A1.00459,1.00459,0,0,1,18.0498,15.55957Zm8.58984.68066a1.003,1.003,0,0,1-.71-1.2207h0a1.00031,1.00031,0,0,1,1.21973-.71973h0a1.00122,1.00122,0,0,1,.71,1.21973h0a1.00143,1.00143,0,0,1-.96973.75h0A1.15844,1.15844,0,0,1,26.63965,16.24023Zm-4.68945-1.4707a1.00256,1.00256,0,0,1,1-1h0a.99693.99693,0,0,1,1,1h0a.99487.99487,0,0,1-.99023,1h0A1.00467,1.00467,0,0,1,21.9502,14.76953Z" style="fill:#6d6daa"/></g></svg>