<svg id="Maps_Travel" data-name="Maps &amp; Travel" xmlns="http://www.w3.org/2000/svg" width="60" height="60" viewBox="0 0 60 60"><title>007_006</title><path d="M30,56A24.99832,24.99832,0,0,1,5.04877,32.5C5.01935,32.99664,5,33.496,5,34a25,25,0,0,0,50,0c0-.504-.01935-1.00336-.04877-1.5A24.99836,24.99836,0,0,1,30,56Z" style="fill:#2c4b75;opacity:0.2"/><path d="M30,12A24.99831,24.99831,0,0,1,54.95123,35.5C54.98065,35.00336,55,34.504,55,34A25,25,0,0,0,5,34c0,.504.01935,1.00336.04877,1.5A24.99827,24.99827,0,0,1,30,12Z" style="fill:#fff;opacity:0.75"/><circle cx="30" cy="34" r="21" style="fill:#d4edff"/><path d="M30,16A20.9856,20.9856,0,0,1,50.92426,35.5C50.95953,35.00256,51,34.50641,51,34A21,21,0,0,0,9,34c0,.50641.04047,1.00256.07574,1.5A20.9856,20.9856,0,0,1,30,16Z" style="fill:#2c4b75;opacity:0.2"/><path d="M41.707,24.293a1.00268,1.00268,0,0,0-1.2373-.14111L26.93164,32.61328a.99328.99328,0,0,0-.31738.31836L18.15234,46.47021a1,1,0,0,0,1.37793,1.37793l13.53809-8.46143a.99328.99328,0,0,0,.31738-.31836l8.46191-13.53857A.99943.99943,0,0,0,41.707,24.293Z" style="fill:#2c4b75;opacity:0.2"/><polygon points="41 23 27.461 31.462 19 45 32.538 36.538 41 23" style="fill:#fff"/><polygon points="41 23 27.461 31.462 32.538 36.538 41 23" style="fill:#ff9797"/><path d="M19,46a.99977.99977,0,0,1-.84766-1.52979l8.46191-13.53857a.99328.99328,0,0,1,.31738-.31836l13.53809-8.46143a.99994.99994,0,0,1,1.37793,1.37793L33.38574,37.06836a.99328.99328,0,0,1-.31738.31836L19.53027,45.84814A1.00174,1.00174,0,0,1,19,46Zm9.1875-13.813-6.043,9.668,9.668-6.042,6.043-9.668Z" style="fill:#6d6daa"/><path d="M30,18a1.39038,1.39038,0,0,1-.2002-.02.649.649,0,0,1-.17969-.06006.762.762,0,0,1-.18066-.09033C29.38965,17.79,29.33984,17.75,29.29,17.71a1.01394,1.01394,0,0,1,0-1.41992l.14941-.12012a.762.762,0,0,1,.18066-.09033A.6318.6318,0,0,1,29.7998,16.02a1.0093,1.0093,0,0,1,.91016.27A1,1,0,0,1,30,18Z" style="fill:#6d6daa;opacity:0.5"/><path d="M30,13A20.98768,20.98768,0,0,0,19.48291,52.15723l20.361-36.70258A20.89643,20.89643,0,0,0,30,13Z" style="fill:#fff;opacity:0.5"/><path d="M30,52a1.39038,1.39038,0,0,1-.2002-.02.649.649,0,0,1-.17969-.06006.762.762,0,0,1-.18066-.09033C29.38965,51.79,29.33984,51.75,29.29,51.71A1.01394,1.01394,0,1,1,30,52Z" style="fill:#6d6daa;opacity:0.5"/><path d="M47,35a1.39038,1.39038,0,0,1-.2002-.02.649.649,0,0,1-.17969-.06006.762.762,0,0,1-.18066-.09033C46.38965,34.79,46.33984,34.75,46.29,34.71a1.03424,1.03424,0,0,1-.21-.33008A.99953.99953,0,0,1,46,34a1.04778,1.04778,0,0,1,.29-.71,1.5335,1.5335,0,0,1,.14941-.12012.762.762,0,0,1,.18066-.09033A.6318.6318,0,0,1,46.7998,33.02.99333.99333,0,0,1,48,34a.99953.99953,0,0,1-.08008.37988,1.03424,1.03424,0,0,1-.21.33008A1.05423,1.05423,0,0,1,47,35Z" style="fill:#6d6daa;opacity:0.5"/><path d="M13,35a.99042.99042,0,0,1-1-1,1,1,0,0,1,.08008-.38037,1.15153,1.15153,0,0,1,.21-.32959,1.04668,1.04668,0,0,1,1.41992,0,1.15153,1.15153,0,0,1,.21.32959A.8451.8451,0,0,1,14,34a.99042.99042,0,0,1-1,1Z" style="fill:#6d6daa;opacity:0.5"/><path d="M30,60A26,26,0,1,1,56,34,26.02916,26.02916,0,0,1,30,60Zm0-50A24,24,0,1,0,54,34,24.0275,24.0275,0,0,0,30,10Z" style="fill:#6d6daa"/><path d="M30,56A22,22,0,1,1,52,34,22.02489,22.02489,0,0,1,30,56Zm0-42A20,20,0,1,0,50,34,20.0226,20.0226,0,0,0,30,14Z" style="fill:#6d6daa"/><path d="M30,8a4,4,0,1,1,4-4A4.00427,4.00427,0,0,1,30,8Zm0-6a2,2,0,1,0,2,2A2.00229,2.00229,0,0,0,30,2Z" style="fill:#6d6daa"/><path d="M30,10a.99974.99974,0,0,1-1-1V7a1,1,0,0,1,2,0V9A.99974.99974,0,0,1,30,10Z" style="fill:#6d6daa"/></svg>