<svg id="Human_1" data-name="Human 1" xmlns="http://www.w3.org/2000/svg" width="60" height="60" viewBox="0 0 60 60"><title>a_040</title><path d="M53.15,51.94a2.27794,2.27794,0,0,1-1.04,3.96A113.05744,113.05744,0,0,1,30,58,109.64467,109.64467,0,0,1,8.02,55.93a2.27563,2.27563,0,0,1-1-3.97c2.91-2.45,7.08-4.43,12.87-5.42a.83309.83309,0,0,0,.15-.04h.32c.42,1.52,4.35,4.9,9.71,4.9,5.37,0,8.99-3.28,9.72-4.9l.03-.06a.86254.86254,0,0,0,.28.1C46.07,47.43,50.27,49.45,53.15,51.94Z" style="fill:#89dbba"/><path d="M7.02,54.96c2.91-2.45,5.66423-4.43,11.97-5.42a.97692.97692,0,0,0,.16332-.04h.34851c.45746,1.52,4.73748,4.9,10.57487,4.9,5.84829,0,9.79071-3.28,10.5857-4.9l.0327-.06a.99587.99587,0,0,0,.3049.1c6.50177.89,9.27,2.91,12.15,5.4a2.223,2.223,0,0,1,.20349.23352A2.26237,2.26237,0,0,0,53.15,51.93994c-2.88-2.49-7.08-4.51-13.05-5.4a.86289.86289,0,0,1-.28-.1l-.03.06c-.73,1.62-4.35,4.9-9.72,4.9-5.36,0-9.29-3.38-9.71-4.9h-.32a.83182.83182,0,0,1-.15.04c-5.79.99-9.96,2.97-12.87,5.42a2.27579,2.27579,0,0,0-.22583,3.25519A2.24512,2.24512,0,0,1,7.02,54.96Z" style="fill:#fff;opacity:0.5"/><path d="M39.82,46.44l-.03.06c-.73,1.62-4.35,4.9-9.72,4.9-5.36,0-9.29-3.38-9.71-4.9h-.32c.96-.37,2.17-2.72,1.38-5.36,3.47,3.14,5.94,4.5,7.24,4.5a3.82518,3.82518,0,0,1,1.5-.33,4.36171,4.36171,0,0,1,1.58.33,19.37646,19.37646,0,0,0,6.82-4.5C37.9,43.73,38.9,45.94,39.82,46.44Z" style="fill:#efdcd2"/><g style="opacity:0.200000002980232"><path d="M21.53259,44.09833C24.94147,47.16357,27.37457,48.5,28.66,48.5a3.82535,3.82535,0,0,1,1.5-.33,4.36149,4.36149,0,0,1,1.58.33,19.35649,19.35649,0,0,0,6.74371-4.42462A6.5183,6.5183,0,0,1,38.56,41.14a19.37725,19.37725,0,0,1-6.82,4.5,4.36149,4.36149,0,0,0-1.58-.33,3.82535,3.82535,0,0,0-1.5.33c-1.3,0-3.77-1.36-7.24-4.5A5.88031,5.88031,0,0,1,21.53259,44.09833Z" style="fill:#750000"/></g><path d="M37.06,7.41c4.82,1.71,8.36,5.96,7.69,11.84a7.52282,7.52282,0,0,1-.65,2.47l-.02-.01a2.21508,2.21508,0,0,0-3.04-2.25c-5.04,1.79-9.27-3-15.6,1.79A4.99551,4.99551,0,0,1,26.56,15c-2.86.33-4.23,2.08-6.48,3.21-2.3,1.15-3.72,1.23-3.67,3.1l-.05.03c-.38-.55-.7-.78-.82-1.3-1.54-6.37,2.13-10,7.26-12.31.98-.44.24-6.34,1.32-5.29C27.11,5.34,35.13,6.72,37.06,7.41Z" style="fill:#ffd599"/><g style="opacity:0.5"><path d="M22.8,11.01c.98-.44.24-6.34,1.32-5.29,2.99,2.9,11.01,4.28,12.94,4.97a11.11027,11.11027,0,0,1,7.65247,8.80646c.01172-.08563.02716-.15552.03754-.24652.67-5.88-2.87-10.13-7.69-11.84-1.93-.69-9.95-2.06995-12.94-4.97-1.08-1.05-.34,4.85-1.32,5.29-4.8269,2.17352-8.35809,5.51733-7.47607,11.21094C15.98151,15.17859,18.98474,12.728,22.8,11.01Z" style="fill:#fff"/></g><path d="M44.08,21.71l.02.01a4.33157,4.33157,0,0,0-.39.95s-.71-.5-.83.14c.49.5,1.47,1.24,1.47,2.38,0,1.73-.43,5.14-2.4,6.21-.18,3.8-3.39,9.74-3.39,9.74a19.37646,19.37646,0,0,1-6.82,4.5,4.36171,4.36171,0,0,0-1.58-.33,3.82518,3.82518,0,0,0-1.5.33c-1.3,0-3.77-1.36-7.24-4.5,0,0-3.2-5.94-3.37-9.74-1.97-.98-2.41-4.48-2.41-6.21,0-1.14.98-1.88,1.47-2.38a6.29034,6.29034,0,0,0-.75-1.47l.05-.03c-.05-1.87,1.37-1.95,3.67-3.1,2.25-1.13,3.62-2.88,6.48-3.21a4.99551,4.99551,0,0,0-1.12,6.25c6.33-4.79,10.56,0,15.6-1.79A2.21508,2.21508,0,0,1,44.08,21.71Z" style="fill:#f9e2dc"/><g style="opacity:0.2"><path d="M38.56,38.14a19.37725,19.37725,0,0,1-6.82,4.5,4.36149,4.36149,0,0,0-1.58-.33,3.82535,3.82535,0,0,0-1.5.33c-1.3,0-3.77-1.36-7.24-4.5A56.00265,56.00265,0,0,1,18.05,31.4c.17,3.8,3.37,9.74,3.37,9.74,3.47,3.14,5.94,4.5,7.24,4.5a3.82535,3.82535,0,0,1,1.5-.33,4.36149,4.36149,0,0,1,1.58.33,19.37725,19.37725,0,0,0,6.82-4.5s3.21-5.94,3.39-9.74A55.00523,55.00523,0,0,1,38.56,38.14Z" style="fill:#750000"/></g><g style="opacity:0.2"><path d="M44.06683,24.17017c.00122.07721.01849.14331.01318.22479l.02.00995c.01306-.02777.02661-.06409.03986-.0932C44.11694,24.26355,44.09253,24.21649,44.06683,24.17017Z" style="fill:#750000"/><path d="M41.04,19.46c-5.04,1.79-9.27-3-15.6,1.79a4.51307,4.51307,0,0,1-.45721-1.14941A5.24728,5.24728,0,0,0,25.44,23.93494c6.33-4.79,10.56,0,15.6-1.79a2.43716,2.43716,0,0,1,2.23608.34808,1.17793,1.17793,0,0,1,.434.17688,4.33165,4.33165,0,0,1,.39-.95L44.08,21.71A2.21509,2.21509,0,0,0,41.04,19.46Z" style="fill:#750000"/><path d="M16.17676,23.7807c.06.07751.11914.15149.18323.24426l.05-.03a2.66625,2.66625,0,0,1,.04218-.53589C16.3576,23.55988,16.265,23.66687,16.17676,23.7807Z" style="fill:#750000"/><path d="M24.85205,18.10254A4.61012,4.61012,0,0,1,26.56,14.99994c-2.86.33-4.23,2.08-6.48,3.21-2.3,1.15-3.72,1.23-3.67,3.1l-.05.03a6.06495,6.06495,0,0,1,.61292,1.13269A16.64178,16.64178,0,0,1,20.08,20.895C21.82867,20.01672,23.054,18.77209,24.85205,18.10254Z" style="fill:#750000"/></g><path d="M30,59A110.282,110.282,0,0,1,7.81836,56.91309,3.27582,3.27582,0,0,1,6.375,51.19824c3.32617-2.80127,7.81641-4.70166,13.34766-5.64844.40039-.18652,1.38281-1.96973.7373-4.12744a1,1,0,1,1,1.916-.57324,6.661,6.661,0,0,1-.5791,5.29492,2.73239,2.73239,0,0,1-1.7373,1.37744c-5.1748.88574-9.3457,2.63721-12.39551,5.20605a1.27634,1.27634,0,0,0,.56055,2.22754A108.304,108.304,0,0,0,30,57a111.209,111.209,0,0,0,21.915-2.0835,1.27818,1.27818,0,0,0,.585-2.22119c-3.06348-2.6416-7.28516-4.38135-12.54883-5.1709a2.51442,2.51442,0,0,1-1.64941-1.21777,6.93019,6.93019,0,0,1-.708-5.41748.99964.99964,0,1,1,1.9375.49316c-.57129,2.24365.34668,3.98291.76855,4.17773,5.59082.833,10.15234,2.72852,13.50684,5.62061a3.27821,3.27821,0,0,1-1.49316,5.6958A113.24935,113.24935,0,0,1,30,59Z" style="fill:#6d6daa"/><path d="M25.07422,28.2002H24.875a1,1,0,0,1,0-2h.19922a1,1,0,0,1,0,2Z" style="fill:#6d6daa"/><path d="M35.08008,28.2002h-.19922a1,1,0,0,1,0-2h.19922a1,1,0,0,1,0,2Z" style="fill:#6d6daa"/><path d="M27.375,27H22.501a1,1,0,1,1,0-2h4.874a1,1,0,0,1,0,2Z" style="fill:#6d6daa"/><path d="M37.52637,27h-4.875a1,1,0,0,1,0-2h4.875a1,1,0,0,1,0,2Z" style="fill:#6d6daa"/><path d="M31.73828,46.64355a1.19,1.19,0,0,1-.46289-.103,2.96989,2.96989,0,0,0-1.11523-.22754,2.49288,2.49288,0,0,0-1.01367.21729,1.17366,1.17366,0,0,1-.48242.11328c-2.18848,0-5.51367-2.5918-7.917-4.76611a1.00657,1.00657,0,0,1-.21-.26758c-.12891-.23975-3.03027-5.66846-3.44824-9.624-2.32031-1.6958-2.44531-5.91748-2.44531-6.79639a3.69819,3.69819,0,0,1,1.28125-2.61816,4.9064,4.9064,0,0,0-.66992-1.03516,3.056,3.056,0,0,1-.68555-1.26025C13.14648,14.39014,15.707,9.89648,22.18262,6.9165a13.49234,13.49234,0,0,0,.22852-2.25781c.09277-1.8125.14844-2.90625,1.05273-3.2627a1.22949,1.22949,0,0,1,1.34961.32568C26.917,3.75879,32.04785,5.061,35.11328,5.83936c1.001.25391,1.791.4541,2.28418.62939,5.72656,2.03369,9.00293,7.09473,8.3457,12.89355a8.51,8.51,0,0,1-.88184,3.0918,2.61588,2.61588,0,0,0-.16895.39063.99613.99613,0,0,1-.10645.30029,3.2677,3.2677,0,0,1,.76367,2.04443c0,.86279-.124,5.02393-2.44434,6.78125-.41309,3.958-3.333,9.40088-3.46289,9.64063a1.03335,1.03335,0,0,1-.16113.22021C36.73145,44.46484,32.71289,46.64355,31.73828,46.64355Zm-.12891-1.98828Zm-9.38965-4.14307c3.8916,3.49658,5.71387,4.0415,6.28711,4.11914a4.47021,4.47021,0,0,1,1.65332-.31836,4.87449,4.87449,0,0,1,1.62793.28369,20.65165,20.65165,0,0,0,5.958-4.05664c.44434-.84668,3.0498-5.94287,3.20117-9.18359a1.00057,1.00057,0,0,1,.52148-.832c1.292-.70166,1.88086-3.25732,1.88086-5.335,0-.54785-.49316-1.01514-.92871-1.42773-.09082-.08643-.17578-.167-.251-.24268a1.00124,1.00124,0,0,1-.27344-.88623,1.36579,1.36579,0,0,1,.8125-1.05322,1.32229,1.32229,0,0,1,.39941-.09326,6.65893,6.65893,0,0,0,.64844-2.34863c.66406-5.87451-3.19531-9.42285-7.0293-10.78418-.40527-.144-1.19336-.34424-2.10645-.57568-2.8623-.72656-7.418-1.8833-10.16895-3.78516-.01758.26563-.03125.5376-.043.76758-.09766,1.91357-.1748,3.4248-1.20117,3.88672-5.78027,2.59863-7.90723,6.14453-6.69434,11.15967.03223.1333.08594.20947.30176.479a7.13783,7.13783,0,0,1,1.23438,2.17822,1.00017,1.00017,0,0,1-.22656,1.05518c-.0752.07568-.16016.15625-.251.24268-.43555.4126-.92871.87988-.92871,1.42773,0,1.76465.49316,4.63721,1.85254,5.32031a1.00014,1.00014,0,0,1,.5498.84668C19.19629,34.56787,21.73633,39.585,22.21973,40.51221Z" style="fill:#6d6daa"/><path d="M44.084,22.708c-.02148,0-.042-.00049-.06348-.002a1.00057,1.00057,0,0,1-.93555-1.06055,1.15119,1.15119,0,0,0-.40918-1.06152,1.45807,1.45807,0,0,0-1.2998-.18359,11.80924,11.80924,0,0,1-6.4082.05811c-2.82812-.5166-5.498-1.00391-8.92578,1.58887a1.00081,1.00081,0,0,1-1.46777-.29346,6.304,6.304,0,0,1-.47168-4.89014c-.4707.26807-.92383.57813-1.40234.90527a18.33415,18.33415,0,0,1-2.16992,1.3335c-.52637.26318-1.00781.47217-1.4375.65918-1.56152.67725-1.70312.80615-1.68652,1.52832a1.00052,1.00052,0,0,1-.97754,1.022l-.02246.00049a1.00086,1.00086,0,0,1-1-.97754c-.04785-2.13281,1.37891-2.75244,2.88965-3.40771.40137-.17432.84961-.36865,1.33984-.61377a16.37543,16.37543,0,0,0,1.93555-1.1958,10.19809,10.19809,0,0,1,4.87793-2.11133,1.00009,1.00009,0,0,1,.74023,1.77344,3.90105,3.90105,0,0,0-1.27637,3.9292c3.64746-2.27,6.69531-1.71387,9.41406-1.21777a10.12337,10.12337,0,0,0,5.37988.02441,3.47209,3.47209,0,0,1,3.17285.47168,3.11518,3.11518,0,0,1,1.20117,2.7832A1.00034,1.00034,0,0,1,44.084,22.708Z" style="fill:#6d6daa"/><path d="M30.07227,52.39795c-5.8916,0-10.14453-3.71875-10.67773-5.62939a.99977.99977,0,1,1,1.92578-.53809c.2998,1.07129,3.77344,4.16748,8.752,4.16748,5.1709,0,8.30469-3.20508,8.80371-4.30957a.9996.9996,0,1,1,1.82227.82227C39.92383,48.62988,36.1709,52.39795,30.07227,52.39795Z" style="fill:#6d6daa"/><path d="M30,39.30029a6.35377,6.35377,0,0,1-2.40039-.38379,1.00015,1.00015,0,0,1,.80078-1.833h0A4.83422,4.83422,0,0,0,30,37.30029a4.78512,4.78512,0,0,0,1.61328-.22217,1.00757,1.00757,0,0,1,1.30176.5376.99336.99336,0,0,1-.51465,1.30078A6.35377,6.35377,0,0,1,30,39.30029Z" style="fill:#6d6daa"/></svg>