<svg id="Finance_1" data-name="Finance 1" xmlns="http://www.w3.org/2000/svg" width="60" height="60" viewBox="0 0 60 60"><title>a_046</title><rect x="1" y="8" width="58" height="32" style="fill:#89dbba"/><path d="M55,32V16a4,4,0,0,1-4-4H9a4,4,0,0,1-4,4V32a3.99992,3.99992,0,0,1,4,4H51A3.99992,3.99992,0,0,1,55,32Z" style="fill:#b1f1a8"/><rect x="1" y="24" width="58" height="16" style="fill:#2c4b75;opacity:0.2"/><ellipse cx="30" cy="24" rx="9" ry="12" style="fill:#89dbba"/><path d="M36.53339,32.2367a8.42893,8.42893,0,0,0-3.8599-2.0809.51342.51342,0,0,1-.43049-.5259c.01209-.2826.012-.5824.01069-.8945,0-.716.8617-1.5787.9087-2.5842a4.04908,4.04908,0,0,0,.45061-1.6445.84548.84548,0,0,0-.20361-.6284c.0702-.3743.1302-.7703.20361-1.178a2.65768,2.65768,0,0,0-1.71651-3.3315c-.5192-.1844-2.6743-.5576-3.4772-1.3354-.2906-.2815-.0915,1.3039-.3547,1.4223A2.62871,2.62871,0,0,0,26.387,22.7003c.07339.4077.13339.8037.20359,1.178a.84548.84548,0,0,0-.20359.6284,4.049,4.049,0,0,0,.45059,1.6445c.047,1.0055.9087,1.818.9087,2.5842-.00129.3121-.0014.6119.01071.8945a.51344.51344,0,0,1-.43051.5259,8.42893,8.42893,0,0,0-3.8599,2.0809A8.1247,8.1247,0,0,0,30,36,8.1247,8.1247,0,0,0,36.53339,32.2367Z" style="fill:#b1f1a8"/><path d="M59,41H49a1,1,0,0,1,0-2h9V9H2V39H13.10352a1,1,0,0,1,0,2H1a.99974.99974,0,0,1-1-1V8A.99974.99974,0,0,1,1,7H59a.99974.99974,0,0,1,1,1V40A.99974.99974,0,0,1,59,41Z" style="fill:#6d6daa"/><path d="M51,37H49a1,1,0,0,1,0-2h1.10059A5.01487,5.01487,0,0,1,54,31.10059V16.89941A5.01487,5.01487,0,0,1,50.10059,13H9.89941A5.01487,5.01487,0,0,1,6,16.89941V31.10059A5.01487,5.01487,0,0,1,9.89941,35h6.10742a1,1,0,1,1,0,2H9a.99974.99974,0,0,1-1-1,3.00328,3.00328,0,0,0-3-3,.99974.99974,0,0,1-1-1V16a.99974.99974,0,0,1,1-1,3.00328,3.00328,0,0,0,3-3,.99974.99974,0,0,1,1-1H51a.99974.99974,0,0,1,1,1,3.00328,3.00328,0,0,0,3,3,.99974.99974,0,0,1,1,1V32a.99974.99974,0,0,1-1,1,3.00328,3.00328,0,0,0-3,3A.99974.99974,0,0,1,51,37Z" style="fill:#6d6daa"/><path d="M25.0791,35.04053a.99547.99547,0,0,1-.65723-.24658A14.36966,14.36966,0,0,1,20,24c0-7.16846,4.48633-13,10-13s10,5.83154,10,13a16.56948,16.56948,0,0,1-.56055,4.271.99964.99964,0,1,1-1.93164-.51562A14.6101,14.6101,0,0,0,38,24c0-6.06543-3.58887-11-8-11s-8,4.93457-8,11a12.3564,12.3564,0,0,0,3.73633,9.28711,1,1,0,0,1-.65723,1.75342Z" style="fill:#6d6daa"/><circle cx="47" cy="24" r="2" style="fill:#89dbba"/><path d="M47,27a3,3,0,1,1,3-3A3.00328,3.00328,0,0,1,47,27Zm0-4a1,1,0,1,0,1,1A1.001,1.001,0,0,0,47,23Z" style="fill:#6d6daa"/><path d="M31,51v4c0,1.6569,3.134,3,7,3s7-1.3431,7-3V51" style="fill:#ffc661"/><path d="M31,47v4c0,1.6569,3.134,3,7,3s7-1.3431,7-3V47" style="fill:#fff27d"/><path d="M38,50c-3.866,0-7-1.34314-7-3v4c0,1.4184,2.29938,2.60388,5.38593,2.91663h1.78076V49.9964C38.11072,49.99695,38.05627,50,38,50Z" style="fill:#fff;opacity:0.5"/><path d="M38,54c-3.866,0-7-1.34314-7-3v4c0,1.4184,2.29938,2.60388,5.38593,2.91663h1.78076V53.9964C38.11072,53.99695,38.05627,54,38,54Z" style="fill:#fff27d"/><path d="M31,43v4c0,1.6569,3.134,3,7,3s7-1.3431,7-3V43" style="fill:#ffc661"/><path d="M31,39v4c0,1.6569,3.134,3,7,3s7-1.3431,7-3V39" style="fill:#fff27d"/><path d="M17,49v4c0,1.6569,3.134,3,7,3s7-1.3431,7-3V49" style="fill:#ffc661"/><path d="M24,52c-3.866,0-7-1.34314-7-3v4c0,1.4184,2.29938,2.60388,5.38593,2.91663h1.78076V51.9964C24.11072,51.99695,24.05627,52,24,52Z" style="fill:#fff27d"/><path d="M17,45v4c0,1.6569,3.134,3,7,3s7-1.3431,7-3V45" style="fill:#fff27d"/><path d="M31,35v4c0,1.6569,3.134,3,7,3s7-1.3431,7-3V35" style="fill:#ffc661"/><path d="M38,46c-3.866,0-7-1.34314-7-3v4c0,1.4184,2.29938,2.60388,5.38593,2.91663h1.78076V45.9964C38.11072,45.99695,38.05627,46,38,46Z" style="fill:#fff27d"/><path d="M38,38c-3.866,0-7-1.34314-7-3v4c0,1.4184,2.29938,2.60388,5.38593,2.91663h1.78076V37.9964C38.11072,37.99695,38.05627,38,38,38Z" style="fill:#fff27d"/><path d="M38,42c-3.866,0-7-1.34314-7-3v4c0,1.4184,2.29938,2.60388,5.38593,2.91663h1.78076V41.9964C38.11072,41.99695,38.05627,42,38,42Z" style="fill:#fff;opacity:0.5"/><path d="M17,41v4c0,1.6569,3.134,3,7,3s7-1.3431,7-3V41" style="fill:#ffc661"/><path d="M24,44c-3.866,0-7-1.34314-7-3v4c0,1.4184,2.29938,2.60388,5.38593,2.91663h1.78076V43.9964C24.11072,43.99695,24.05627,44,24,44Z" style="fill:#fff27d"/><path d="M24,48c-3.866,0-7-1.34314-7-3v4c0,1.4184,2.29938,2.60388,5.38593,2.91663h1.78076V47.9964C24.11072,47.99695,24.05627,48,24,48Z" style="fill:#fff;opacity:0.5"/><path d="M24,57c-3.97559,0-8-1.374-8-4V49a1,1,0,0,1,2,0v4c0,.70508,2.27832,2,6,2s6-1.29492,6-2V49a1,1,0,0,1,2,0v4C32,55.626,27.97559,57,24,57Z" style="fill:#6d6daa"/><path d="M24,53c-3.97559,0-8-1.374-8-4V45a1,1,0,0,1,2,0v4c0,.70508,2.27832,2,6,2s6-1.29492,6-2V45a1,1,0,0,1,2,0v4C32,51.626,27.97559,53,24,53Z" style="fill:#6d6daa"/><path d="M24,49c-3.97559,0-8-1.374-8-4V41a1,1,0,0,1,2,0v4c0,.70508,2.27832,2,6,2s6-1.29492,6-2V41a1,1,0,0,1,2,0v4C32,47.626,27.97559,49,24,49Z" style="fill:#6d6daa"/><ellipse cx="24" cy="41" rx="7" ry="3" style="fill:#fff27d"/><path d="M24,45c-3.97559,0-8-1.374-8-4s4.02441-4,8-4,8,1.374,8,4S27.97559,45,24,45Zm0-6c-3.72168,0-6,1.29492-6,2s2.27832,2,6,2,6-1.29492,6-2S27.72168,39,24,39Z" style="fill:#6d6daa"/><ellipse cx="38" cy="35" rx="7" ry="3" style="fill:#fff27d"/><path d="M38,39c-3.97559,0-8-1.374-8-4s4.02441-4,8-4,8,1.374,8,4S41.97559,39,38,39Zm0-6c-3.72168,0-6,1.29492-6,2s2.27832,2,6,2,6-1.29492,6-2S41.72168,33,38,33Z" style="fill:#6d6daa"/><path d="M45,47v4c0,1.6569,3.134,3,7,3s7-1.3431,7-3V47" style="fill:#ffc661"/><path d="M52,50c-3.866,0-7-1.34314-7-3v4c0,1.4184,2.29938,2.60388,5.38593,2.91663h1.78076V49.9964C52.11072,49.99695,52.05627,50,52,50Z" style="fill:#fff27d"/><path d="M38,59c-3.97559,0-8-1.374-8-4V51a1,1,0,0,1,2,0v4c0,.70508,2.27832,2,6,2s6-1.29492,6-2V51a1,1,0,0,1,2,0v4C46,57.626,41.97559,59,38,59Z" style="fill:#6d6daa"/><path d="M38,55c-3.97559,0-8-1.374-8-4V47a1,1,0,0,1,2,0v4c0,.70508,2.27832,2,6,2s6-1.29492,6-2V47a1,1,0,0,1,2,0v4C46,53.626,41.97559,55,38,55Z" style="fill:#6d6daa"/><path d="M38,51c-3.97559,0-8-1.374-8-4V43a1,1,0,0,1,2,0v4c0,.70508,2.27832,2,6,2s6-1.29492,6-2V43a1,1,0,0,1,2,0v4C46,49.626,41.97559,51,38,51Z" style="fill:#6d6daa"/><path d="M38,47c-3.97559,0-8-1.374-8-4V39a1,1,0,0,1,2,0v4c0,.70508,2.27832,2,6,2s6-1.29492,6-2V39a1,1,0,0,1,2,0v4C46,45.626,41.97559,47,38,47Z" style="fill:#6d6daa"/><path d="M38,43c-3.97559,0-8-1.374-8-4V35a1,1,0,0,1,2,0v4c0,.70508,2.27832,2,6,2s6-1.29492,6-2V35a1,1,0,0,1,2,0v4C46,41.626,41.97559,43,38,43Z" style="fill:#6d6daa"/><path d="M52,55c-3.97559,0-8-1.374-8-4V47a1,1,0,0,1,2,0v4c0,.70508,2.27832,2,6,2s6-1.29492,6-2V47a1,1,0,0,1,2,0v4C60,53.626,55.97559,55,52,55Z" style="fill:#6d6daa"/><ellipse cx="52" cy="47" rx="7" ry="3" style="fill:#fff27d"/><path d="M52,51c-3.97559,0-8-1.374-8-4s4.02441-4,8-4,8,1.374,8,4S55.97559,51,52,51Zm0-6c-3.72168,0-6,1.29492-6,2s2.27832,2,6,2,6-1.29492,6-2S55.72168,45,52,45Z" style="fill:#6d6daa"/><circle cx="13" cy="24" r="2" style="fill:#89dbba"/><path d="M13,27a3,3,0,1,1,3-3A3.00328,3.00328,0,0,1,13,27Zm0-4a1,1,0,1,0,1,1A1.001,1.001,0,0,0,13,23Z" style="fill:#6d6daa"/><path d="M25.10156,35.041a.99746.99746,0,0,1-.65723-.24609,11.27191,11.27191,0,0,1-1.793-1.98.99954.99954,0,0,1,.16113-1.33447,9.71748,9.71748,0,0,1,3.93457-2.22412c-.002-.1709-.002-.3457-.001-.52393a2.75386,2.75386,0,0,0-.29395-.68018,4.76329,4.76329,0,0,1-.59473-1.63818,4.84457,4.84457,0,0,1-.4707-1.90723,2.10589,2.10589,0,0,1,.15332-.82422c-.01562-.09229-.03125-.186-.04687-.28027l-.09082-.52539a3.56883,3.56883,0,0,1,1.82129-4.11768c.002-.05518.00391-.1123.00684-.16846.02832-.55713.06445-1.25049.74512-1.51855a1.141,1.141,0,0,1,1.13965.24316,7.34979,7.34979,0,0,0,2.43945.92285c.29785.07568.53711.13867.67578.188a3.631,3.631,0,0,1,2.36719,4.45117l-.09082.5249c-.01562.09424-.03125.188-.04687.28027a2.10589,2.10589,0,0,1,.15332.82422,4.84049,4.84049,0,0,1-.4707,1.90674,4.92815,4.92815,0,0,1-.60352,1.6748,3.12323,3.12323,0,0,0-.28516.65137l-.001.10156a1.04363,1.04363,0,0,1-1.00879,1.02734.964.964,0,0,1-.99219-.95605l.001-.105a3.46127,3.46127,0,0,1,.50781-1.63525,2.99485,2.99485,0,0,0,.40234-1.06738,1.01116,1.01116,0,0,1,.09863-.38818,3.14129,3.14129,0,0,0,.35156-1.21c0-.01123.001-.01709.00391-.01807a.99663.99663,0,0,1-.19043-.79492c.03711-.20166.07227-.40967.1084-.62256l.09375-.54785c.27539-1.52734-.42578-1.98486-1.06738-2.2124-.10156-.03613-.27832-.07861-.499-.13428a15.876,15.876,0,0,1-1.94531-.59326,1.13586,1.13586,0,0,1-.64355.78467,1.66129,1.66129,0,0,0-1.10254,2.15527l.09375.54785c.03613.21289.07129.4209.1084.62256a1.00025,1.00025,0,0,1-.18164.78418,3.10269,3.10269,0,0,0,.34668,1.23877,1.01116,1.01116,0,0,1,.09863.38818,2.77552,2.77552,0,0,0,.38867,1.022,3.493,3.493,0,0,1,.52051,1.6084c-.001.2998-.001.58447.00977.853A1.51813,1.51813,0,0,1,27.5,31.14063a6.43241,6.43241,0,0,0-2.6377,1.25244,9.39084,9.39084,0,0,0,.89648.894,1.00021,1.00021,0,0,1-.65723,1.75391Zm1.65625-5.37012v0Zm5.94238-5.0874.001.00049Zm-5.0459-6.04-.00293.00146Z" style="fill:#6d6daa"/></svg>