<svg id="Finance_1" data-name="Finance 1" xmlns="http://www.w3.org/2000/svg" width="60" height="60" viewBox="0 0 60 60"><title>a_026</title><path d="M24,18H16V16a2,2,0,0,1,2-2h4a2,2,0,0,1,2,2Z" style="fill:#ff9797"/><path d="M24,19H16a.99974.99974,0,0,1-1-1V16a3.00328,3.00328,0,0,1,3-3h4a3.00328,3.00328,0,0,1,3,3v2A.99974.99974,0,0,1,24,19Zm-7-2h6V16a1.001,1.001,0,0,0-1-1H18a1.001,1.001,0,0,0-1,1Z" style="fill:#6d6daa"/><path d="M50,18H42V14a2,2,0,0,1,2-2h4a2,2,0,0,1,2,2Z" style="fill:#b1f1a8"/><path d="M50,19H42a.99974.99974,0,0,1-1-1V14a3.00328,3.00328,0,0,1,3-3h4a3.00328,3.00328,0,0,1,3,3v4A.99974.99974,0,0,1,50,19Zm-7-2h6V14a1.001,1.001,0,0,0-1-1H44a1.001,1.001,0,0,0-1,1Z" style="fill:#6d6daa"/><path d="M42,10a2,2,0,0,0-2-2H26a2,2,0,0,0-2,2v8H42Z" style="fill:#97c1ff"/><path d="M42,19H24a.99974.99974,0,0,1-1-1V10a3.00328,3.00328,0,0,1,3-3H40a3.00328,3.00328,0,0,1,3,3v8A.99974.99974,0,0,1,42,19ZM25,17H41V10a1.001,1.001,0,0,0-1-1H26a1.001,1.001,0,0,0-1,1Z" style="fill:#6d6daa"/><path d="M48.61149,42H14L10,18H56L52.55709,38.6576A4.00015,4.00015,0,0,1,48.61149,42Z" style="fill:#ced8ee"/><path d="M49.17712,39H13.5l.5,3H48.61151a4.00011,4.00011,0,0,0,3.94556-3.34241l.311-1.866A4.15155,4.15155,0,0,1,49.17712,39Z" style="fill:#2c4b75;opacity:0.2"/><polygon points="55.333 22 56 18 10 18 10.667 22 55.333 22" style="fill:#fff;opacity:0.5"/><path d="M48.61133,43H14a.99948.99948,0,0,1-.98633-.83545l-4-24A1.00027,1.00027,0,0,1,10,17H56a1.00027,1.00027,0,0,1,.98633,1.16455L53.543,38.82227A4.9842,4.9842,0,0,1,48.61133,43ZM14.84668,41H48.61133a2.99034,2.99034,0,0,0,2.959-2.50684L54.81934,19H11.18066Z" style="fill:#6d6daa"/><path d="M51,49H14.82813a3.82832,3.82832,0,0,1-2.707-6.53516L13.293,41.293A.99989.99989,0,0,1,14.707,42.707l-1.17187,1.17139A1.82888,1.82888,0,0,0,14.82813,47H51a1,1,0,0,1,0,2Z" style="fill:#6d6daa"/><path d="M9.999,19a.99923.99923,0,0,1-.96875-.75732L7.40918,11.75781A.99965.99965,0,0,0,6.43848,11H2A1,1,0,0,1,2,9H6.43848a2.99525,2.99525,0,0,1,2.91016,2.27246l1.62109,6.48486A.99972.99972,0,0,1,9.999,19Z" style="fill:#6d6daa"/><path d="M47,25H43a1,1,0,0,1,0-2h4a1,1,0,0,1,0,2Z" style="fill:#fff"/><path d="M39,25H35a1,1,0,0,1,0-2h4a1,1,0,0,1,0,2Z" style="fill:#fff"/><path d="M31,25H27a1,1,0,0,1,0-2h4a1,1,0,0,1,0,2Z" style="fill:#fff"/><path d="M23,25H19a1,1,0,0,1,0-2h4a1,1,0,0,1,0,2Z" style="fill:#fff"/><path d="M47,31H43a1,1,0,0,1,0-2h4a1,1,0,0,1,0,2Z" style="fill:#fff"/><path d="M39,31H35a1,1,0,0,1,0-2h4a1,1,0,0,1,0,2Z" style="fill:#fff"/><path d="M31,31H27a1,1,0,0,1,0-2h4a1,1,0,0,1,0,2Z" style="fill:#fff"/><path d="M23,31H19a1,1,0,0,1,0-2h4a1,1,0,0,1,0,2Z" style="fill:#fff"/><path d="M47,37H43a1,1,0,0,1,0-2h4a1,1,0,0,1,0,2Z" style="fill:#fff"/><path d="M39,37H35a1,1,0,0,1,0-2h4a1,1,0,0,1,0,2Z" style="fill:#fff"/><path d="M31,37H27a1,1,0,0,1,0-2h4a1,1,0,0,1,0,2Z" style="fill:#fff"/><path d="M23,37H19a1,1,0,0,1,0-2h4a1,1,0,0,1,0,2Z" style="fill:#fff"/><path d="M43,51a.99974.99974,0,0,1-1-1V48a1,1,0,0,1,2,0v2A.99974.99974,0,0,1,43,51Z" style="fill:#6d6daa"/><circle cx="43" cy="53" r="3" style="fill:#9eb2cc"/><path d="M19,51a.99974.99974,0,0,1-1-1V48a1,1,0,0,1,2,0v2A.99974.99974,0,0,1,19,51Z" style="fill:#6d6daa"/><circle cx="19" cy="53" r="3" style="fill:#9eb2cc"/><path d="M43,57a4,4,0,1,1,4-4A4.00427,4.00427,0,0,1,43,57Zm0-6a2,2,0,1,0,2,2A2.00229,2.00229,0,0,0,43,51Z" style="fill:#6d6daa"/><path d="M19,57a4,4,0,1,1,4-4A4.00427,4.00427,0,0,1,19,57Zm0-6a2,2,0,1,0,2,2A2.00229,2.00229,0,0,0,19,51Z" style="fill:#6d6daa"/></svg>