<svg id="Finance_1" data-name="Finance 1" xmlns="http://www.w3.org/2000/svg" width="60" height="60" viewBox="0 0 60 60"><title>a_028</title><path d="M48.61137,42H13.99988l-4-24h46L52.557,38.6576A4.00015,4.00015,0,0,1,48.61137,42Z" style="fill:#ced8ee"/><path d="M49.177,39H13.49988l.5,3H48.61139a4.00011,4.00011,0,0,0,3.94556-3.34241l.311-1.866A4.15155,4.15155,0,0,1,49.177,39Z" style="fill:#2c4b75;opacity:0.2"/><polygon points="55.333 22 56 18 10 18 10.667 22 55.333 22" style="fill:#fff;opacity:0.5"/><path d="M48.61133,43H14a.99948.99948,0,0,1-.98633-.83545l-4-24A1.00027,1.00027,0,0,1,10,17h8a1,1,0,0,1,0,2H11.18066l3.666,22H48.61133a2.99034,2.99034,0,0,0,2.959-2.50684L54.81934,19H50a1,1,0,0,1,0-2h6a1.00027,1.00027,0,0,1,.98633,1.16455L53.543,38.82227A4.9842,4.9842,0,0,1,48.61133,43Z" style="fill:#6d6daa"/><path d="M51,49H14.82813a3.82832,3.82832,0,0,1-2.707-6.53516L13.293,41.293A.99989.99989,0,0,1,14.707,42.707l-1.17187,1.17139A1.82888,1.82888,0,0,0,14.82813,47H51a1,1,0,0,1,0,2Z" style="fill:#6d6daa"/><path d="M9.999,19a.99923.99923,0,0,1-.96875-.75732L7.40918,11.75781A.99965.99965,0,0,0,6.43848,11H2A1,1,0,0,1,2,9H6.43848a2.99525,2.99525,0,0,1,2.91016,2.27246l1.62109,6.48486A.99972.99972,0,0,1,9.999,19Z" style="fill:#6d6daa"/><path d="M47,31H45a1,1,0,0,1,0-2h2a1,1,0,0,1,0,2Z" style="fill:#fff"/><path d="M21,31H19a1,1,0,0,1,0-2h2a1,1,0,0,1,0,2Z" style="fill:#fff"/><path d="M47,37H43a1,1,0,0,1,0-2h4a1,1,0,0,1,0,2Z" style="fill:#fff"/><path d="M39,37H35a1,1,0,0,1,0-2h4a1,1,0,0,1,0,2Z" style="fill:#fff"/><path d="M31,37H27a1,1,0,0,1,0-2h4a1,1,0,0,1,0,2Z" style="fill:#fff"/><path d="M23,37H19a1,1,0,0,1,0-2h4a1,1,0,0,1,0,2Z" style="fill:#fff"/><path d="M43,51a.99974.99974,0,0,1-1-1V48a1,1,0,0,1,2,0v2A.99974.99974,0,0,1,43,51Z" style="fill:#6d6daa"/><circle cx="42.99988" cy="53" r="3" style="fill:#9eb2cc"/><path d="M19,51a.99974.99974,0,0,1-1-1V48a1,1,0,0,1,2,0v2A.99974.99974,0,0,1,19,51Z" style="fill:#6d6daa"/><circle cx="18.99988" cy="53" r="3" style="fill:#9eb2cc"/><path d="M43,57a4,4,0,1,1,4-4A4.00427,4.00427,0,0,1,43,57Zm0-6a2,2,0,1,0,2,2A2.00229,2.00229,0,0,0,43,51Z" style="fill:#6d6daa"/><path d="M19,57a4,4,0,1,1,4-4A4.00427,4.00427,0,0,1,19,57Zm0-6a2,2,0,1,0,2,2A2.00229,2.00229,0,0,0,19,51Z" style="fill:#6d6daa"/><circle cx="33.99988" cy="18" r="12" style="fill:#99db6e"/><path d="M33.99988,9A11.99487,11.99487,0,0,1,45.89624,19.5a12.00024,12.00024,0,1,0-23.79272,0A11.99482,11.99482,0,0,1,33.99988,9Z" style="fill:#fff;opacity:0.5"/><path d="M32.667,23.5a.99993.99993,0,0,1-.69043-.27637l-3.667-3.5a1.00017,1.00017,0,0,1,1.38086-1.44727l2.82715,2.69824,5.665-8.05029a.99976.99976,0,1,1,1.63477,1.15137l-6.333,9a.99769.99769,0,0,1-.71973.41943A.93419.93419,0,0,1,32.667,23.5Z" style="fill:#fff"/><path d="M33.99988,27A11.99482,11.99482,0,0,1,22.10352,16.5a12.00024,12.00024,0,1,0,23.79272,0A11.99487,11.99487,0,0,1,33.99988,27Z" style="fill:#2c4b75;opacity:0.2"/><path d="M34,31A13,13,0,1,1,47,18,13.01474,13.01474,0,0,1,34,31ZM34,7A11,11,0,1,0,45,18,11.01245,11.01245,0,0,0,34,7Z" style="fill:#6d6daa"/></svg>