<svg id="Finance_1" data-name="Finance 1" xmlns="http://www.w3.org/2000/svg" width="60" height="60" viewBox="0 0 60 60"><title>a_025</title><path d="M48.61149,42H14L10,18H56L52.55709,38.6576A4.00015,4.00015,0,0,1,48.61149,42Z" style="fill:#ced8ee"/><path d="M49.17712,39H13.5l.5,3H48.61151a4.00011,4.00011,0,0,0,3.94556-3.34241l.311-1.866A4.15155,4.15155,0,0,1,49.17712,39Z" style="fill:#2c4b75;opacity:0.2"/><polygon points="55.333 22 56 18 10 18 10.667 22 55.333 22" style="fill:#fff;opacity:0.5"/><path d="M48.61133,43H14a.99986.99986,0,0,1-.98633-.83545l-4-24A.99959.99959,0,0,1,10,17H56a.99959.99959,0,0,1,.98633,1.16455L53.54346,38.82227A4.98464,4.98464,0,0,1,48.61133,43ZM14.84717,41H48.61133a2.99084,2.99084,0,0,0,2.95947-2.50684L54.81934,19H11.18066Z" style="fill:#6d6daa"/><path d="M51,49H14.82861a3.82832,3.82832,0,0,1-2.707-6.53564L13.293,41.293A.99989.99989,0,0,1,14.707,42.707l-1.17139,1.17139A1.82853,1.82853,0,0,0,14.82861,47H51a1,1,0,0,1,0,2Z" style="fill:#6d6daa"/><path d="M9.999,19a1.00062,1.00062,0,0,1-.96924-.75732L7.40869,11.75781A.99826.99826,0,0,0,6.43848,11H2A1,1,0,0,1,2,9H6.43848a2.99581,2.99581,0,0,1,2.91064,2.27246l1.62109,6.48486A.99973.99973,0,0,1,9.999,19Z" style="fill:#6d6daa"/><path d="M47,25H43a1,1,0,0,1,0-2h4a1,1,0,0,1,0,2Z" style="fill:#fff"/><path d="M39,25H35a1,1,0,0,1,0-2h4a1,1,0,0,1,0,2Z" style="fill:#fff"/><path d="M31,25H27a1,1,0,0,1,0-2h4a1,1,0,0,1,0,2Z" style="fill:#fff"/><path d="M23,25H19a1,1,0,0,1,0-2h4a1,1,0,0,1,0,2Z" style="fill:#fff"/><path d="M47,31H43a1,1,0,0,1,0-2h4a1,1,0,0,1,0,2Z" style="fill:#fff"/><path d="M39,31H35a1,1,0,0,1,0-2h4a1,1,0,0,1,0,2Z" style="fill:#fff"/><path d="M31,31H27a1,1,0,0,1,0-2h4a1,1,0,0,1,0,2Z" style="fill:#fff"/><path d="M23,31H19a1,1,0,0,1,0-2h4a1,1,0,0,1,0,2Z" style="fill:#fff"/><path d="M47,37H43a1,1,0,0,1,0-2h4a1,1,0,0,1,0,2Z" style="fill:#fff"/><path d="M39,37H35a1,1,0,0,1,0-2h4a1,1,0,0,1,0,2Z" style="fill:#fff"/><path d="M31,37H27a1,1,0,0,1,0-2h4a1,1,0,0,1,0,2Z" style="fill:#fff"/><path d="M23,37H19a1,1,0,0,1,0-2h4a1,1,0,0,1,0,2Z" style="fill:#fff"/><path d="M43,51a1,1,0,0,1-1-1V48a1,1,0,0,1,2,0v2A1,1,0,0,1,43,51Z" style="fill:#6d6daa"/><circle cx="43" cy="53" r="3" style="fill:#9eb2cc"/><path d="M19,51a1,1,0,0,1-1-1V48a1,1,0,0,1,2,0v2A1,1,0,0,1,19,51Z" style="fill:#6d6daa"/><circle cx="19" cy="53" r="3" style="fill:#9eb2cc"/><path d="M43,57a4,4,0,1,1,4-4A4.00458,4.00458,0,0,1,43,57Zm0-6a2,2,0,1,0,2,2A2.002,2.002,0,0,0,43,51Z" style="fill:#6d6daa"/><path d="M19,57a4,4,0,1,1,4-4A4.00458,4.00458,0,0,1,19,57Zm0-6a2,2,0,1,0,2,2A2.002,2.002,0,0,0,19,51Z" style="fill:#6d6daa"/></svg>