<svg id="Tools" xmlns="http://www.w3.org/2000/svg" width="60" height="60" viewBox="0 0 60 60"><title>023_002</title><polygon points="39.545 11.891 9.282 42.155 11.423 44.296 15.704 44.296 15.704 48.577 17.845 50.718 48.109 20.455 39.545 11.891" style="fill:#fff27d"/><polygon points="11.282 44.155 41.545 13.891 39.545 11.891 9.282 42.155 11.423 44.296 11.423 44.296 11.282 44.155" style="fill:#fff;opacity:0.75"/><polygon points="46.109 18.455 15.845 48.718 15.704 48.577 15.704 48.577 17.845 50.718 48.109 20.455 46.109 18.455" style="fill:#750000;opacity:0.2"/><path d="M17.84521,51.71826h0a1.00013,1.00013,0,0,1-.707-.293l-2.14062-2.14111a1.00013,1.00013,0,0,1-.293-.707V45.29541H11.42285a1.00013,1.00013,0,0,1-.707-.293L8.57471,42.86182a.99964.99964,0,0,1,0-1.41406L38.83789,11.18457a.99964.99964,0,0,1,1.41406,0L48.81543,19.748a.99964.99964,0,0,1,0,1.41406L18.55225,51.42529A1.00013,1.00013,0,0,1,17.84521,51.71826Zm-1.14062-3.55518,1.14063,1.14111L46.69434,20.45508l-7.14941-7.14941L10.6958,42.15479l1.14111,1.14063h3.86768a1,1,0,0,1,1,1Z" style="fill:#6d6daa"/><path d="M50.9631,17.6004,42.3996,9.03688l2.8545-2.8545a4.03685,4.03685,0,0,1,5.709,0L53.8437,9.063a4,4,0,0,1,0,5.65683Z" style="fill:#ff9797"/><path d="M53.84369,9.06293,51.84387,7.06317a3.99987,3.99987,0,0,1-.00018,5.65662L48.96307,15.6004l2,2,2.88062-2.88062A3.99994,3.99994,0,0,0,53.84369,9.06293Z" style="fill:#750000;opacity:0.2"/><path d="M44.3996,11.03687l2.85449-2.85449a4.03678,4.03678,0,0,1,5.709,0l.8808.8808-.00018-.00024L50.96307,6.18237a4.03678,4.03678,0,0,0-5.709,0L42.3996,9.03687Z" style="fill:#fff;opacity:0.5"/><polygon points="7.141 48.577 5 55 11.423 52.859 7.141 48.577" style="fill:#9eb2cc"/><polygon points="15.704 44.296 11.423 44.296 9.282 42.155 7.141 48.577 11.423 52.859 17.845 50.718 15.704 48.577 15.704 44.296" style="fill:#ffd599"/><polygon points="17.704 50.577 17.845 50.718 17.845 50.718 17.704 50.577 17.704 50.577" style="fill:#ffd599"/><polygon points="9.423 42.296 9.423 42.296 9.282 42.155 9.282 42.155 9.423 42.296" style="fill:#ffd599"/><polygon points="15.704 48.577 15.704 44.296 9.423 50.859 11.423 52.859 17.845 50.718 15.704 48.577" style="fill:#750000;opacity:0.2"/><path d="M15.70459,45.29541a1,1,0,0,1-.707-1.707L43.11963,15.46631a.99989.99989,0,0,1,1.41406,1.41406L16.41162,45.00244A.99676.99676,0,0,1,15.70459,45.29541Z" style="fill:#6d6daa"/><rect x="43.23566" y="8.69058" width="4.03688" height="12.11063" transform="translate(2.8277 36.31845) rotate(-45)" style="fill:#d4edff"/><rect x="46.5174" y="16.61344" width="4.03686" height="2.82843" transform="translate(1.46834 39.60019) rotate(-45)" style="fill:#2c4b75;opacity:0.2"/><rect x="39.95392" y="10.0499" width="4.03686" height="2.82843" transform="translate(4.18707 33.03669) rotate(-45)" style="fill:#fff;opacity:0.75"/><path d="M50.96289,18.60059a.99676.99676,0,0,1-.707-.293L41.69238,9.74414a.99964.99964,0,0,1,0-1.41406l2.85449-2.85449a5.0359,5.0359,0,0,1,7.123,0L54.55078,8.356a5.005,5.005,0,0,1,0,7.0708l-2.88086,2.88086A.99676.99676,0,0,1,50.96289,18.60059ZM43.81348,9.03711l7.14941,7.14941,2.17383-2.17383a3.00392,3.00392,0,0,0,0-4.24268L50.25586,6.88965a3.10864,3.10864,0,0,0-4.29492,0Z" style="fill:#6d6daa"/><path d="M5,56a1.00026,1.00026,0,0,1-.94873-1.31641l2.14111-6.42236a1.00017,1.00017,0,0,1,1.65576-.39062l4.28125,4.28125a1.00017,1.00017,0,0,1-.39062,1.65576L5.31641,55.94873A.9981.9981,0,0,1,5,56Zm2.57813-5.57129-.99707,2.99023,2.99023-.99707Z" style="fill:#6d6daa"/><path d="M11.42285,53.85889a.99846.99846,0,0,1-.707-.293L6.43359,49.28418a.99991.99991,0,0,1-.2417-1.02344L8.333,41.83838a1,1,0,0,1,1.65576-.39062l1.84814,1.84766h3.86768a1,1,0,0,1,1,1v3.86768l1.84766,1.84814a1,1,0,0,1-.39062,1.65576l-6.42236,2.14063A.9981.9981,0,0,1,11.42285,53.85889ZM8.28467,48.30713l3.4082,3.40771,4.30127-1.43359-.99658-.99707a1.00013,1.00013,0,0,1-.293-.707V45.29541H11.42285a1.00013,1.00013,0,0,1-.707-.293l-.99707-.99658Z" style="fill:#6d6daa"/><path d="M48.1084,21.45508a.99676.99676,0,0,1-.707-.293l-8.56348-8.56348a.99964.99964,0,0,1,0-1.41406l2.85449-2.85449a.99964.99964,0,0,1,1.41406,0l8.56348,8.56348a.99964.99964,0,0,1,0,1.41406l-2.85449,2.85449A.99676.99676,0,0,1,48.1084,21.45508ZM40.959,11.8916,48.1084,19.041l1.44043-1.44043-7.14941-7.14941Z" style="fill:#6d6daa"/><path d="M17.84521,51.71826a.99676.99676,0,0,1-.707-.293l-2.14062-2.14062a1.00013,1.00013,0,0,1-.293-.707V45.29541H11.42236a1.00013,1.00013,0,0,1-.707-.293L8.57471,42.86182a.99989.99989,0,0,1,1.41406-1.41406l1.84766,1.84766h3.86816a1,1,0,0,1,1,1v3.86816l1.84766,1.84766a1,1,0,0,1-.707,1.707Z" style="fill:#6d6daa"/></svg>