<svg id="Symbols_Arrows_1" data-name="Symbols &amp; Arrows 1" xmlns="http://www.w3.org/2000/svg" width="60" height="60" viewBox="0 0 60 60"><title>024a_001</title><circle cx="30" cy="30" r="25" style="fill:#99db6e"/><path d="M30,52A24.99832,24.99832,0,0,1,5.04877,28.5C5.01935,28.99664,5,29.496,5,30a25,25,0,0,0,50,0c0-.504-.01935-1.00336-.04877-1.5A24.99832,24.99832,0,0,1,30,52Z" style="fill:#2c4b75;opacity:0.2"/><path d="M30,8A24.99827,24.99827,0,0,1,54.95123,31.5C54.98065,31.00336,55,30.504,55,30A25,25,0,0,0,5,30c0,.504.01935,1.00336.04877,1.5A24.99827,24.99827,0,0,1,30,8Z" style="fill:#fff;opacity:0.5"/><path d="M30,56A26,26,0,1,1,56,30,26.02948,26.02948,0,0,1,30,56ZM30,6A24,24,0,1,0,54,30,24.0275,24.0275,0,0,0,30,6Z" style="fill:#6d6daa"/><path d="M30,44a1,1,0,0,1-1-1V17a1,1,0,0,1,2,0V43A1,1,0,0,1,30,44Z" style="fill:#fff"/><path d="M43,31H17a1,1,0,0,1,0-2H43a1,1,0,0,1,0,2Z" style="fill:#fff"/></svg>