<svg id="_002" data-name="002" xmlns="http://www.w3.org/2000/svg" viewBox="0 0 128 128"><defs><style>.cls-1{opacity:0.3;}.cls-2{fill:#97c1ff;}.cls-3{fill:#eef6ff;}.cls-4{fill:#5cbeff;}.cls-5{fill:#fff;}.cls-6{fill:#6d6daa;}.cls-7{fill:#c9c1f5;}.cls-8{fill:#96d7ff;}.cls-9{fill:#b1f1a8;}.cls-10{fill:#48bc33;}.cls-11{opacity:0.5;}.cls-12{fill:#7690a8;}</style></defs><title>043</title><g class="cls-1"><path class="cls-2" d="M126.19,47.69a30,30,0,0,0-23.51-25,19.69,19.69,0,0,1-10.93-6.55A37,37,0,0,0,27.42,31.78,19.57,19.57,0,0,1,17,44.94,28,28,0,1,0,54.66,82.29,9.41,9.41,0,0,1,63.17,77H64a12.39,12.39,0,0,1,12,9.74,20,20,0,0,0,26.06,14.14A20,20,0,0,0,115.47,83,21.38,21.38,0,0,1,120,70.65,29.91,29.91,0,0,0,126.19,47.69Z"/><path class="cls-3" d="M44.74,23.49A11.29,11.29,0,0,0,23,18.3,6,6,0,0,0,13.19,23c0,.17,0,.34,0,.51A9,9,0,0,0,16.2,41H41.8a9,9,0,0,0,2.94-17.5Z"/><g class="cls-1"><path class="cls-4" d="M41.8,38H16.2a9,9,0,0,1-8.91-7.52A9,9,0,0,0,16.2,41H41.8a9,9,0,0,0,8.91-10.52A9,9,0,0,1,41.8,38Z"/></g><path class="cls-5" d="M13.21,26.51c0-.17,0-.34,0-.51A6,6,0,0,1,23,21.3a11.28,11.28,0,0,1,21.79,5.19,9,9,0,0,1,6,7,8.91,8.91,0,0,0-6-10A11.29,11.29,0,0,0,23,18.3,6,6,0,0,0,13.19,23c0,.17,0,.34,0,.51a8.9,8.9,0,0,0-5.92,10A9,9,0,0,1,13.21,26.51Z"/><path class="cls-6" d="M41.8,42H16.2a10,10,0,0,1-4-19.16,7,7,0,0,1,10.32-6,12.3,12.3,0,0,1,23.31,5.43q0,.29,0,.58A10,10,0,0,1,41.8,42ZM19.21,18a5,5,0,0,0-5,5c0,.14,0,.29,0,.43a1,1,0,0,1-.67,1A8,8,0,0,0,16.2,40H41.8a8,8,0,0,0,2.61-15.56,1,1,0,0,1-.67-1.06,10.18,10.18,0,0,0,.07-1.14,10.3,10.3,0,0,0-19.93-3.59,1,1,0,0,1-1.56.43A5,5,0,0,0,19.21,18Z"/><path class="cls-3" d="M41.8,23a9.06,9.06,0,0,1,3,.5"/><path class="cls-6" d="M44.77,24.49a1,1,0,0,1-.33-.05A8.08,8.08,0,0,0,41.8,24a1,1,0,0,1,0-2,10.06,10.06,0,0,1,3.29.55,1,1,0,0,1-.33,1.95Z"/><path class="cls-3" d="M13.21,23.5a9.06,9.06,0,0,1,3-.5"/><path class="cls-6" d="M13.21,24.5a1,1,0,0,1-.33-1.94A10.06,10.06,0,0,1,16.2,22a1,1,0,0,1,0,2,8,8,0,0,0-2.66.45A1,1,0,0,1,13.21,24.5Z"/><path class="cls-3" d="M22.91,18.26a6,6,0,0,1,1.64,2"/><path class="cls-6" d="M24.55,21.22a1,1,0,0,1-.89-.54,5.08,5.08,0,0,0-1.37-1.63,1,1,0,1,1,1.23-1.58,7.08,7.08,0,0,1,1.91,2.28,1,1,0,0,1-.88,1.46Z"/><path class="cls-3" d="M94.61,19.66a6,6,0,0,1,11.62-2.77,3.21,3.21,0,0,1,5.21,2.51c0,.09,0,.18,0,.27A4.79,4.79,0,0,1,109.84,29H96.18a4.8,4.8,0,0,1-1.57-9.34Z"/><path class="cls-5" d="M94.61,21.66a6,6,0,0,1,11.62-2.77,3.21,3.21,0,0,1,5.21,2.51c0,.09,0,.18,0,.27a4.81,4.81,0,0,1,3.11,3.54,4.76,4.76,0,0,0-3.11-5.54c0-.09,0-.18,0-.27a3.21,3.21,0,0,0-5.21-2.51,6,6,0,0,0-11.62,2.77,4.76,4.76,0,0,0-3.14,5.55A4.81,4.81,0,0,1,94.61,21.66Z"/><g class="cls-1"><path class="cls-4" d="M109.84,27H96.18a4.81,4.81,0,0,1-4.71-3.78,4.75,4.75,0,0,0-.11,1A4.81,4.81,0,0,0,96.18,29h13.66a4.81,4.81,0,0,0,4.82-4.8,4.75,4.75,0,0,0-.11-1A4.81,4.81,0,0,1,109.84,27Z"/></g><path class="cls-6" d="M109.84,30H96.18a5.79,5.79,0,0,1-2.61-11v0a7,7,0,0,1,13.1-3.5A4.22,4.22,0,0,1,112.42,19a5.79,5.79,0,0,1-2.59,11ZM100.6,14a5,5,0,0,0-5,5.55,1,1,0,0,1-.67,1.06A3.8,3.8,0,0,0,96.18,28h13.66a3.79,3.79,0,0,0,1.26-7.38,1,1,0,0,1-.67-1c0-.06,0-.12,0-.19a2.21,2.21,0,0,0-3.59-1.72,1,1,0,0,1-1.56-.43A5,5,0,0,0,100.6,14Z"/><path class="cls-3" d="M96.18,19.4a4.83,4.83,0,0,0-1.58.26"/><path class="cls-6" d="M94.6,20.66a1,1,0,0,1-.33-1.94,5.79,5.79,0,0,1,1.91-.32,1,1,0,0,1,0,2,3.81,3.81,0,0,0-1.25.21A1,1,0,0,1,94.6,20.66Z"/><path class="cls-3" d="M111.43,19.67a4.83,4.83,0,0,0-1.59-.27"/><path class="cls-6" d="M111.43,20.67a1,1,0,0,1-.33-.06,3.82,3.82,0,0,0-1.26-.21,1,1,0,0,1,0-2,5.83,5.83,0,0,1,1.92.32,1,1,0,0,1-.33,1.94Z"/><path class="cls-3" d="M106.26,16.87a3.22,3.22,0,0,0-.87,1"/><path class="cls-6" d="M105.38,18.91a1,1,0,0,1-.88-1.47,4.25,4.25,0,0,1,1.15-1.37,1,1,0,0,1,1.23,1.58,2.23,2.23,0,0,0-.6.72A1,1,0,0,1,105.38,18.91Z"/><path class="cls-3" d="M90.77,56a8,8,0,0,1,11.88-8.85,10.49,10.49,0,0,1,18.8,5.25A7.5,7.5,0,0,1,119,67H91a5.5,5.5,0,0,1-.23-11Z"/><path class="cls-5" d="M90.77,59a7.62,7.62,0,0,1-.2-3,5.47,5.47,0,0,0-4.84,7A5.48,5.48,0,0,1,90.77,59Z"/><path class="cls-5" d="M98.51,49a8,8,0,0,1,4.14,1.16,10.49,10.49,0,0,1,18.8,5.25,7.5,7.5,0,0,1,4.9,5.62,7.49,7.49,0,0,0-4.9-8.62,10.49,10.49,0,0,0-18.8-5.25A8,8,0,0,0,90.51,54a7.72,7.72,0,0,0,.15,1.45A8,8,0,0,1,98.51,49Z"/><path class="cls-4" d="M90.77,53c0-.18-.08-.38-.11-.57,0,.2-.07.39-.09.59Z"/><g class="cls-1"><path class="cls-4" d="M119,64H91a5.5,5.5,0,0,1-5.28-4,5.44,5.44,0,0,0-.22,1.46A5.5,5.5,0,0,0,91,67h28a7.43,7.43,0,0,0,7.34-9A7.5,7.5,0,0,1,119,64Z"/></g><path class="cls-6" d="M119,68H91a6.5,6.5,0,0,1-1.42-12.84A8.67,8.67,0,0,1,89.51,54,9,9,0,0,1,102.4,45.9a11.49,11.49,0,0,1,20,5.8A8.5,8.5,0,0,1,119,68ZM98.51,47a7,7,0,0,0-6.77,8.76A1,1,0,0,1,90.81,57,4.5,4.5,0,0,0,91,66h28a6.5,6.5,0,0,0,2.12-12.64,1,1,0,0,1-.67-.84,9.49,9.49,0,0,0-17-4.75,1,1,0,0,1-1.32.25A7,7,0,0,0,98.51,47Z"/><path class="cls-6" d="M121,57.75a1,1,0,0,1-1-1.31A9.51,9.51,0,0,0,111,44a1,1,0,0,1,0-2,11.51,11.51,0,0,1,10.94,15.06A1,1,0,0,1,121,57.75Z"/><path class="cls-6" d="M94.63,58.37a1,1,0,0,1-.66-.25A4.49,4.49,0,0,0,91,57a1,1,0,1,1,0-2,6.49,6.49,0,0,1,4.28,1.61,1,1,0,0,1-.66,1.75Z"/><path class="cls-6" d="M105,50.34a1,1,0,0,1-.81-.42A7,7,0,0,0,98.51,47a1,1,0,1,1,0-2,9,9,0,0,1,7.32,3.76,1,1,0,0,1-.81,1.58Z"/><path class="cls-5" d="M122,84a1,1,0,0,1-.39-.08.88.88,0,0,1-.32-.22A1,1,0,0,1,121,83a.93.93,0,0,1,.29-.71,1,1,0,0,1,.32-.22,1,1,0,0,1,.77,0,1,1,0,0,1,.32.22.88.88,0,0,1,.22.32A1,1,0,0,1,123,83a1,1,0,0,1-.3.7.88.88,0,0,1-.32.22A1,1,0,0,1,122,84Z"/><path class="cls-5" d="M120,88h-6a1,1,0,0,1,0-2h6a1,1,0,1,1,0,2Z"/><path class="cls-5" d="M118,84h-7a1,1,0,0,1,0-2h7a1,1,0,1,1,0,2Z"/><path class="cls-5" d="M110,88h-2a1,1,0,1,1,0-2h2a1,1,0,1,1,0,2Z"/><path class="cls-5" d="M118,92h-8a1,1,0,0,1,0-2h8a1,1,0,0,1,0,2Z"/><path class="cls-5" d="M16,76a1,1,0,0,1-.71-.29.87.87,0,0,1-.22-.32A1,1,0,0,1,15,75a1,1,0,0,1,.07-.38,1,1,0,0,1,.22-.32.87.87,0,0,1,.32-.22,1,1,0,0,1,1.09.22.88.88,0,0,1,.22.32A1,1,0,0,1,17,75a1,1,0,0,1-.08.39.87.87,0,0,1-.22.32A1,1,0,0,1,16,76Z"/><path class="cls-5" d="M17,72H15a1,1,0,0,1,0-2h2a1,1,0,0,1,0,2Z"/><path class="cls-5" d="M20,68H10a1,1,0,1,1,0-2H20a1,1,0,0,1,0,2Z"/><path class="cls-5" d="M11,72H7a1,1,0,0,1,0-2h4a1,1,0,0,1,0,2Z"/><path class="cls-5" d="M12,76H4a1,1,0,0,1,0-2h8a1,1,0,0,1,0,2Z"/><path class="cls-6" d="M90,118H42a1,1,0,0,1,0-2H90a1,1,0,0,1,0,2Z"/><path class="cls-6" d="M94,118H93a1,1,0,0,1,0-2h1a1,1,0,0,1,0,2Z"/><path class="cls-6" d="M39,118H36a1,1,0,0,1,0-2h3a1,1,0,0,1,0,2Z"/></g><path class="cls-7" d="M71.33,15A5.55,5.55,0,0,0,75,18.72q2.77.92,0,1.85a5.55,5.55,0,0,0-3.69,3.69q-.92,2.77-1.85,0a5.55,5.55,0,0,0-3.69-3.69q-2.77-.92,0-1.85A5.55,5.55,0,0,0,69.48,15Q70.4,12.26,71.33,15Z"/><path class="cls-7" d="M100,32.57A3.7,3.7,0,0,0,102.48,35q1.85.62,0,1.23A3.7,3.7,0,0,0,100,38.72q-.62,1.85-1.23,0a3.7,3.7,0,0,0-2.46-2.46q-1.85-.62,0-1.23a3.7,3.7,0,0,0,2.46-2.46Q99.4,30.72,100,32.57Z"/><path class="cls-8" d="M21.17,101.81a4.62,4.62,0,0,0,3.08,3.08q2.31.77,0,1.54a4.62,4.62,0,0,0-3.08,3.08q-.77,2.31-1.54,0a4.62,4.62,0,0,0-3.08-3.08q-2.31-.77,0-1.54a4.62,4.62,0,0,0,3.08-3.08Q20.4,99.5,21.17,101.81Z"/><path class="cls-7" d="M19,45.57A3.7,3.7,0,0,0,21.47,48q1.85.62,0,1.23A3.7,3.7,0,0,0,19,51.72q-.62,1.85-1.23,0a3.7,3.7,0,0,0-2.46-2.46q-1.85-.62,0-1.23a3.7,3.7,0,0,0,2.46-2.46Q18.4,43.72,19,45.57Z"/><path class="cls-7" d="M10,80.57A3.7,3.7,0,0,0,12.47,83q1.85.62,0,1.23A3.7,3.7,0,0,0,10,86.73q-.62,1.85-1.23,0a3.7,3.7,0,0,0-2.46-2.46q-1.85-.62,0-1.23a3.7,3.7,0,0,0,2.46-2.46Q9.4,78.73,10,80.57Z"/><path class="cls-8" d="M116,95.57A3.7,3.7,0,0,0,118.48,98q1.85.62,0,1.23a3.7,3.7,0,0,0-2.46,2.46q-.62,1.85-1.23,0a3.7,3.7,0,0,0-2.46-2.46q-1.85-.62,0-1.23a3.7,3.7,0,0,0,2.46-2.46Q115.41,93.73,116,95.57Z"/><circle class="cls-9" cx="64" cy="75" r="42"/><g class="cls-1"><path class="cls-10" d="M64,113A42,42,0,0,1,22.05,73c0,.66-.05,1.33-.05,2a42,42,0,1,0,84,0c0-.67,0-1.34-.05-2A42,42,0,0,1,64,113Z"/></g><g class="cls-11"><path class="cls-5" d="M64,37a42,42,0,0,1,41.95,40c0-.66.05-1.33.05-2a42,42,0,0,0-84,0c0,.67,0,1.34.05,2A42,42,0,0,1,64,37Z"/></g><path class="cls-6" d="M64,118a43,43,0,1,1,43-43A43,43,0,0,1,64,118Zm0-84a41,41,0,1,0,41,41A41,41,0,0,0,64,34Z"/><g class="cls-1"><path class="cls-10" d="M80,71.81H69V61.58a5,5,0,0,0-10,0V71.81H48a4.84,4.84,0,0,0-5,4.65,4.46,4.46,0,0,0,1.46,3.29A5.16,5.16,0,0,0,48,81.12H59V91.35a4.47,4.47,0,0,0,1.46,3.29A5.16,5.16,0,0,0,64,96a4.84,4.84,0,0,0,5-4.65V81.12H80a4.66,4.66,0,1,0,0-9.3Z"/></g><path class="cls-3" d="M68,77.33H80a3.73,3.73,0,1,0,0-7.44H68V58.72a4,4,0,0,0-8,0V69.88H48a3.87,3.87,0,0,0-4,3.72,3.59,3.59,0,0,0,1.17,2.63A4.15,4.15,0,0,0,48,77.33H60V88.49a3.59,3.59,0,0,0,1.17,2.63A4.14,4.14,0,0,0,64,92.21a3.87,3.87,0,0,0,4-3.72Z"/><path class="cls-5" d="M68,61.38h0V58.72a4,4,0,0,0-8,0v2.79a4,4,0,0,1,8,0Z"/><path class="cls-5" d="M80,69.88H67v1.86a1,1,0,0,0,1,.93H80A4,4,0,0,1,83.7,75a3.48,3.48,0,0,0,.3-1.4A3.87,3.87,0,0,0,80,69.88Z"/><path class="cls-5" d="M48,72.67H60a1,1,0,0,0,1-.93V69.88H48.19A4.09,4.09,0,0,0,44.06,73a3.44,3.44,0,0,0,.23,2A4,4,0,0,1,48,72.67Z"/><g class="cls-1"><path class="cls-12" d="M60,86.29h0V89a4,4,0,0,0,8,0V86.16a4,4,0,0,1-8,0Z"/></g><g class="cls-1"><path class="cls-12" d="M48,77.79H61V75.93A1,1,0,0,0,60,75H48a4,4,0,0,1-3.7-2.33,3.48,3.48,0,0,0-.3,1.4A3.87,3.87,0,0,0,48,77.79Z"/></g><g class="cls-1"><path class="cls-12" d="M80,75H68a1,1,0,0,0-1,.93v1.86H79.81a4.09,4.09,0,0,0,4.13-3.07,3.44,3.44,0,0,0-.23-2A4,4,0,0,1,80,75Z"/></g><path class="cls-6" d="M64,93.21a5.13,5.13,0,0,1-3.51-1.36A4.56,4.56,0,0,1,59,88.49V78.33H48A5.13,5.13,0,0,1,44.49,77,4.56,4.56,0,0,1,43,73.6a4.87,4.87,0,0,1,5-4.72H59V58.72a5,5,0,0,1,10,0V68.88H80a4.73,4.73,0,1,1,0,9.44H69V88.49A4.87,4.87,0,0,1,64,93.21ZM48,70.88a2.87,2.87,0,0,0-3,2.72,2.58,2.58,0,0,0,.85,1.9,3.14,3.14,0,0,0,2.15.82H60a1,1,0,0,1,1,1V88.49a2.58,2.58,0,0,0,.85,1.9,3.14,3.14,0,0,0,2.15.82,2.88,2.88,0,0,0,3-2.72V77.33a1,1,0,0,1,1-1H80a2.73,2.73,0,1,0,0-5.44H68a1,1,0,0,1-1-1V58.72a3,3,0,0,0-6,0V69.88a1,1,0,0,1-1,1Z"/></svg>