<svg id="Human_2" data-name="Human 2" xmlns="http://www.w3.org/2000/svg" width="60" height="60" viewBox="0 0 60 60"><title>b_064</title><path d="M46.99951,32a.99974.99974,0,0,1-1-1V14h-15a1,1,0,0,1,0-2h16a.99974.99974,0,0,1,1,1V31A.99974.99974,0,0,1,46.99951,32Z" style="fill:#6d6daa"/><path d="M46.99951,32a.99676.99676,0,0,1-.707-.293l-5-5A.99989.99989,0,0,1,42.70654,25.293l4.293,4.293,4.293-4.293A.99989.99989,0,0,1,52.70654,26.707l-5,5A.99676.99676,0,0,1,46.99951,32Z" style="fill:#6d6daa"/><path d="M28.99951,48h-16a.99974.99974,0,0,1-1-1V29a1,1,0,0,1,2,0V46h15a1,1,0,0,1,0,2Z" style="fill:#6d6daa"/><path d="M17.99951,35a.99676.99676,0,0,1-.707-.293l-4.293-4.293-4.293,4.293A.99989.99989,0,1,1,7.29248,33.293l5-5a.99964.99964,0,0,1,1.41406,0l5,5a1,1,0,0,1-.707,1.707Z" style="fill:#6d6daa"/><path d="M4.936,21.88A11.9963,11.9963,0,1,1,13,25,11.94462,11.94462,0,0,1,4.936,21.88Z" style="fill:#97c1ff"/><path d="M13,4A12,12,0,0,1,24.898,14.51208a12.001,12.001,0,1,0-23.7951-.00623A11.99989,11.99989,0,0,1,13,4Z" style="fill:#fff;opacity:0.5"/><path d="M20.536,21.736l.096.528A11.9963,11.9963,0,0,1,4.936,21.88l.528-.144A9.58848,9.58848,0,0,1,10,19.852a.56367.56367,0,0,0,.48-.588c-.012-.312-.012-.648-.012-.996,0-.864-.96-1.776-1.008-2.904a4.5073,4.5073,0,0,1-.516-1.836.94189.94189,0,0,1,.228-.708c-.072-.42-.144-.864-.228-1.32a2.94538,2.94538,0,0,1,1.884-3.636c.3-.132.072-1.92.396-1.596.9.864,3.324,1.284,3.9,1.5,1.62.564,2.256,1.896,1.932,3.732-.084.456-.156.9-.228,1.32a.94189.94189,0,0,1,.228.708,4.5073,4.5073,0,0,1-.516,1.836c-.048,1.128-1.008,2.1-1.008,2.904,0,.348,0,.684-.012.996a.56367.56367,0,0,0,.48.588A9.58848,9.58848,0,0,1,20.536,21.736Z" style="fill:#eef6ff"/><path d="M9.10419,12.42755A3.1471,3.1471,0,0,1,10.828,10.864c.3-.132,1.25533-.53068,1.422-.989a27.49333,27.49333,0,0,0,2.874.893,2.79394,2.79394,0,0,1,1.7804,1.6095c.04877-.289.09576-.57434.15161-.8775.324-1.836-.312-3.168-1.932-3.732-.576-.216-3-.636-3.9-1.5-.324-.324-.096,1.464-.396,1.596A2.94538,2.94538,0,0,0,8.944,11.5C9.00305,11.82043,9.05286,12.12311,9.10419,12.42755Z" style="fill:#fff"/><path d="M20.632,19.264A11.9976,11.9976,0,0,1,1.10291,11.50586,11.83919,11.83919,0,0,0,4.936,21.88a11.99633,11.99633,0,0,0,15.696.384,11.868,11.868,0,0,0,4.266-10.75189A12.03547,12.03547,0,0,1,20.632,19.264Z" style="fill:#2c4b75;opacity:0.2"/><path d="M20.53564,22.73633a.99733.99733,0,0,1-.65869-.248,8.71492,8.71492,0,0,0-4.05225-1.65234A1.553,1.553,0,0,1,14.521,19.22266c.01172-.29785.01123-.62012.01123-.95508a3.77283,3.77283,0,0,1,.54883-1.69336,3.42869,3.42869,0,0,0,.46-1.252.99737.99737,0,0,1,.10107-.39844,3.54957,3.54957,0,0,0,.41406-1.39551c0-.0332-.00146-.05762-.00293-.07617a1.00013,1.00013,0,0,1-.21094-.80078l.05859-.34375c.05371-.32031.10986-.65137.17188-.98828.32178-1.8252-.5752-2.3623-1.27783-2.60742-.14307-.05371-.36084-.10645-.63037-.17578a16.93521,16.93521,0,0,1-2.23828-.7002,1.2192,1.2192,0,0,1-.6958.94336,1.96411,1.96411,0,0,0-1.30225,2.5459c.061.33105.11719.66211.1709.98242l.05859.34375a1.00013,1.00013,0,0,1-.21094.80078c-.00146.01855-.00293.043-.00293.07617a3.54957,3.54957,0,0,0,.41406,1.39551.99737.99737,0,0,1,.10107.39844,3.18364,3.18364,0,0,0,.44482,1.19824,3.8555,3.8555,0,0,1,.564,1.74707c0,.335-.00049.65723.01123.957a1.55545,1.55545,0,0,1-1.31494,1.61328,8.69823,8.69823,0,0,0-4.041,1.65039,1,1,0,0,1-1.31836-1.50391,10.2445,10.2445,0,0,1,4.6665-2.0498c-.00342-.21582-.00342-.43848-.00342-.667a2.7757,2.7757,0,0,0-.34082-.82812A5.23366,5.23366,0,0,1,8.478,15.62793a5.26286,5.26286,0,0,1-.53418-2.09961,2.21849,2.21849,0,0,1,.17822-.917c-.05078-.30176-.10352-.61328-.16162-.93066a3.90046,3.90046,0,0,1,2.041-4.52344c.00586-.0918.01074-.18945.01416-.26367.03076-.62109.06543-1.3252.76172-1.59473a1.16275,1.16275,0,0,1,1.15283.26074,8.41307,8.41307,0,0,0,2.73438,1.04c.35986.09277.64844.1709.81006.23145,2.04.71,2.9834,2.47852,2.56641,4.84277-.05957.32422-.1123.63574-.16309.9375a2.21849,2.21849,0,0,1,.17822.917,5.26286,5.26286,0,0,1-.53418,2.09961,5.44471,5.44471,0,0,1-.65918,1.85449,3.20974,3.20974,0,0,0-.33057.78516c0,.22852,0,.45215-.00342.667a10.24973,10.24973,0,0,1,4.6665,2.0498,1,1,0,0,1-.65967,1.752ZM9.481,19.30273v0Zm7.03857-.001-.00049.001Zm-6.69482-.43457-.0083.001Zm6.33936-.002.00879.001ZM10.41992,6.95117,10.4082,6.957Z" style="fill:#6d6daa"/><path d="M13,26a12.9945,12.9945,0,1,1,8.27-2.9668A13.06635,13.06635,0,0,1,13,26ZM13,2A10.99524,10.99524,0,0,0,5.60742,21.13867l.00391.00391A10.998,10.998,0,1,0,13,2Z" style="fill:#6d6daa"/><path d="M38.936,55.88A11.9963,11.9963,0,1,1,47,59,11.94462,11.94462,0,0,1,38.936,55.88Z" style="fill:#97c1ff"/><path d="M47,38A12,12,0,0,1,58.898,48.51208a12.001,12.001,0,1,0-23.7951-.00623A11.99989,11.99989,0,0,1,47,38Z" style="fill:#fff;opacity:0.5"/><path d="M54.536,55.736l.096.528a11.9963,11.9963,0,0,1-15.696-.384l.528-.144A9.58848,9.58848,0,0,1,44,53.852a.56367.56367,0,0,0,.48-.588c-.012-.312-.012-.648-.012-.996,0-.864-.96-1.776-1.008-2.904a4.5073,4.5073,0,0,1-.516-1.836.94189.94189,0,0,1,.228-.708c-.072-.42-.144-.864-.228-1.32a2.94538,2.94538,0,0,1,1.884-3.636c.3-.132.072-1.92.396-1.596.9.864,3.324,1.284,3.9,1.5,1.62.564,2.256,1.896,1.932,3.732-.084.456-.156.9-.228,1.32a.94189.94189,0,0,1,.228.708,4.5073,4.5073,0,0,1-.516,1.836c-.048,1.128-1.008,2.1-1.008,2.904,0,.348,0,.684-.012.996a.56367.56367,0,0,0,.48.588A9.58848,9.58848,0,0,1,54.536,55.736Z" style="fill:#eef6ff"/><path d="M43.10419,46.42755A3.1471,3.1471,0,0,1,44.828,44.864c.3-.132,1.25533-.53068,1.422-.989a27.49333,27.49333,0,0,0,2.874.893,2.79394,2.79394,0,0,1,1.7804,1.6095c.04877-.289.09576-.57434.15161-.8775.324-1.836-.312-3.168-1.932-3.732-.576-.216-3-.636-3.9-1.5-.324-.324-.096,1.464-.396,1.596A2.94538,2.94538,0,0,0,42.944,45.5C43.00305,45.82043,43.05286,46.12311,43.10419,46.42755Z" style="fill:#fff"/><path d="M54.632,53.264a11.9976,11.9976,0,0,1-19.52911-7.75812A11.83919,11.83919,0,0,0,38.936,55.88a11.99633,11.99633,0,0,0,15.696.384,11.868,11.868,0,0,0,4.266-10.75189A12.03547,12.03547,0,0,1,54.632,53.264Z" style="fill:#2c4b75;opacity:0.2"/><path d="M54.53564,56.73633a.99733.99733,0,0,1-.65869-.248,8.71492,8.71492,0,0,0-4.05225-1.65234A1.553,1.553,0,0,1,48.521,53.22266c.01172-.29785.01123-.62012.01123-.95508a3.77283,3.77283,0,0,1,.54883-1.69336,3.42869,3.42869,0,0,0,.46-1.252.99737.99737,0,0,1,.10107-.39844,3.54957,3.54957,0,0,0,.41406-1.39551c0-.0332-.00146-.05762-.00293-.07617a1.00013,1.00013,0,0,1-.21094-.80078l.05859-.34375c.05371-.32031.10986-.65137.17188-.98828.32178-1.8252-.5752-2.3623-1.27783-2.60742-.14307-.05371-.36084-.10645-.63037-.17578a16.93521,16.93521,0,0,1-2.23828-.7002,1.2192,1.2192,0,0,1-.6958.94336,1.96411,1.96411,0,0,0-1.30225,2.5459c.061.33105.11719.66211.1709.98242l.05859.34375a1.00013,1.00013,0,0,1-.21094.80078c-.00146.01855-.00293.043-.00293.07617a3.54957,3.54957,0,0,0,.41406,1.39551.99737.99737,0,0,1,.10107.39844,3.18364,3.18364,0,0,0,.44482,1.19824,3.8555,3.8555,0,0,1,.564,1.74707c0,.335-.00049.65723.01123.957a1.55545,1.55545,0,0,1-1.31494,1.61328,8.69823,8.69823,0,0,0-4.041,1.65039,1,1,0,1,1-1.31836-1.50391,10.2445,10.2445,0,0,1,4.6665-2.0498c-.00342-.21582-.00342-.43848-.00342-.667a2.7757,2.7757,0,0,0-.34082-.82812,5.23366,5.23366,0,0,1-.64893-1.81152,5.26286,5.26286,0,0,1-.53418-2.09961,2.21849,2.21849,0,0,1,.17822-.917c-.05078-.30176-.10352-.61328-.16162-.93066a3.90046,3.90046,0,0,1,2.041-4.52344c.00586-.0918.01074-.18945.01416-.26367.03076-.62109.06543-1.3252.76172-1.59473a1.16375,1.16375,0,0,1,1.15283.26074,8.41307,8.41307,0,0,0,2.73438,1.04c.35986.09277.64844.1709.81006.23145,2.04.71,2.9834,2.47852,2.56641,4.84277-.05957.32422-.1123.63574-.16309.9375a2.21849,2.21849,0,0,1,.17822.917,5.26286,5.26286,0,0,1-.53418,2.09961,5.44471,5.44471,0,0,1-.65918,1.85449,3.20974,3.20974,0,0,0-.33057.78516c0,.22852,0,.45215-.00342.667a10.24973,10.24973,0,0,1,4.6665,2.0498,1,1,0,0,1-.65967,1.752ZM43.481,53.30273v0Zm7.03857-.001-.00049.001Zm-6.69482-.43457-.0083.001Zm6.33936-.002.00879.001ZM44.41992,40.95117l-.01172.00586Z" style="fill:#6d6daa"/><path d="M47,60a12.9945,12.9945,0,1,1,8.27-2.9668A13.06635,13.06635,0,0,1,47,60Zm0-24a10.99524,10.99524,0,0,0-7.39258,19.13867l.00391.00391A10.998,10.998,0,1,0,47,36Z" style="fill:#6d6daa"/></svg>