<svg id="Finance_2" data-name="Finance 2" xmlns="http://www.w3.org/2000/svg" width="60" height="60" viewBox="0 0 60 60"><title>b_041</title><rect x="1" y="15" width="58" height="32" style="fill:#d4edff"/><rect x="1" y="31" width="58" height="16" style="fill:#2c4b75;opacity:0.2"/><path d="M51,43a3.99992,3.99992,0,0,1,4-4V23a4,4,0,0,1-4-4H9a4,4,0,0,1-4,4V39a3.99994,3.99994,0,0,1,4,4Z" style="fill:#fff"/><path d="M51,44H9a1,1,0,0,1-1-1,3.00328,3.00328,0,0,0-3-3,1,1,0,0,1-1-1V23a1,1,0,0,1,1-1,3.00328,3.00328,0,0,0,3-3,1,1,0,0,1,1-1H51a1,1,0,0,1,1,1,3.00328,3.00328,0,0,0,3,3,1,1,0,0,1,1,1V39a1,1,0,0,1-1,1,3.00328,3.00328,0,0,0-3,3A1,1,0,0,1,51,44ZM9.89941,42H50.10059A5.01487,5.01487,0,0,1,54,38.10059V23.89941A5.01487,5.01487,0,0,1,50.10059,20H9.89941A5.01487,5.01487,0,0,1,6,23.89941V38.10059A5.01487,5.01487,0,0,1,9.89941,42Z" style="fill:#6d6daa"/><path d="M45,48H1a1,1,0,0,1-1-1V15a1,1,0,0,1,1-1H45a1,1,0,0,1,0,2H2V46H45a1,1,0,0,1,0,2Z" style="fill:#6d6daa"/><path d="M59,48H51a1,1,0,0,1,0-2h7V16H51a1,1,0,0,1,0-2h8a1,1,0,0,1,1,1V47A1,1,0,0,1,59,48Z" style="fill:#6d6daa"/><g style="opacity:0.5"><path d="M33,24H21a1,1,0,0,1,0-2H33a1,1,0,0,1,0,2Z" style="fill:#6d6daa"/></g><g style="opacity:0.5"><path d="M41,28H21a1,1,0,0,1,0-2H41a1,1,0,0,1,0,2Z" style="fill:#6d6daa"/></g><path d="M29.24414,41.00049a1.61681,1.61681,0,0,1-.17432-.00928,1.69666,1.69666,0,0,1-1.2915-.86914,7.28216,7.28216,0,0,1-.52734-3.04443,18.17008,18.17008,0,0,1-2.52148.91895.99984.99984,0,0,1-.52441-1.92969,17.60169,17.60169,0,0,0,3.18018-1.24951,9.00629,9.00629,0,0,1,1.60938-4.35059A3.8988,3.8988,0,0,1,33.522,29.23193a1.62891,1.62891,0,0,1,1.22363,1.60986c-.04346,1.56494-2.61719,3.66016-5.46289,5.22754a10.60525,10.60525,0,0,0,.145,2.82666,14.11165,14.11165,0,0,0,1.8667-1.82178c.21436-.23486.42725-.46826.63525-.689a1.00038,1.00038,0,0,1,1.64795.29541c.02148.05127.04248.10254.063.1543.05225-.04492.10352-.08838.15332-.13086,1.24414-1.0625,1.86865-1.5957,2.67871-1.29492a1.32658,1.32658,0,0,1,.8291,1.13623l.01416.09766c.36279-.31543.81885-.708,1.39551-1.17383a1.46443,1.46443,0,0,1,1.21484-.36816,1.56754,1.56754,0,0,1,1.05469.91553c.02246.04053.0459.083.07129.12646a.99988.99988,0,0,1,1.16309,1.60742,1.8193,1.8193,0,0,1-2.64746-.231c-.02637-.03467-.05127-.06934-.0752-.104-.4043.33643-.72852.61816-.99463.8501-.91748.79883-1.42334,1.24023-2.15771.96484-.57422-.21484-.75049-.70068-.86084-1.335-.12793.10791-.25928.2207-.38672.3291-.40186.34326-.87891.751-1.44189,1.20459a1.00014,1.00014,0,0,1-1.51465-.31689C31.13574,40.17773,30.21777,41,29.24414,41.00049ZM31.9917,30.97217a1.72857,1.72857,0,0,0-1.37256.66846,4.98829,4.98829,0,0,0-.91943,1.85254,11.41782,11.41782,0,0,0,2.90869-2.44092A2.63473,2.63473,0,0,0,31.9917,30.97217Z" style="fill:#6d6daa;opacity:0.5"/><polygon points="51 47 49 53 47 53 45 47 51 47" style="fill:#ced8ee"/><rect x="45" y="19" width="6" height="28" style="fill:#9eb2cc"/><rect x="45" y="19" width="3" height="28" style="fill:#fff;opacity:0.5"/><path d="M51,7V19H45V7a2.00588,2.00588,0,0,1,2-2h2A2.00588,2.00588,0,0,1,51,7Z" style="fill:#9eb2cc"/><path d="M48,5V19H45V7a2.00588,2.00588,0,0,1,2-2Z" style="fill:#fff;opacity:0.5"/><path d="M48,56a1,1,0,0,1-1-1V53a1,1,0,0,1,2,0v2A1,1,0,0,1,48,56Z" style="fill:#6d6daa"/><path d="M51,48H45a1,1,0,0,1-1-1V7a3.00328,3.00328,0,0,1,3-3h2a3.00328,3.00328,0,0,1,3,3V47A1,1,0,0,1,51,48Zm-5-2h4V7a1.0013,1.0013,0,0,0-1-1H47a1.0013,1.0013,0,0,0-1,1Z" style="fill:#6d6daa"/><path d="M49,54H47a1,1,0,0,1-.94873-.68359l-2-6A1.00055,1.00055,0,0,1,45,46h6a1.00055,1.00055,0,0,1,.94873,1.31641l-2,6A1,1,0,0,1,49,54Zm-1.2793-2h.55859l1.3335-4H46.38721Z" style="fill:#6d6daa"/><path d="M51,20H45a1,1,0,0,1,0-2h6a1,1,0,0,1,0,2Z" style="fill:#6d6daa"/><path d="M55,19a1,1,0,0,1-1-1V10H51a1,1,0,0,1,0-2h4a1,1,0,0,1,1,1v9A1,1,0,0,1,55,19Z" style="fill:#6d6daa"/><g style="opacity:0.5"><path d="M14,38a3.985,3.985,0,0,1-4-3.96045,1,1,0,0,1,2,0,2.0004,2.0004,0,0,0,4,0c0-1.52588-2.24854-2.20312-2.27148-2.20947C13.57666,31.78711,10,30.74414,10,27.6958a4.0002,4.0002,0,0,1,8,0,1,1,0,0,1-2,0,2.00041,2.00041,0,0,0-4,0c0,1.5332,2.252,2.20361,2.2749,2.21045.14893.042,3.7251,1.08594,3.7251,4.1333A3.985,3.985,0,0,1,14,38Z" style="fill:#6d6daa"/><path d="M13.99951,25.73584a1,1,0,0,1-1-1V23a1,1,0,0,1,2,0v1.73584A1,1,0,0,1,13.99951,25.73584Z" style="fill:#6d6daa"/><path d="M13.99951,40a1,1,0,0,1-1-1V37a1,1,0,0,1,2,0v2A1,1,0,0,1,13.99951,40Z" style="fill:#6d6daa"/></g></svg>