<svg id="Finance_1" data-name="Finance 1" xmlns="http://www.w3.org/2000/svg" width="60" height="60" viewBox="0 0 60 60"><title>a_012</title><rect x="3" y="11" width="54" height="38" rx="2" ry="2" style="fill:#eef6ff"/><path d="M55,46H5a1.99994,1.99994,0,0,1-2-2v3a1.99994,1.99994,0,0,0,2,2H55a1.99994,1.99994,0,0,0,2-2V44A1.99994,1.99994,0,0,1,55,46Z" style="fill:#2c4b75;opacity:0.2"/><path d="M55,11H5a1.99994,1.99994,0,0,0-2,2v3a1.99994,1.99994,0,0,1,2-2H55a1.99994,1.99994,0,0,1,2,2V13A1.99994,1.99994,0,0,0,55,11Z" style="fill:#fff;opacity:0.75"/><rect x="3" y="19" width="54" height="6" style="fill:#9eb2cc"/><path d="M57,26H3a1,1,0,0,1-1-1V19a1,1,0,0,1,1-1H57a1,1,0,0,1,1,1v6A1,1,0,0,1,57,26ZM4,24H56V20H4Z" style="fill:#6d6daa"/><path d="M35,40H9a1,1,0,0,1,0-2H35a1,1,0,0,1,0,2Z" style="fill:#6d6daa;opacity:0.5"/><path d="M15,36H9a1,1,0,0,1,0-2h6a1,1,0,0,1,0,2Z" style="fill:#6d6daa;opacity:0.5"/><path d="M3,26a1,1,0,0,1-.707-1.707l6-6A.99989.99989,0,0,1,9.707,19.707l-6,6A.99676.99676,0,0,1,3,26Z" style="fill:#6d6daa;opacity:0.5"/><path d="M9,26a1,1,0,0,1-.707-1.707l6-6A.99989.99989,0,0,1,15.707,19.707l-6,6A.99676.99676,0,0,1,9,26Z" style="fill:#6d6daa;opacity:0.5"/><path d="M15,26a1,1,0,0,1-.707-1.707l6-6A.99989.99989,0,0,1,21.707,19.707l-6,6A.99676.99676,0,0,1,15,26Z" style="fill:#6d6daa;opacity:0.5"/><path d="M21,26a1,1,0,0,1-.707-1.707l6-6A.99989.99989,0,0,1,27.707,19.707l-6,6A.99676.99676,0,0,1,21,26Z" style="fill:#6d6daa;opacity:0.5"/><path d="M27,26a1,1,0,0,1-.707-1.707l6-6A.99989.99989,0,0,1,33.707,19.707l-6,6A.99676.99676,0,0,1,27,26Z" style="fill:#6d6daa;opacity:0.5"/><path d="M33,26a1,1,0,0,1-.707-1.707l6-6A.99989.99989,0,0,1,39.707,19.707l-6,6A.99676.99676,0,0,1,33,26Z" style="fill:#6d6daa;opacity:0.5"/><path d="M39,26a1,1,0,0,1-.707-1.707l6-6A.99989.99989,0,0,1,45.707,19.707l-6,6A.99676.99676,0,0,1,39,26Z" style="fill:#6d6daa;opacity:0.5"/><path d="M45,26a1,1,0,0,1-.707-1.707l6-6A.99989.99989,0,0,1,51.707,19.707l-6,6A.99676.99676,0,0,1,45,26Z" style="fill:#6d6daa;opacity:0.5"/><path d="M51,26a1,1,0,0,1-.707-1.707l6-6A.99989.99989,0,0,1,57.707,19.707l-6,6A.99676.99676,0,0,1,51,26Z" style="fill:#6d6daa;opacity:0.5"/><path d="M29,36H19a1,1,0,0,1,0-2H29a1,1,0,0,1,0,2Z" style="fill:#6d6daa;opacity:0.5"/><path d="M55,50H5a3.00328,3.00328,0,0,1-3-3V13a3.00328,3.00328,0,0,1,3-3H55a3.00328,3.00328,0,0,1,3,3V47A3.00328,3.00328,0,0,1,55,50ZM5,12a1.0013,1.0013,0,0,0-1,1V47a1.0013,1.0013,0,0,0,1,1H55a1.0013,1.0013,0,0,0,1-1V13a1.0013,1.0013,0,0,0-1-1Z" style="fill:#6d6daa"/></svg>