<svg id="Finance_1" data-name="Finance 1" xmlns="http://www.w3.org/2000/svg" width="60" height="60" viewBox="0 0 60 60"><title>a_042</title><polyline points="59 49 59 53 1 53 1 49" style="fill:#89dbba"/><polyline points="59 45 59 49 1 49 1 45" style="fill:#89dbba"/><polyline points="59 41 59 45 1 45 1 41" style="fill:#89dbba"/><polyline points="59 49 59 53 1 53 1 49" style="fill:#2c4b75;opacity:0.2"/><polyline points="59 45 59 49 1 49 1 45" style="fill:#2c4b75;opacity:0.2"/><polyline points="59 41 59 45 1 45 1 41" style="fill:#2c4b75;opacity:0.2"/><path d="M59,54H1a1,1,0,0,1-1-1V49a1,1,0,0,1,2,0v3H58V49a1,1,0,0,1,2,0v4A1,1,0,0,1,59,54Z" style="fill:#6d6daa"/><path d="M59,50H1a1,1,0,0,1-1-1V45a1,1,0,0,1,2,0v3H58V45a1,1,0,0,1,2,0v4A1,1,0,0,1,59,50Z" style="fill:#6d6daa"/><path d="M59,46H1a1,1,0,0,1-1-1V41a1,1,0,0,1,2,0v3H58V41a1,1,0,0,1,2,0v4A1,1,0,0,1,59,46Z" style="fill:#6d6daa"/><rect x="1" y="9" width="58" height="32" style="fill:#89dbba"/><path d="M55,33V17a4,4,0,0,1-4-4H9a4,4,0,0,1-4,4V33a3.99992,3.99992,0,0,1,4,4H51A3.99992,3.99992,0,0,1,55,33Z" style="fill:#b1f1a8"/><rect x="1" y="25" width="58" height="16" style="fill:#2c4b75;opacity:0.2"/><path d="M59,42H1a1,1,0,0,1-1-1V9A1,1,0,0,1,1,8H59a1,1,0,0,1,1,1V41A1,1,0,0,1,59,42ZM2,40H58V10H2Z" style="fill:#6d6daa"/><path d="M51,38H9a1,1,0,0,1-1-1,3.00328,3.00328,0,0,0-3-3,1,1,0,0,1-1-1V17a1,1,0,0,1,1-1,3.00328,3.00328,0,0,0,3-3,1,1,0,0,1,1-1H51a1,1,0,0,1,1,1,3.00328,3.00328,0,0,0,3,3,1,1,0,0,1,1,1V33a1,1,0,0,1-1,1,3.00328,3.00328,0,0,0-3,3A1,1,0,0,1,51,38ZM9.89941,36H50.10059A5.01487,5.01487,0,0,1,54,32.10059V17.89941A5.01487,5.01487,0,0,1,50.10059,14H9.89941A5.01487,5.01487,0,0,1,6,17.89941V32.10059A5.01487,5.01487,0,0,1,9.89941,36Z" style="fill:#6d6daa"/><ellipse cx="30" cy="25" rx="9" ry="12" style="fill:#89dbba"/><path d="M30,38c-5.51416,0-10-5.83154-10-13s4.48584-13,10-13,10,5.83154,10,13S35.51416,38,30,38Zm0-24c-4.41113,0-8,4.93457-8,11s3.58887,11,8,11,8-4.93457,8-11S34.41113,14,30,14Z" style="fill:#6d6daa"/><circle cx="47" cy="25" r="2" style="fill:#89dbba"/><path d="M47,28a3,3,0,1,1,3-3A3.00328,3.00328,0,0,1,47,28Zm0-4a1,1,0,1,0,1,1A1.0013,1.0013,0,0,0,47,24Z" style="fill:#6d6daa"/><circle cx="13" cy="25" r="2" style="fill:#89dbba"/><path d="M13,28a3,3,0,1,1,3-3A3.00328,3.00328,0,0,1,13,28Zm0-4a1,1,0,1,0,1,1A1.0013,1.0013,0,0,0,13,24Z" style="fill:#6d6daa"/><path d="M36.53339,33.2367a8.42893,8.42893,0,0,0-3.8599-2.0809.51342.51342,0,0,1-.43049-.5259c.01209-.2826.012-.5824.01069-.8945,0-.716.8617-1.5787.9087-2.5842a4.04908,4.04908,0,0,0,.45061-1.6445.84548.84548,0,0,0-.20361-.6284c.0702-.3743.1302-.7703.20361-1.178a2.65768,2.65768,0,0,0-1.71651-3.3315c-.5192-.1844-2.6743-.5576-3.4772-1.3354-.2906-.2815-.0915,1.3039-.3547,1.4223A2.62871,2.62871,0,0,0,26.387,23.7003c.07339.4077.13339.8037.20359,1.178a.84548.84548,0,0,0-.20359.6284,4.049,4.049,0,0,0,.45059,1.6445c.047,1.0055.9087,1.818.9087,2.5842-.00129.3121-.0014.6119.01071.8945a.51344.51344,0,0,1-.43051.5259,8.42893,8.42893,0,0,0-3.8599,2.0809A8.1247,8.1247,0,0,0,30,37,8.1247,8.1247,0,0,0,36.53339,33.2367Z" style="fill:#b1f1a8"/><path d="M30,38a9.15275,9.15275,0,0,1-7.34863-4.18457.99915.99915,0,0,1,.16162-1.335,9.72415,9.72415,0,0,1,3.93457-2.22412c-.002-.17041-.002-.34521-.00146-.52393a2.76774,2.76774,0,0,0-.29346-.68018,4.75631,4.75631,0,0,1-.5957-1.63867,4.86255,4.86255,0,0,1-.46973-1.90674,2.09711,2.09711,0,0,1,.15332-.82422c-.01611-.09131-.03125-.18408-.04687-.27783l-.09082-.52783a3.56714,3.56714,0,0,1,1.82031-4.11719c.00244-.05566.00439-.1123.00732-.168.02881-.55762.064-1.251.74512-1.51953a1.13934,1.13934,0,0,1,1.13916.24268,7.33545,7.33545,0,0,0,2.43994.92285c.29834.07617.5376.13916.67627.18848a3.62968,3.62968,0,0,1,2.36621,4.45117l-.09082.52734c-.01562.09375-.03076.18652-.04687.27783a2.09711,2.09711,0,0,1,.15332.82422,4.86756,4.86756,0,0,1-.46924,1.90625,4.95581,4.95581,0,0,1-.60449,1.67529,3.09713,3.09713,0,0,0-.28516.65137c.00049.17432.00049.34766-.00146.5166A9.72415,9.72415,0,0,1,37.187,32.48047a.99915.99915,0,0,1,.16162,1.335A9.15275,9.15275,0,0,1,30,38Zm-5.14209-4.60352A6.7897,6.7897,0,0,0,30,36a6.7897,6.7897,0,0,0,5.14209-2.60352,6.441,6.441,0,0,0-2.64355-1.25635,1.51965,1.51965,0,0,1-1.25439-1.55322c.01123-.26709.01074-.55176.00977-.84863a3.42673,3.42673,0,0,1,.50732-1.56592,3.00026,3.00026,0,0,0,.40234-1.06787.99833.99833,0,0,1,.09766-.38623,3.14528,3.14528,0,0,0,.35156-1.21143c0-.01172.001-.01758.00391-.01855a1.00109,1.00109,0,0,1-.19043-.79443c.0376-.20068.07227-.40723.10791-.61914l.09424-.55127c.27539-1.52734-.42529-1.98486-1.06641-2.2124-.10205-.03613-.2793-.07861-.49951-.13428a15.96155,15.96155,0,0,1-1.94531-.59326,1.13659,1.13659,0,0,1-.64307.78418,1.66131,1.66131,0,0,0-1.10254,2.15527l.09424.55176c.03564.21191.07031.41846.10791.61914a.99971.99971,0,0,1-.18213.7832,3.12237,3.12237,0,0,0,.34717,1.24121.99833.99833,0,0,1,.09766.38623,2.78108,2.78108,0,0,0,.38867,1.022,3.49539,3.49539,0,0,1,.521,1.60889c-.001.2998-.00146.58447.00977.853a1.51918,1.51918,0,0,1-1.25439,1.55176A6.441,6.441,0,0,0,24.85791,33.39648Zm1.8999-2.7251v0Zm6.48438-.002v0Zm-.542-5.08594.00049.00049Z" style="fill:#6d6daa"/></svg>