<svg id="Food_2" xmlns="http://www.w3.org/2000/svg" width="60" height="60" viewBox="0 0 60 60"><title>006b040</title><path d="M52.306,19.00066c-2.44226-8.6261-11.05579-15-21.30682-15s-18.86456,6.3739-21.30682,15Z" style="fill:#ced8ee"/><path d="M31.999,4.00066c3.849,0,10.083,6.3739,11,15h9A20.55085,20.55085,0,0,0,31.999,4.00066Z" style="fill:#2c4b75;opacity:0.2"/><path d="M15.999,19.00066h9c.68774-8.6261,3.11328-15,6-15C23.78226,4.00066,17.71836,10.37457,15.999,19.00066Z" style="fill:#fff;opacity:0.75"/><path d="M26.999,19.00066h3c0-4.00018.23021-15,1-15C29.07454,4.00066,27.4575,10.37457,26.999,19.00066Z" style="fill:#fff;opacity:0.75"/><polygon points="50.999 23.001 10.999 23.001 8.999 19.001 52.999 19.001 50.999 23.001" style="fill:#ced8ee;fill-rule:evenodd"/><polygon points="42.764 19.001 41.999 23.001 51.053 23.001 52.999 19.001 42.764 19.001" style="fill:#2c4b75;fill-rule:evenodd;opacity:0.2"/><polygon points="16.499 19.001 17.772 23.001 25.499 23.001 24.999 19.001 16.499 19.001" style="fill:#fff;fill-rule:evenodd;opacity:0.75"/><polygon points="26.999 19.001 27.423 23.001 30.166 23.001 29.999 19.001 26.999 19.001" style="fill:#fff;fill-rule:evenodd;opacity:0.75"/><path d="M10.689,42.88048a1.334,1.334,0,0,0-1.9,0l-3.35,4.3a1.25892,1.25892,0,0,0-.14,1.74c4.44,4.44,7.42,7.47,9.69,9.69a1.352,1.352,0,0,0,1.9,0l3.81-3.82a1.334,1.334,0,0,0,0-1.9Z" style="fill:#97c1ff"/><path d="M20.699,52.8905l-1.91669-1.91669a1.33387,1.33387,0,0,1,0,1.9l-3.81,3.82a1.352,1.352,0,0,1-1.9,0c-.5191-.50769.88916.9118,1.91669,1.91669a1.352,1.352,0,0,0,1.9,0l3.81-3.82A1.334,1.334,0,0,0,20.699,52.8905Z" style="fill:#2c4b75;opacity:0.2"/><path d="M7.52232,49.26379l3.35-4.3a1.33387,1.33387,0,0,1,1.9,0L10.689,42.88049a1.334,1.334,0,0,0-1.9,0l-3.35,4.3a1.25891,1.25891,0,0,0-.14,1.74C8.75126,52.37273,7.05234,49.73382,7.52232,49.26379Z" style="fill:#fff;opacity:0.5"/><path d="M36.909,30.71048c-1.01,1.42-3.51,3.31-5.45,4.74a14.09794,14.09794,0,0,1-2.81,1.7l-.03-.08c2.54-1.52,4.88-7.42,4.88-7.42-.21-.71,1.02-3.76,2.82-5.26,1.81-1.5,4.8-1.95,4.8-.53l.1.14A12.89371,12.89371,0,0,0,36.909,30.71048Z" style="fill:#f9e2dc"/><path d="M41.479,23.82048c2.16-1.38,4.7-.44,2.89,1.81-2.34,2.91-2.27,5.28-3.29,7.32-.16,2.29-3.55,4.81-4.94,6.46a28.45974,28.45974,0,0,1-6.81,6.2,105.83659,105.83659,0,0,0-9.37,6.54l-7.32-7.32.33-.34a11.48346,11.48346,0,0,1,2.23-7.21,22.41756,22.41756,0,0,0,2.55-4.88c1.06-5.81-.31-6.81.55-8.49a2.301,2.301,0,0,1,3.51-.15,6.77617,6.77617,0,0,1,1.32,4.78c-.25,3.34-1.11,6.78.71,8.13a4.40061,4.40061,0,0,0,4.81.48,14.09794,14.09794,0,0,0,2.81-1.7c1.94-1.43,4.44-3.32,5.45-4.74a12.89371,12.89371,0,0,1,4.31-6.71C41.299,23.94048,41.389,23.88048,41.479,23.82048Z" style="fill:#f9e2dc"/><g style="opacity:0.2"><path d="M39.66567,31.08381c-.16,2.29-4.13664,4.67668-5.52665,6.32664a28.45973,28.45973,0,0,1-6.81,6.2,105.84076,105.84076,0,0,0-9.37,6.54l2,2a105.84076,105.84076,0,0,1,9.37-6.54,28.45973,28.45973,0,0,0,6.81-6.2c1.39-1.65,4.78-4.17,4.94-6.46a66.5062,66.5062,0,0,0,3.29-7.32C45.999,21.33381,40.999,27.41715,39.66567,31.08381Z" style="fill:#cc7e54"/></g><g style="opacity:0.5"><path d="M31.649,37.15044a14.10044,14.10044,0,0,0,2.81-1.7c1.94-1.43005,4.44-3.32,5.45-4.74005a12.89409,12.89409,0,0,1,4.31-6.71c.08-.06.17-.12.26-.18.09692-.062.19513-.11383.29321-.1665-.53052-.65-1.97931-.67291-3.29321.1665-.09.06-.18.12-.26.18a12.89409,12.89409,0,0,0-4.31,6.71c-1.00995,1.42-3.50995,3.31-5.45,4.74005a14.10044,14.10044,0,0,1-2.81,1.7c-.19025.08368-.37616.1524-.56067.21533A4.44737,4.44737,0,0,0,31.649,37.15044Z" style="fill:#fff"/><path d="M14.16567,46.58381l.87147-1.01164a3.88988,3.88988,0,0,0,.94414-2.25353,11.67113,11.67113,0,0,1,2.21774-6.0382,22.4175,22.4175,0,0,0,2.55-4.88c1.06-5.81-.31-6.81.55-8.49a1.255,1.255,0,0,1,.27753-.34515,2.28482,2.28482,0,0,0-3.27753.34515c-.86,1.68.51,2.68-.55,8.49a22.4175,22.4175,0,0,1-2.55,4.88,11.4837,11.4837,0,0,0-2.23,7.21l-.33.34Z" style="fill:#fff"/></g><path d="M36.319,24.3905a7.67544,7.67544,0,0,0-1.39575,1.61h4.30249a9.16634,9.16634,0,0,1,1.99323-2l-.1-.14C41.119,22.44048,38.129,22.8905,36.319,24.3905Z" style="fill:#cc7e54;opacity:0.2"/><path d="M19.92871,53.17041a.99977.99977,0,0,1-.67285-1.73975,1.11717,1.11717,0,0,1,.11035-.08691,106.19972,106.19972,0,0,1,9.43848-6.58447A27.289,27.289,0,0,0,35.376,38.76367c.40527-.48047.94922-1.01221,1.52637-1.5752,1.30371-1.27295,3.08887-3.01611,3.17871-4.30762a1.019,1.019,0,0,1,.10352-.37744,13.03559,13.03559,0,0,0,.748-2.08105,14.21659,14.21659,0,0,1,2.65723-5.41846,1.4053,1.4053,0,0,0,.39551-.7583,2.27009,2.27009,0,0,0-1.96875.41748c-.05664.03857-.13184.08789-.19824.13721a11.98694,11.98694,0,0,0-3.94824,6.188,1.02057,1.02057,0,0,1-.14551.30176c-1.083,1.52246-3.49609,3.36133-5.67187,4.96582a14.96715,14.96715,0,0,1-3.0166,1.81689,5.36022,5.36022,0,0,1-5.78809-.5957c-1.92871-1.43018-1.626-4.17578-1.30664-7.082.07031-.63574.1416-1.28467.19043-1.9292a5.823,5.823,0,0,0-1.06152-4.03076,1.3326,1.3326,0,0,0-1.18457-.397,1.04987,1.04987,0,0,0-.69629.32764,2.85018,2.85018,0,0,0-.12988,1.76367,21.12383,21.12383,0,0,1-.32715,6.4502,23.01127,23.01127,0,0,1-2.72852,5.29492,10.60316,10.60316,0,0,0-2.03906,6.52881,1.00008,1.00008,0,0,1-1.99219.17822A12.44749,12.44749,0,0,1,14.39453,36.686a21.59731,21.59731,0,0,0,2.3877-4.542,18.97575,18.97575,0,0,0,.28613-5.82861,4.654,4.654,0,0,1,.33984-2.86035,2.8849,2.8849,0,0,1,2.208-1.39844A3.30262,3.30262,0,0,1,22.5459,23.084,7.77467,7.77467,0,0,1,24.126,28.61768c-.0498.66553-.124,1.3374-.19629,1.99609-.25488,2.31982-.49707,4.51074.50488,5.25342a3.4105,3.4105,0,0,0,3.8125.36768A13.07493,13.07493,0,0,0,30.86523,34.646,31.62331,31.62331,0,0,0,36.001,30.25781c.40723-1.33936,1.749-5.0293,4.64063-7.07373.07129-.0542.17578-.125.28125-.19531,1.67676-1.0708,3.63477-1.084,4.57031-.04.28613.31934,1.1084,1.502-.34473,3.30859a12.37117,12.37117,0,0,0-2.2998,4.7373,15.472,15.472,0,0,1-.793,2.2334c-.25293,1.9707-2.11035,3.78467-3.75586,5.3916-.541.52783-1.05176,1.02637-1.39648,1.43555a29.1174,29.1174,0,0,1-7.04785,6.40576,105.61071,105.61071,0,0,0-9.2666,6.46631,1.06754,1.06754,0,0,1-.09082.06543A.99342.99342,0,0,1,19.92871,53.17041Z" style="fill:#6d6daa"/><path d="M28.62012,38.07031a.99982.99982,0,0,1-.51465-1.85791c1.76465-1.05615,3.67285-5.01025,4.375-6.71191-.02148-1.55029,1.53223-4.48975,3.19922-5.87842,1.4502-1.20312,3.92773-2.07422,5.40039-1.37988a1.73487,1.73487,0,0,1,1.03906,1.61816.9999.9999,0,0,1-1.9873.15771A4.72777,4.72777,0,0,0,36.958,25.16064,8.27035,8.27035,0,0,0,34.47559,29.457a.75573.75573,0,0,1-.04687.562c-.252.63623-2.54492,6.2627-5.2959,7.90918A.997.997,0,0,1,28.62012,38.07031Z" style="fill:#6d6daa"/><path d="M15.94238,59.99854a2.35327,2.35327,0,0,1-1.6543-.6748c-1.42578-1.394-3.13281-3.10986-5.30664-5.29346-1.28711-1.293-2.7373-2.75-4.38965-4.40283a2.01646,2.01646,0,0,1-.583-1.43945,2.44273,2.44273,0,0,1,.6748-1.66455L8,42.26563a1.13355,1.13355,0,0,1,.0752-.08545,2.313,2.313,0,0,1,1.66211-.69727h.002a2.31111,2.31111,0,0,1,1.66309.69678L21.40625,52.18359a2.33652,2.33652,0,0,1-.00586,3.32031l-3.80371,3.8125A2.33055,2.33055,0,0,1,15.94238,59.99854ZM9.53125,43.55518,6.22852,47.79492a.94887.94887,0,0,1-.083.09375.41974.41974,0,0,0-.13281.335c1.64746,1.64355,3.09863,3.10205,4.38672,4.39551,2.165,2.17627,3.86621,3.88525,5.28906,5.27637a.35193.35193,0,0,0,.49316.0083l3.80957-3.81934a.33909.33909,0,0,0,.10449-.24414A.33.33,0,0,0,19.998,53.604L11.93164,45.5376h0L9.98242,43.5874a.33584.33584,0,0,0-.24316-.10449A.42923.42923,0,0,0,9.53125,43.55518Z" style="fill:#6d6daa"/><path d="M9.74023,47.68994a.98224.98224,0,0,1-.38086-.07031,1.25069,1.25069,0,0,1-.3291-.21973.93483.93483,0,0,1-.21094-.33008.99847.99847,0,0,1-.0791-.37988A1.25284,1.25284,0,0,1,8.75977,46.5a.60843.60843,0,0,1,.05957-.18994.57348.57348,0,0,1,.09082-.17041.59168.59168,0,0,1,.12012-.1499.90112.90112,0,0,1,.3291-.21973,1.00114,1.00114,0,0,1,.76074,0,.91293.91293,0,0,1,.33008.21973.92371.92371,0,0,1,.11914.1499.57348.57348,0,0,1,.09082.17041.60843.60843,0,0,1,.05957.18994,1.25485,1.25485,0,0,1,.02051.18994.99953.99953,0,0,1-.08008.37988.94653.94653,0,0,1-.21.33008,1.2724,1.2724,0,0,1-.33008.21973A.98074.98074,0,0,1,9.74023,47.68994Z" style="fill:#6d6daa"/><path d="M50.999,24.00049h-40a1.0004,1.0004,0,0,1-.89453-.55273l-2-4A1.0001,1.0001,0,0,1,8.999,18.00049h44a1.0001,1.0001,0,0,1,.89453,1.44727l-2,4A1.0004,1.0004,0,0,1,50.999,24.00049Zm-39.38184-2H50.38086l1-2H10.61719Z" style="fill:#6d6daa"/><path d="M54.999,20.00049h-48a1,1,0,0,1,0-2h48a1,1,0,0,1,0,2Z" style="fill:#6d6daa"/><path d="M30.999,5.00049a.99974.99974,0,0,1-1-1v-3a1,1,0,0,1,2,0v3A.99974.99974,0,0,1,30.999,5.00049Z" style="fill:#6d6daa"/><path d="M33.999,2.00049h-6a1,1,0,1,1,0-2h6a1,1,0,1,1,0,2Z" style="fill:#6d6daa"/><path d="M52.30566,20.00049H9.69238A.99953.99953,0,0,1,8.73047,18.728C11.35254,9.46777,20.50977,3.00049,30.999,3.00049S50.64551,9.46777,53.26758,18.728a.99953.99953,0,0,1-.96191,1.27246Zm-41.23828-2H50.93066c-2.82812-7.71777-10.82422-13-19.93164-13S13.89551,10.28271,11.06738,18.00049Z" style="fill:#6d6daa"/></svg>