<svg id="Food_2" xmlns="http://www.w3.org/2000/svg" width="60" height="60" viewBox="0 0 60 60"><title>006b035</title><polygon points="16 58 18 53 20 58 16 58" style="fill:#ff9797"/><polygon points="22 58 24 54 26 58 22 58" style="fill:#ffc661"/><polygon points="28 58 30 53 32 58 28 58" style="fill:#ff9797"/><polygon points="34 58 36 54 38 58 34 58" style="fill:#ffc661"/><polygon points="40 58 42 53 44 58 40 58" style="fill:#ff9797"/><g style="opacity:0.5"><path d="M23.001,10.57471a.99868.99868,0,0,1-.89551-.55273l-1-2a1.0011,1.0011,0,0,1,0-.89453l.77637-1.55273L21.10547,4.022a1.00012,1.00012,0,0,1,1.78906-.89453l1,2a1.0011,1.0011,0,0,1,0,.89453l-.77637,1.55273.77637,1.55273a.99991.99991,0,0,1-.89355,1.44727Z" style="fill:#6d6daa"/><path d="M18.001,13a.99868.99868,0,0,1-.89551-.55273l-1-2a1.0011,1.0011,0,0,1,0-.89453L16.88184,8l-.77637-1.55273a1.00012,1.00012,0,0,1,1.78906-.89453l1,2a1.0011,1.0011,0,0,1,0,.89453L18.11816,10l.77637,1.55273A.99991.99991,0,0,1,18.001,13Z" style="fill:#6d6daa"/><path d="M43.001,13a.99868.99868,0,0,1-.89551-.55273l-1-2a1.0011,1.0011,0,0,1,0-.89453L41.88184,8l-.77637-1.55273a1.00012,1.00012,0,0,1,1.78906-.89453l1,2a1.0011,1.0011,0,0,1,0,.89453L43.11816,10l.77637,1.55273A.99991.99991,0,0,1,43.001,13Z" style="fill:#6d6daa"/><path d="M38.001,10.57471a.99868.99868,0,0,1-.89551-.55273l-1-2a1.0011,1.0011,0,0,1,0-.89453l.77637-1.55273L36.10547,4.022a1.00012,1.00012,0,0,1,1.78906-.89453l1,2a1.0011,1.0011,0,0,1,0,.89453l-.77637,1.55273.77637,1.55273a.99991.99991,0,0,1-.89355,1.44727Z" style="fill:#6d6daa"/><path d="M33.001,9a.99868.99868,0,0,1-.89551-.55273l-1-2a1.0011,1.0011,0,0,1,0-.89453L31.88184,4l-.77637-1.55273a1.00012,1.00012,0,0,1,1.78906-.89453l1,2a1.0011,1.0011,0,0,1,0,.89453L33.11816,6l.77637,1.55273A.99991.99991,0,0,1,33.001,9Z" style="fill:#6d6daa"/><path d="M28.001,9a.99868.99868,0,0,1-.89551-.55273l-1-2a1.0011,1.0011,0,0,1,0-.89453L26.88184,4l-.77637-1.55273a1.00012,1.00012,0,0,1,1.78906-.89453l1,2a1.0011,1.0011,0,0,1,0,.89453L28.11816,6l.77637,1.55273A.99991.99991,0,0,1,28.001,9Z" style="fill:#6d6daa"/></g><path d="M20.00049,59.00049a1.00172,1.00172,0,0,1-.9292-.62891L18,55.69238l-1.07129,2.6792a1.00029,1.00029,0,0,1-1.85742-.74316l2-5a1.00046,1.00046,0,0,1,1.85742,0l2,5a1.00074,1.00074,0,0,1-.92822,1.37207Z" style="fill:#6d6daa"/><path d="M26.001,59a.99868.99868,0,0,1-.89551-.55273L24,56.23584l-1.10547,2.21143a1.00012,1.00012,0,0,1-1.78906-.89453l2-4a1.04127,1.04127,0,0,1,1.78906,0l2,4A.99991.99991,0,0,1,26.001,59Z" style="fill:#6d6daa"/><path d="M32.00049,59.00049a1.00172,1.00172,0,0,1-.9292-.62891L30,55.69238l-1.07129,2.6792a1.00029,1.00029,0,0,1-1.85742-.74316l2-5a1.00046,1.00046,0,0,1,1.85742,0l2,5a1.00074,1.00074,0,0,1-.92822,1.37207Z" style="fill:#6d6daa"/><path d="M38.001,59a.99868.99868,0,0,1-.89551-.55273L36,56.23584l-1.10547,2.21143a1.00012,1.00012,0,0,1-1.78906-.89453l2-4a1.04127,1.04127,0,0,1,1.78906,0l2,4A.99991.99991,0,0,1,38.001,59Z" style="fill:#6d6daa"/><path d="M44.00049,59.00049a1.00172,1.00172,0,0,1-.9292-.62891L42,55.69238l-1.07129,2.6792a1.00029,1.00029,0,0,1-1.85742-.74316l2-5a1.00046,1.00046,0,0,1,1.85742,0l2,5a1.00074,1.00074,0,0,1-.92822,1.37207Z" style="fill:#6d6daa"/><path d="M57,29.96v3.6a3.86514,3.86514,0,0,1-2.18,3.54l-5.79,2.66V43.4a6.60651,6.60651,0,0,1-6.6,6.6H17.59a6.613,6.613,0,0,1-6.6-6.6V39.76L5.19,37.1A3.8741,3.8741,0,0,1,3,33.56v-3.6A3.96906,3.96906,0,0,1,6.96,26H53.05A3.96051,3.96051,0,0,1,57,29.96Zm-5.65,3.38A1.23607,1.23607,0,0,0,50.79,31H49.03v3.51ZM10.99,34.51V31H9.23a1.23607,1.23607,0,0,0-.56,2.34Z" style="fill:#ced8ee"/><path d="M49,23.63V26H11V23.63a4.62842,4.62842,0,0,1,4.62-4.62h7.37V18a7,7,0,1,1,14,0v1.01h7.39A4.622,4.622,0,0,1,49,23.63ZM31.99,19V17.75a1.62015,1.62015,0,0,0-.59-1.24A2.16834,2.16834,0,0,0,29.99,16a1.88812,1.88812,0,0,0-2,1.75V19Z" style="fill:#ced8ee"/><g style="opacity:0.2"><path d="M11.99,37.89067a1.20732,1.20732,0,0,0-.71943-1.10435L5.19,34.1A3.87409,3.87409,0,0,1,3,30.56v3A3.87409,3.87409,0,0,0,5.19,37.1l6.8,3.00419Z" style="fill:#2c4b75"/><path d="M42.43005,47H17.59a6.61294,6.61294,0,0,1-6.6-6.6v3a6.61294,6.61294,0,0,0,6.6,6.6H42.43005a6.60655,6.60655,0,0,0,6.6-6.6v-3A6.60655,6.60655,0,0,1,42.43005,47Z" style="fill:#2c4b75"/><path d="M54.82,34.1l-5.79,2.66v3l5.79-2.66A3.86512,3.86512,0,0,0,57,33.56v-3A3.86512,3.86512,0,0,1,54.82,34.1Z" style="fill:#2c4b75"/><path d="M44.03,19h-7a5,5,0,0,1,5,5V43c0,3.866-1.17406,7-5.04,7h5.04a7,7,0,0,0,7-7V24A5,5,0,0,0,44.03,19Z" style="fill:#2c4b75"/></g><g style="opacity:0.75"><path d="M44.38,19.01H36.99V18a7,7,0,0,0-14,0v1.01H15.61a4.62839,4.62839,0,0,0-4.62,4.62v3a4.62839,4.62839,0,0,1,4.62-4.62h7.38V21a7,7,0,1,1,14,0v1.01h7.39A4.622,4.622,0,0,1,49,26.63v-3A4.622,4.622,0,0,0,44.38,19.01Z" style="fill:#fff"/><path d="M16,27h8a0,0,0,0,1,0,0V50a0,0,0,0,1,0,0H22a6,6,0,0,1-6-6V27A0,0,0,0,1,16,27Z" style="fill:#fff"/><rect x="26" y="27" width="3" height="23" style="fill:#fff"/><rect x="20.99" y="19" width="21.01" height="3" style="fill:#fff"/><path d="M53.02,27H6.96A3.969,3.969,0,0,0,3,30.96v3A3.969,3.969,0,0,1,6.96,30H53.02a3.96044,3.96044,0,0,1,3.95,3.96v-3A3.96044,3.96044,0,0,0,53.02,27Z" style="fill:#fff"/><path d="M24,24H16a5,5,0,0,1,5-5h3Z" style="fill:#fff"/><rect x="26" y="19" width="3" height="5" style="fill:#fff"/></g><path d="M49.02539,35.50732a1.0002,1.0002,0,0,1-1-1V31a1,1,0,0,1,1-1h1.7627a2.23691,2.23691,0,0,1,1.00439,4.23584l-2.31787,1.165A.99919.99919,0,0,1,49.02539,35.50732Zm1-3.50732v.88574l.86914-.437a.235.235,0,0,0,.13086-.21143A.23756.23756,0,0,0,50.78809,32Z" style="fill:#6d6daa"/><path d="M10.98926,35.50732a.99919.99919,0,0,1-.44922-.10645l-2.31836-1.165A2.23706,2.23706,0,0,1,9.22607,30h1.76318a1,1,0,0,1,1,1v3.50732a1.0002,1.0002,0,0,1-1,1ZM9.22607,32a.237.237,0,0,0-.10645.44873l.86963.437V32Z" style="fill:#6d6daa"/><path d="M49.02539,27a1,1,0,0,1-1-1V23.62744a3.62167,3.62167,0,0,0-3.61816-3.61719h-7.417a1,1,0,0,1-1-1V18a6,6,0,1,0-12,0v1.01025a1,1,0,0,1-1,1H15.61035a3.62324,3.62324,0,0,0-3.62109,3.61719V26a1,1,0,1,1-2,0V23.62744a5.62553,5.62553,0,0,1,5.62109-5.61719L21.99023,18a8,8,0,1,1,16,0v.01025h6.417a5.62428,5.62428,0,0,1,5.61816,5.61719V26A1,1,0,0,1,49.02539,27Z" style="fill:#6d6daa"/><path d="M31.99023,20a1,1,0,0,1-1-1V17.75c0-.40674-.458-.75-1-.75s-1,.34326-1,.75V19a1,1,0,0,1-2,0V17.75a3.01136,3.01136,0,0,1,6,0V19A1,1,0,0,1,31.99023,20Z" style="fill:#6d6daa"/><path d="M42.42773,51H17.58984a7.60771,7.60771,0,0,1-7.60059-7.59766V40.40088L4.772,38.01221A4.88305,4.88305,0,0,1,2,33.5625V29.958A4.9641,4.9641,0,0,1,6.959,25H53.042A4.96358,4.96358,0,0,1,58,29.958V33.5625a4.86654,4.86654,0,0,1-2.7417,4.43506L50.02539,40.3999v3.00244A7.60614,7.60614,0,0,1,42.42773,51ZM6.959,27A2.96181,2.96181,0,0,0,4,29.958V33.5625a2.86955,2.86955,0,0,0,1.63574,2.646l5.77,2.64111a.99982.99982,0,0,1,.5835.90918v3.64355A5.60542,5.60542,0,0,0,17.58984,49H42.42773a5.60417,5.60417,0,0,0,5.59766-5.59766V39.75879a.99972.99972,0,0,1,.583-.90869l5.78613-2.65576A2.85657,2.85657,0,0,0,56,33.5625V29.958A2.9616,2.9616,0,0,0,53.042,27Z" style="fill:#6d6daa"/></svg>