<svg id="Food_2" xmlns="http://www.w3.org/2000/svg" width="60" height="60" viewBox="0 0 60 60"><title>006b037</title><rect x="19" y="17.00066" width="26" height="4" style="fill:#ced8ee"/><rect x="38" y="17.00066" width="7" height="4" style="fill:#2c4b75;opacity:0.2"/><rect x="23" y="17.00066" width="5" height="4" style="fill:#fff;opacity:0.75"/><rect x="30" y="17.00066" width="2" height="4" style="fill:#fff;opacity:0.75"/><rect x="9" y="31.00048" width="46" height="23.00018" style="fill:#eef6ff"/><rect x="9" y="43.00048" width="46" height="3" style="fill:#2c4b75;opacity:0.2"/><rect x="9" y="46.00066" width="46" height="8" style="fill:#ced8ee"/><rect x="9" y="51.00048" width="46" height="3.00018" style="fill:#2c4b75;opacity:0.2"/><rect x="9" y="46.00066" width="46" height="2.99982" style="fill:#fff;opacity:0.5"/><path d="M19,17.00066a13,13,0,1,1,26,0Z" style="fill:#ced8ee"/><path d="M23,17.00066h5c0-10.00018,2.34308-13,4-13C27.5816,4.00066,23,9.82073,23,17.00066Z" style="fill:#fff;opacity:0.75"/><path d="M30,17.00066l2-.00018C32,7.0003,31.58577,4.00066,32,4.00066,30.8954,4.00066,30,9.82073,30,17.00066Z" style="fill:#fff;opacity:0.75"/><path d="M32,4.00066c2.6925,0,6,5.82007,6,13h7A12.99973,12.99973,0,0,0,32,4.00066Z" style="fill:#2c4b75;opacity:0.2"/><circle cx="3" cy="15.00066" r="2" style="fill:#ced8ee"/><path d="M55.21051,21.00066H8.78912a2,2,0,0,0-1.98767,1.77783L5.00128,32.89422a2.99913,2.99913,0,0,0,5.99823-.0144l.00031.02222h.00226a2.99766,2.99766,0,0,0,5.99518,0h.00482a2.99766,2.99766,0,0,0,5.99518,0h.00482a2.99766,2.99766,0,0,0,5.99518,0h.00482a2.99766,2.99766,0,0,0,5.99518,0h.00482a2.99766,2.99766,0,0,0,5.99518,0h.00482a2.99766,2.99766,0,0,0,5.99518,0h.00482a2.99766,2.99766,0,0,0,5.99518,0h.00256l.00031-.02222a2.99913,2.99913,0,0,0,5.99823.0144L57.19812,22.77849A2,2,0,0,0,55.21051,21.00066Z" style="fill:#ff9797"/><path d="M55.99994,33.00048a2.99978,2.99978,0,0,1-2.99982-2.99976l-.00031.02222h-.00256a2.99766,2.99766,0,0,1-5.99518,0h-.00482a2.99766,2.99766,0,0,1-5.99518,0h-.00482a2.99766,2.99766,0,0,1-5.99518,0h-.00482a2.99766,2.99766,0,0,1-5.99518,0h-.00482a2.99766,2.99766,0,0,1-5.99518,0h-.00482a2.99766,2.99766,0,0,1-5.99518,0h-.00482a2.99766,2.99766,0,0,1-5.99518,0h-.00226l-.00031-.02222a2.994,2.994,0,0,1-5.70892,1.26788l-.28931,1.62561a2.99913,2.99913,0,0,0,5.99823-.0144l.00031.02222h.00226a2.99766,2.99766,0,0,0,5.99518,0h.00482a2.99766,2.99766,0,0,0,5.99518,0h.00482a2.99766,2.99766,0,0,0,5.99518,0h.00482a2.99766,2.99766,0,0,0,5.99518,0h.00482a2.99766,2.99766,0,0,0,5.99518,0h.00482a2.99766,2.99766,0,0,0,5.99518,0h.00482a2.99766,2.99766,0,0,0,5.99518,0h.00256l.00031-.02222a2.99913,2.99913,0,0,0,5.99823.0144L58.709,31.26861A2.99154,2.99154,0,0,1,55.99994,33.00048Z" style="fill:#750000;opacity:0.2"/><path d="M6.80145,25.77831a2,2,0,0,1,1.98767-1.77783H55.21051a2,2,0,0,1,1.98761,1.77783l1.49469,8.399a2.97358,2.97358,0,0,0,.30554-1.28308L57.19812,22.7785a2,2,0,0,0-1.98761-1.77783H8.78912A2,2,0,0,0,6.80145,22.7785L5.00128,32.89422a2.9738,2.9738,0,0,0,.30548,1.28314Z" style="fill:#fff;opacity:0.5"/><path d="M45,22.00049H19a.99974.99974,0,0,1-1-1v-4a.99974.99974,0,0,1,1-1H45a.99974.99974,0,0,1,1,1v4A.99974.99974,0,0,1,45,22.00049Zm-25-2H44v-2H20Z" style="fill:#6d6daa"/><path d="M5.001,33.89795c-.02051,0-.042-.00049-.0625-.002A.99659.99659,0,0,1,4,32.90186v-.022A1.00022,1.00022,0,0,1,5.998,32.811c.001.02148.002.04346.002.06543v.00342a1.3028,1.3028,0,0,1-.00684.13818A1.00328,1.00328,0,0,1,5.001,33.89795Z" style="fill:#232e38"/><path d="M55,55.00049H9a.99974.99974,0,0,1-1-1v-18a1,1,0,0,1,2,0v17H54v-17a1,1,0,0,1,2,0v18A.99974.99974,0,0,1,55,55.00049Z" style="fill:#6d6daa"/><path d="M55,55.00049H9a.99974.99974,0,0,1-1-1v-8a.99974.99974,0,0,1,1-1H55a.99974.99974,0,0,1,1,1v8A.99974.99974,0,0,1,55,55.00049Zm-45-2H54v-6H10Z" style="fill:#6d6daa"/><path d="M45,18.00049a.99974.99974,0,0,1-1-1,12,12,0,0,0-24,0,1,1,0,0,1-2,0,14,14,0,0,1,28,0A.99974.99974,0,0,1,45,18.00049Z" style="fill:#6d6daa"/><path d="M47,18.00049H17a1,1,0,0,1,0-2H47a1,1,0,0,1,0,2Z" style="fill:#6d6daa"/><path d="M9,22.00049a.99974.99974,0,0,1-1-1v-4a1.001,1.001,0,0,0-1-1H5a1,1,0,0,1,0-2H7a3.00328,3.00328,0,0,1,3,3v4A.99974.99974,0,0,1,9,22.00049Z" style="fill:#6d6daa"/><path d="M32,5.00049a.99974.99974,0,0,1-1-1v-2a1,1,0,0,1,2,0v2A.99974.99974,0,0,1,32,5.00049Z" style="fill:#6d6daa"/><path d="M3,18.00049a3,3,0,1,1,3-3A3.00328,3.00328,0,0,1,3,18.00049Zm0-4a1,1,0,1,0,1,1A1.001,1.001,0,0,0,3,14.00049Z" style="fill:#6d6daa"/><path d="M56,36.87939a3.9938,3.9938,0,0,1-3.00293-1.35986A3.983,3.983,0,0,1,47,35.5166a3.98344,3.98344,0,0,1-6,0,3.98344,3.98344,0,0,1-6,0,3.98344,3.98344,0,0,1-6,0,3.98344,3.98344,0,0,1-6,0,3.98344,3.98344,0,0,1-6,0,3.983,3.983,0,0,1-5.99707.00293,3.998,3.998,0,0,1-7.002-2.62012,1.01823,1.01823,0,0,1,.01563-.18066L5.81738,22.603a2.97645,2.97645,0,0,1,2.97168-2.60254H55.21094a2.99834,2.99834,0,0,1,2.98145,2.6665l1.79,10.05176a1.01279,1.01279,0,0,1,.01563.18018A4.00732,4.00732,0,0,1,56,36.87939Zm-2-4.001v.00146a1.99907,1.99907,0,0,0,3.99609.09082L56.21387,22.95361a1.02112,1.02112,0,0,0-1.00293-.95312H8.78906a.99756.99756,0,0,0-.99316.88818l-1.793,10.082A1.99957,1.99957,0,0,0,10,32.87988a1,1,0,0,1,2,0,1.99856,1.99856,0,0,0,3.99707.01465A1.00249,1.00249,0,0,1,18.002,32.894a1.9976,1.9976,0,0,0,3.99512.00049A1.00249,1.00249,0,0,1,24.002,32.894a1.9976,1.9976,0,0,0,3.99512.00049A1.00249,1.00249,0,0,1,30.002,32.894a1.9976,1.9976,0,0,0,3.99512.00049A1.00249,1.00249,0,0,1,36.002,32.894a1.9976,1.9976,0,0,0,3.99512.00049A1.00249,1.00249,0,0,1,42.002,32.894a1.9976,1.9976,0,0,0,3.99512.00049A1.00249,1.00249,0,0,1,48.002,32.894a1.9976,1.9976,0,0,0,3.99512.00049.89951.89951,0,0,1,.01074-.13623A.99979.99979,0,0,1,54,32.87842Z" style="fill:#6d6daa"/><path d="M53,33.90186a.99974.99974,0,0,1-1-1V31.00049a1,1,0,0,1,2,0v1.90137A.99974.99974,0,0,1,53,33.90186Z" style="fill:#6d6daa"/><path d="M41,33.90186a.99974.99974,0,0,1-1-1V31.00049a1,1,0,0,1,2,0v1.90137A.99974.99974,0,0,1,41,33.90186Z" style="fill:#6d6daa"/><path d="M11,33.90186a.99974.99974,0,0,1-1-1V31.00049a1,1,0,0,1,2,0v1.90137A.99974.99974,0,0,1,11,33.90186Z" style="fill:#6d6daa"/><path d="M35,33.90186a.99974.99974,0,0,1-1-1V31.00049a1,1,0,0,1,2,0v1.90137A.99974.99974,0,0,1,35,33.90186Z" style="fill:#6d6daa"/><path d="M23,33.90186a.99974.99974,0,0,1-1-1V31.00049a1,1,0,0,1,2,0v1.90137A.99974.99974,0,0,1,23,33.90186Z" style="fill:#6d6daa"/><circle cx="45" cy="54.00066" r="4" style="fill:#9eb2cc"/><path d="M45,56.00049a2,2,0,1,1,2-2A2.00229,2.00229,0,0,1,45,56.00049ZM45,53.999v0Z" style="fill:#6d6daa"/><path d="M45,59.00049a5,5,0,1,1,5-5A5.00589,5.00589,0,0,1,45,59.00049Zm0-8a3,3,0,1,0,3,3A3.00328,3.00328,0,0,0,45,51.00049Z" style="fill:#6d6daa"/><circle cx="19" cy="54.00066" r="4" style="fill:#9eb2cc"/><path d="M19,56.00049a2,2,0,1,1,2-2A2.00229,2.00229,0,0,1,19,56.00049ZM19,53.999v0Z" style="fill:#6d6daa"/><path d="M19,59.00049a5,5,0,1,1,5-5A5.00589,5.00589,0,0,1,19,59.00049Zm0-8a3,3,0,1,0,3,3A3.00328,3.00328,0,0,0,19,51.00049Z" style="fill:#6d6daa"/></svg>