<svg id="Basic_1" xmlns="http://www.w3.org/2000/svg" width="60" height="60" viewBox="0 0 60 60"><title>019a_067</title><path d="M57,11V43a4.00006,4.00006,0,0,1-4,4H42v9l-9-9H7a4,4,0,0,1-4-4V11A4,4,0,0,1,7,7H53A4.00006,4.00006,0,0,1,57,11Z" style="fill:#fff27d"/><g style="opacity:0.2"><path d="M33.7666,15.90576a4.67573,4.67573,0,0,0-8.22949,4.165L29.0459,31.29834a.99951.99951,0,0,0,1.9082,0L34.46289,20.0708A4.63035,4.63035,0,0,0,33.7666,15.90576Z" style="fill:#750000"/><circle cx="30" cy="38" r="4" style="fill:#750000"/></g><path d="M7,44a4,4,0,0,1-4-4v3a4,4,0,0,0,4,4H33l9,9V52l-7.70711-7.70711A1,1,0,0,0,33.58579,44Z" style="fill:#750000;opacity:0.2"/><path d="M53,44H42a1,1,0,0,0-1,1v2H53a4,4,0,0,0,4-4V40A4,4,0,0,1,53,44Z" style="fill:#750000;opacity:0.2"/><path d="M53,7H7a4,4,0,0,0-4,4v3a4,4,0,0,1,4-4H53a4,4,0,0,1,4,4V11A4,4,0,0,0,53,7Z" style="fill:#fff;opacity:0.75"/><path d="M30,29,26.49139,17.7724A3.676,3.676,0,0,1,30,13h0a3.676,3.676,0,0,1,3.50859,4.7724Z" style="fill:#9eb2cc"/><path d="M26.62836,18.2107a3.67648,3.67648,0,0,1,6.74329,0l.137-.43829a3.67594,3.67594,0,1,0-7.01721,0Z" style="fill:#fff;opacity:0.5"/><circle cx="30" cy="36" r="3" style="fill:#9eb2cc"/><path d="M30,35a2.99114,2.99114,0,0,1,2.81628,2,3.00016,3.00016,0,1,0-5.63263,0A2.99116,2.99116,0,0,1,30,35Z" style="fill:#fff;opacity:0.5"/><path d="M57,11V43a4.00006,4.00006,0,0,1-4,4H42v9l-9-9H7a4,4,0,0,1-4-4V11A4,4,0,0,1,7,7H53A4.00006,4.00006,0,0,1,57,11Z" style="fill:none;stroke:#6d6daa;stroke-linecap:round;stroke-linejoin:round;stroke-width:2px"/><path d="M30,29,26.49139,17.7724A3.676,3.676,0,0,1,30,13h0a3.676,3.676,0,0,1,3.50859,4.7724Z" style="fill:none;stroke:#6d6daa;stroke-linecap:round;stroke-linejoin:round;stroke-width:2px"/><circle cx="30" cy="36" r="3" style="fill:none;stroke:#6d6daa;stroke-linecap:round;stroke-linejoin:round;stroke-width:2px"/></svg>