<svg id="Basic_1" xmlns="http://www.w3.org/2000/svg" width="60" height="60" viewBox="0 0 60 60"><title>019a_065</title><path d="M57,11V43a4.00005,4.00005,0,0,1-4,4H42v9l-9-9H7a4,4,0,0,1-4-4V11A4,4,0,0,1,7,7H53A4.00005,4.00005,0,0,1,57,11Z" style="fill:#c9c1f5"/><path d="M7,44a4,4,0,0,1-4-4v3a4,4,0,0,0,4,4H33l9,9V52l-7.70711-7.70711A1,1,0,0,0,33.58579,44Z" style="fill:#2c4b75;opacity:0.2"/><path d="M53,44H42a1,1,0,0,0-1,1v2H53a4,4,0,0,0,4-4V40A4,4,0,0,1,53,44Z" style="fill:#2c4b75;opacity:0.2"/><path d="M53,7H7a4,4,0,0,0-4,4v3a4,4,0,0,1,4-4H53a4,4,0,0,1,4,4V11A4,4,0,0,0,53,7Z" style="fill:#fff;opacity:0.5"/><path d="M57,11V43a4.00005,4.00005,0,0,1-4,4H42v9l-9-9H7a4,4,0,0,1-4-4V11A4,4,0,0,1,7,7H53A4.00005,4.00005,0,0,1,57,11Z" style="fill:none;stroke:#6d6daa;stroke-linecap:round;stroke-linejoin:round;stroke-width:2px"/><line x1="17" y1="19" x2="43" y2="19" style="fill:none;stroke:#fff;stroke-linecap:round;stroke-linejoin:round;stroke-width:2px"/><line x1="17" y1="25" x2="43" y2="25" style="fill:none;stroke:#fff;stroke-linecap:round;stroke-linejoin:round;stroke-width:2px"/><line x1="17" y1="31" x2="29" y2="31" style="fill:none;stroke:#fff;stroke-linecap:round;stroke-linejoin:round;stroke-width:2px"/></svg>