<svg id="Layer_3" data-name="Layer 3" xmlns="http://www.w3.org/2000/svg" width="128" height="128" viewBox="0 0 128 128"><title>Artboard 7</title><g style="opacity:0.30000000000000004"><path d="M126.18658,49.68834A30.00062,30.00062,0,0,0,102.675,24.643,19.68983,19.68983,0,0,1,91.7423,18.09466,37.01085,37.01085,0,0,0,27.4157,33.77689a19.56743,19.56743,0,0,1-10.4271,13.1674,28.0025,28.0025,0,1,0,37.6671,37.34346,9.41319,9.41319,0,0,1,8.51571-5.29151q.43.00324.85972-.00349A12.39338,12.39338,0,0,1,76.0629,88.73021a20.0035,20.0035,0,0,0,26.05724,14.14361A19.98314,19.98314,0,0,0,115.468,84.97407a21.38391,21.38391,0,0,1,4.525-12.32395A29.90937,29.90937,0,0,0,126.18658,49.68834Z" style="fill:#c9c1f5"/><path d="M44.74319,25.49365a11.292,11.292,0,0,0-21.79139-5.194,6.02523,6.02523,0,0,0-9.7667,4.69751c0,.1734.01163.34391.02613.51364A8.99027,8.99027,0,0,0,16.19761,42.9972H41.80376a8.99088,8.99088,0,0,0,2.93942-17.50355Z" style="fill:#eef6ff"/><path d="M41.80374,39.99689H16.1976a9.021,9.021,0,0,1-8.90533-7.5224A8.98763,8.98763,0,0,0,16.1976,42.9972H41.80374a8.9889,8.9889,0,0,0,8.90552-10.52338A9.02109,9.02109,0,0,1,41.80374,39.99689Z" style="fill:#5cbeff;opacity:0.30000000000000004"/><path d="M13.21122,28.51112c-.01447-.16974-.02612-.34027-.02612-.51367a6.02523,6.02523,0,0,1,9.76672-4.69751A11.28216,11.28216,0,0,1,44.7432,28.494a9.01942,9.01942,0,0,1,5.96606,6.98016,8.90649,8.90649,0,0,0-5.96606-9.98047,11.292,11.292,0,0,0-21.79138-5.194,6.02523,6.02523,0,0,0-9.76672,4.69751c0,.1734.01166.34393.02612.51367a8.90473,8.90473,0,0,0-5.91895,9.964A9.01859,9.01859,0,0,1,13.21122,28.51112Z" style="fill:#fff"/><path d="M41.80371,43.99707H16.19727A9.98929,9.98929,0,0,1,12.1875,24.83789a7.02859,7.02859,0,0,1,10.32129-6.02051,12.29738,12.29738,0,0,1,23.30762,5.42969c0,.19238-.00488.38672-.01562.58447a9.98982,9.98982,0,0,1-3.99707,19.16553Zm-22.59375-24a5.018,5.018,0,0,0-5.02441,5c0,.144.00977.28662.02148.42773a1.00023,1.00023,0,0,1-.666,1.03027,7.99008,7.99008,0,0,0,2.65625,15.542H41.80371a7.991,7.991,0,0,0,2.61523-15.55762,1.00048,1.00048,0,0,1-.66992-1.05713,9.93625,9.93625,0,0,0,.06738-1.13525A10.29718,10.29718,0,0,0,23.8877,20.65234.99962.99962,0,0,1,22.332,21.084,4.98727,4.98727,0,0,0,19.21,19.99707Z" style="fill:#6d6daa"/><path d="M41.80376,24.99717a9.05823,9.05823,0,0,1,2.96407.49523" style="fill:#eef6ff"/><path d="M44.76758,26.49268a.99927.99927,0,0,1-.32617-.05518,8.05152,8.05152,0,0,0-2.6377-.44043,1,1,0,0,1,0-2,10.05293,10.05293,0,0,1,3.29.5498,1.00027,1.00027,0,0,1-.32617,1.9458Z" style="fill:#6d6daa"/><path d="M13.20983,25.50067a9.058,9.058,0,0,1,2.98778-.5035" style="fill:#eef6ff"/><path d="M13.21,26.501a1.00032,1.00032,0,0,1-.3291-1.94482,10.04685,10.04685,0,0,1,3.31641-.55908,1,1,0,0,1,0,2,8.04741,8.04741,0,0,0-2.6582.44775A.99223.99223,0,0,1,13.21,26.501Z" style="fill:#6d6daa"/><path d="M22.91217,20.26316a6.03206,6.03206,0,0,1,1.63859,1.95418" style="fill:#eef6ff"/><path d="M24.55176,23.21729a.99983.99983,0,0,1-.88574-.53418,5.06184,5.06184,0,0,0-1.36719-1.62988,1.00014,1.00014,0,0,1,1.22656-1.58008,7.07785,7.07785,0,0,1,1.91016,2.27832,1.00007,1.00007,0,0,1-.88379,1.46582Z" style="fill:#6d6daa"/><path d="M94.61211,21.66147a6.02242,6.02242,0,0,1,11.62208-2.77013,3.21345,3.21345,0,0,1,5.2089,2.50534c0,.09248-.0062.18342-.01394.27394a4.79481,4.79481,0,0,1-1.59274,9.32607H96.1798a4.79514,4.79514,0,0,1-1.56769-9.33523Z" style="fill:#eef6ff"/><path d="M94.6121,23.66167a6.02241,6.02241,0,0,1,11.62207-2.77014,3.21348,3.21348,0,0,1,5.20892,2.50531c0,.09253-.00623.18347-.01392.274a4.80574,4.80574,0,0,1,3.11346,3.54413,4.764,4.764,0,0,0-3.11346-5.54437c.00769-.09052.01392-.18146.01392-.27393a3.21348,3.21348,0,0,0-5.20892-2.50531A6.01711,6.01711,0,0,0,94.6121,21.66149a4.76494,4.76494,0,0,0-3.13855,5.55334A4.80624,4.80624,0,0,1,94.6121,23.66167Z" style="fill:#fff"/><path d="M109.8364,28.99651H96.17979a4.81364,4.81364,0,0,1-4.70624-3.78186,4.75148,4.75148,0,0,0-.11371.98206,4.81,4.81,0,0,0,4.81995,4.8H109.8364a4.81,4.81,0,0,0,4.82-4.8,4.75032,4.75032,0,0,0-.11377-.98193A4.8136,4.8136,0,0,1,109.8364,28.99651Z" style="fill:#5cbeff;opacity:0.30000000000000004"/><path d="M109.83594,31.99658H96.17969a5.79411,5.79411,0,0,1-2.60645-10.98193v-.01807a7.02459,7.02459,0,0,1,13.09863-3.50391,4.22141,4.22141,0,0,1,5.75391,3.51367,5.79416,5.79416,0,0,1-2.58984,10.99023Zm-9.23828-16a5.018,5.018,0,0,0-5.02441,5,4.9453,4.9453,0,0,0,.0332.5542,1.00024,1.00024,0,0,1-.66992,1.05664,3.795,3.795,0,0,0,1.24316,7.38916h13.65625a3.7948,3.7948,0,0,0,1.26367-7.38184.99985.99985,0,0,1-.667-1.03027c.00488-.062.01074-.12451.01074-.188a2.21413,2.21413,0,0,0-3.58887-1.72119.99953.99953,0,0,1-1.55566-.43115A5.04748,5.04748,0,0,0,100.59766,15.99658Z" style="fill:#6d6daa"/><path d="M96.1798,21.39668a4.83105,4.83105,0,0,0-1.58084.26412" style="fill:#eef6ff"/><path d="M94.59863,22.66113a1.0003,1.0003,0,0,1-.32617-1.9458,5.8382,5.8382,0,0,1,1.90723-.31885,1,1,0,0,1,0,2,3.83246,3.83246,0,0,0-1.25488.20947A1.0036,1.0036,0,0,1,94.59863,22.66113Z" style="fill:#6d6daa"/><path d="M111.4299,21.66522a4.831,4.831,0,0,0-1.59349-.26853" style="fill:#eef6ff"/><path d="M111.42969,22.66553a.99646.99646,0,0,1-.3291-.05615,3.83782,3.83782,0,0,0-1.26465-.21289,1,1,0,0,1,0-2,5.8289,5.8289,0,0,1,1.92285.32422,1.00032,1.00032,0,0,1-.3291,1.94482Z" style="fill:#6d6daa"/><path d="M106.25532,18.87188a3.2171,3.2171,0,0,0-.87391,1.04223" style="fill:#eef6ff"/><path d="M105.38086,20.91406a.99923.99923,0,0,1-.88379-1.46533,4.249,4.249,0,0,1,1.14355-1.36621,1.00035,1.00035,0,0,1,1.22852,1.5791,2.2266,2.2266,0,0,0-.60254.71777A.99937.99937,0,0,1,105.38086,20.91406Z" style="fill:#6d6daa"/><path d="M90.77236,58.015a7.98432,7.98432,0,0,1,11.87536-8.84723,10.48932,10.48932,0,0,1,18.80249,5.25052,7.49626,7.49626,0,0,1-2.44322,14.5843l-28.00086.00021A5.49632,5.49632,0,0,1,90.77236,58.015Z" style="fill:#eef6ff"/><path d="M90.77234,61.01525a7.62435,7.62435,0,0,1-.20245-2.97186,5.4694,5.4694,0,0,0-4.84137,6.9967A5.4833,5.4833,0,0,1,90.77234,61.01525Z" style="fill:#fff"/><path d="M98.50641,51.003a7.94932,7.94932,0,0,1,4.1413,1.165,10.4893,10.4893,0,0,1,18.80249,5.25055,7.5,7.5,0,0,1,4.897,5.62262,7.49379,7.49379,0,0,0-4.897-8.62292,10.48933,10.48933,0,0,0-18.80249-5.25055A7.98713,7.98713,0,0,0,90.507,56.00243a7.71983,7.71983,0,0,0,.1535,1.44745A8,8,0,0,1,98.50641,51.003Z" style="fill:#fff"/><path d="M90.77234,55.01464c-.04785-.18445-.076-.3761-.11188-.56506-.03839.19507-.06665.39362-.09058.59351C90.63867,55.03759,90.70288,55.01757,90.77234,55.01464Z" style="fill:#5cbeff"/><path d="M119.007,66.00225l-28.00085.00018a5.49887,5.49887,0,0,1-5.27765-3.96265,5.43593,5.43593,0,0,0-.222,1.4632,5.49971,5.49971,0,0,0,5.49963,5.49976l28.00085-.00018a7.43038,7.43038,0,0,0,7.34021-8.96167A7.50129,7.50129,0,0,1,119.007,66.00225Z" style="fill:#5cbeff;opacity:0.30000000000000004"/><path d="M91.00586,70.00293a6.49743,6.49743,0,0,1-1.41895-12.83838,8.54133,8.54133,0,0,1-.08008-1.16211,8.98613,8.98613,0,0,1,12.89062-8.10693,11.489,11.489,0,0,1,19.96777,5.80566,8.4957,8.4957,0,0,1-3.3584,16.30127Zm7.501-21a6.97219,6.97219,0,0,0-6.7666,8.76123.99939.99939,0,0,1-.92578,1.25,4.49637,4.49637,0,0,0,.19141,8.98877l28.001-.00049A6.496,6.496,0,0,0,121.124,55.36377a1.00066,1.00066,0,0,1-.66895-.84326,9.489,9.489,0,0,0-17.01074-4.748,1.00079,1.00079,0,0,1-1.31641.25A6.97687,6.97687,0,0,0,98.50684,49.00293Z" style="fill:#6d6daa"/><path d="M120.99316,59.75244a1.00086,1.00086,0,0,1-.95117-1.31006,9.50618,9.50618,0,0,0-9.03516-12.43945,1,1,0,0,1,0-2,11.50775,11.50775,0,0,1,10.9375,15.05859A1.00086,1.00086,0,0,1,120.99316,59.75244Z" style="fill:#6d6daa"/><path d="M94.62891,60.36475a.999.999,0,0,1-.65918-.24756,4.49577,4.49577,0,0,0-2.96387-1.11426,1,1,0,0,1,0-2,6.49985,6.49985,0,0,1,4.28223,1.60938,1.00044,1.00044,0,0,1-.65918,1.75244Z" style="fill:#6d6daa"/><path d="M105.01172,52.34473a.99917.99917,0,0,1-.81348-.417,7.0221,7.0221,0,0,0-5.69141-2.9248,1,1,0,0,1,0-2,9.02661,9.02661,0,0,1,7.31641,3.75879,1,1,0,0,1-.81152,1.583Z" style="fill:#6d6daa"/><path d="M122.00977,86.02979a.98235.98235,0,0,1-.71-.2998,1.002,1.002,0,0,1,0-1.41016.99977.99977,0,0,1,.90039-.27,1.07386,1.07386,0,0,1,.18945.0498c.06055.03027.12012.06006.16992.09033a.6361.6361,0,0,1,.15039.12988.979.979,0,0,1,0,1.41016.6361.6361,0,0,1-.15039.12988c-.0498.02979-.10937.06006-.16992.08984-.05957.02-.12012.04-.18945.06006A1.21238,1.21238,0,0,1,122.00977,86.02979Z" style="fill:#fff"/><path d="M120.00488,90.02637h-6.001a1,1,0,1,1,0-2h6.001a1,1,0,0,1,0,2Z" style="fill:#fff"/><path d="M118.00391,86.02588h-6.999a1,1,0,0,1,0-2h6.999a1,1,0,0,1,0,2Z" style="fill:#fff"/><path d="M110.00391,90.02588h-1.999a1,1,0,0,1,0-2h1.999a1,1,0,0,1,0,2Z" style="fill:#fff"/><path d="M118.00391,94.02686h-8a1,1,0,0,1,0-2h8a1,1,0,0,1,0,2Z" style="fill:#fff"/><path d="M16,78.02979a1.02425,1.02425,0,0,1-1.00977-1,1.05029,1.05029,0,0,1,.0791-.39014,1.00961,1.00961,0,0,1,1.63086-.31982.87739.87739,0,0,1,.21973.31982A1.05133,1.05133,0,0,1,17,77.02979a1.02458,1.02458,0,0,1-1,1Z" style="fill:#fff"/><path d="M16.99414,74.0249h-2a1,1,0,1,1,0-2h2a1,1,0,0,1,0,2Z" style="fill:#fff"/><path d="M19.99414,70.02393h-9.999a1,1,0,1,1,0-2h9.999a1,1,0,0,1,0,2Z" style="fill:#fff"/><path d="M10.99414,74.02393h-4a1,1,0,0,1,0-2h4a1,1,0,0,1,0,2Z" style="fill:#fff"/><path d="M11.99414,78.02539h-8.001a1,1,0,0,1,0-2h8.001a1,1,0,0,1,0,2Z" style="fill:#fff"/><path d="M80.00391,118H54.002a1,1,0,1,1,0-2h26.002a1,1,0,0,1,0,2Z" style="fill:#6d6daa"/><path d="M85.00391,118h-1.999a1,1,0,0,1,0-2h1.999a1,1,0,0,1,0,2Z" style="fill:#6d6daa"/><path d="M47,118H43.001a1,1,0,0,1,0-2H47a1,1,0,0,1,0,2Z" style="fill:#6d6daa"/><path d="M51.001,118h-.999a1,1,0,1,1,0-2h.999a1,1,0,0,1,0,2Z" style="fill:#6d6daa"/></g><circle cx="64" cy="75" r="42" style="fill:#ff9797"/><path d="M64.00012,113.00092A41.99887,41.99887,0,0,1,22.05066,73.00111c-.03113.66315-.05054,1.32935-.05054,2.00018a42,42,0,1,0,84,0c0-.67084-.01941-1.337-.05054-2.00018A41.99891,41.99891,0,0,1,64.00012,113.00092Z" style="fill:#750000;opacity:0.2"/><path d="M64.00012,37.00172a41.99882,41.99882,0,0,1,41.94946,39.99976c.03113-.66315.05054-1.32935.05054-2.00018a42,42,0,0,0-84,0c0,.67084.01941,1.337.05054,2.00018A41.99878,41.99878,0,0,1,64.00012,37.00172Z" style="fill:#fff;opacity:0.5"/><path d="M64,118.00146a43,43,0,1,1,43-43A43.0488,43.0488,0,0,1,64,118.00146Zm0-84a41,41,0,1,0,41,41A41.04651,41.04651,0,0,0,64,34.00146Z" style="fill:#6d6daa"/><path d="M71.06982,77.00108l7.77783-7.77783A5.00016,5.00016,0,1,0,71.77637,62.152L63.998,69.92979l-7.77783-7.77832a5.00033,5.00033,0,0,0-7.07129,7.07178l7.77783,7.77783-7.77783,7.77783a5.00016,5.00016,0,0,0,7.07129,7.07129L63.998,84.07237l7.77832,7.77832a5.00033,5.00033,0,0,0,7.07129-7.07178Z" style="fill:#d63c74;opacity:0.30000000000000004"/><path d="M69.65558,74.0008l8.485-8.48486a4.00026,4.00026,0,0,0-5.65723-5.65723l-8.48511,8.48492-8.48511-8.48492A4.00026,4.00026,0,0,0,49.856,65.51594l8.485,8.48486-8.485,8.48486a4.00026,4.00026,0,0,0,5.65723,5.65723L63.99829,79.658l8.48511,8.48492a4.00026,4.00026,0,0,0,5.65723-5.65723Z" style="fill:#eef6ff"/><path d="M49.856,62.859a4.00149,4.00149,0,0,1,5.65723,0l8.48511,8.48492L72.4834,62.859a4.00109,4.00109,0,0,1,6.53741,1.32861,4.00059,4.00059,0,0,0-6.53741-4.32892l-8.48511,8.48492-8.48511-8.48492a4.00055,4.00055,0,0,0-6.53735,4.32892A3.98765,3.98765,0,0,1,49.856,62.859Z" style="fill:#fff"/><path d="M71.15576,75.50092l-1.50018,1.50018,8.485,8.48486a3.986,3.986,0,0,1,.88019,1.32831,4.00106,4.00106,0,0,0-.88019-4.32861Z" style="fill:#fff"/><path d="M49.856,85.486l8.485-8.48486-1.50018-1.50018L49.856,82.48566a4.001,4.001,0,0,0-.88013,4.32861A3.98584,3.98584,0,0,1,49.856,85.486Z" style="fill:#fff"/><path d="M75.3125,90.31445a4.97121,4.97121,0,0,1-3.53613-1.46387L63.998,81.07227,56.2207,88.8501a5.0005,5.0005,0,1,1-7.07227-7.07129L56.92676,74.001l-7.77832-7.77783a5.00067,5.00067,0,0,1,7.07227-7.07178L63.998,66.92969l7.77832-7.77783a5.00016,5.00016,0,1,1,7.07129,7.07129L71.06934,74.001l7.77832,7.77783a5,5,0,0,1-3.53516,8.53564ZM63.998,78.6582a.99928.99928,0,0,1,.707.293L73.19043,87.436a3.07278,3.07278,0,0,0,4.24316-.00049,2.9995,2.9995,0,0,0,0-4.24268L68.94824,74.708a.99964.99964,0,0,1,0-1.41406l8.48535-8.48486a3.0002,3.0002,0,1,0-4.24316-4.24268l-8.48535,8.48438a1.02932,1.02932,0,0,1-1.41406,0l-8.48437-8.48486a3.00072,3.00072,0,0,0-4.24414,4.24316l8.48535,8.48486a.99964.99964,0,0,1,0,1.41406L50.5625,83.19287a3.0054,3.0054,0,0,0,0,4.24316,3.074,3.074,0,0,0,4.24414-.00049L63.291,78.95117A.99928.99928,0,0,1,63.998,78.6582Z" style="fill:#6d6daa"/></svg>