<svg id="Layer_3" data-name="Layer 3" xmlns="http://www.w3.org/2000/svg" width="128" height="128" viewBox="0 0 128 128"><title>Artboard 9</title><g style="opacity:0.30000000000000004"><path d="M126.18658,47.68834A30.00062,30.00062,0,0,0,102.675,22.643,19.68983,19.68983,0,0,1,91.7423,16.09466,37.01085,37.01085,0,0,0,27.4157,31.77689a19.56743,19.56743,0,0,1-10.4271,13.1674,28.0025,28.0025,0,1,0,37.6671,37.34346,9.41319,9.41319,0,0,1,8.51571-5.29151q.43.00324.85972-.00349A12.39338,12.39338,0,0,1,76.0629,86.73021a20.0035,20.0035,0,0,0,26.05724,14.14361A19.98314,19.98314,0,0,0,115.468,82.97407a21.38391,21.38391,0,0,1,4.525-12.32395A29.90937,29.90937,0,0,0,126.18658,47.68834Z" style="fill:#c9c1f5"/><path d="M48.583,31.49645a11.292,11.292,0,0,0-21.79139-5.194A6.02523,6.02523,0,0,0,17.02493,31c0,.1734.01163.34391.02613.51364A8.99027,8.99027,0,0,0,20.03745,49H45.6436A8.99088,8.99088,0,0,0,48.583,31.49645Z" style="fill:#eef6ff"/><path d="M45.64358,45.99969H20.03744a9.021,9.021,0,0,1-8.90533-7.5224A8.98763,8.98763,0,0,0,20.03744,49H45.64358A8.9889,8.9889,0,0,0,54.5491,38.47662,9.02109,9.02109,0,0,1,45.64358,45.99969Z" style="fill:#5cbeff;opacity:0.30000000000000004"/><path d="M17.051,34.51392c-.01447-.16974-.02612-.34027-.02612-.51367a6.02523,6.02523,0,0,1,9.76672-4.69751,11.28216,11.28216,0,0,1,21.79138,5.194,9.01942,9.01942,0,0,1,5.96606,6.98016A8.90649,8.90649,0,0,0,48.583,31.49646a11.292,11.292,0,0,0-21.79138-5.194,6.02523,6.02523,0,0,0-9.76672,4.69751c0,.1734.01166.34393.02612.51367a8.90473,8.90473,0,0,0-5.91895,9.964A9.01859,9.01859,0,0,1,17.051,34.51392Z" style="fill:#fff"/><path d="M45.64355,50H20.03711a9.98929,9.98929,0,0,1-4.00977-19.15918,7.02859,7.02859,0,0,1,10.32129-6.02051A12.29738,12.29738,0,0,1,49.65625,30.25c0,.19238-.00488.38672-.01562.58447A9.98982,9.98982,0,0,1,45.64355,50ZM23.0498,26a5.018,5.018,0,0,0-5.02441,5c0,.14453.00977.28613.02148.42773a1.001,1.001,0,0,1-.666,1.03027A7.99008,7.99008,0,0,0,20.03711,48H45.64355a7.991,7.991,0,0,0,2.61523-15.55762,1.00048,1.00048,0,0,1-.66992-1.05713A9.93625,9.93625,0,0,0,47.65625,30.25a10.29729,10.29729,0,0,0-19.92871-3.59521,1.00008,1.00008,0,0,1-1.55566.43213A4.98727,4.98727,0,0,0,23.0498,26Z" style="fill:#6d6daa"/><path d="M45.6436,31a9.05823,9.05823,0,0,1,2.96407.49523" style="fill:#eef6ff"/><path d="M48.60742,32.49561a.99927.99927,0,0,1-.32617-.05518A8.05152,8.05152,0,0,0,45.64355,32a1,1,0,0,1,0-2,10.05293,10.05293,0,0,1,3.29.5498,1.00027,1.00027,0,0,1-.32617,1.9458Z" style="fill:#6d6daa"/><path d="M17.04966,31.50347A9.058,9.058,0,0,1,20.03745,31" style="fill:#eef6ff"/><path d="M17.0498,32.50391a1.00032,1.00032,0,0,1-.3291-1.94482A10.04685,10.04685,0,0,1,20.03711,30a1,1,0,1,1,0,2,8.04741,8.04741,0,0,0-2.6582.44775A.99223.99223,0,0,1,17.0498,32.50391Z" style="fill:#6d6daa"/><path d="M26.752,26.266a6.03206,6.03206,0,0,1,1.63859,1.95418" style="fill:#eef6ff"/><path d="M28.3916,29.22021a.99983.99983,0,0,1-.88574-.53418,5.06184,5.06184,0,0,0-1.36719-1.62988,1.00014,1.00014,0,1,1,1.22656-1.58008,7.07785,7.07785,0,0,1,1.91016,2.27832,1.00007,1.00007,0,0,1-.88379,1.46582Z" style="fill:#6d6daa"/><path d="M94.61211,19.66147a6.02242,6.02242,0,0,1,11.62208-2.77013,3.21345,3.21345,0,0,1,5.2089,2.50534c0,.09248-.0062.18342-.01394.27394a4.79481,4.79481,0,0,1-1.59274,9.32607H96.1798a4.79514,4.79514,0,0,1-1.56769-9.33523Z" style="fill:#eef6ff"/><path d="M94.6121,21.66167a6.02241,6.02241,0,0,1,11.62207-2.77014,3.21348,3.21348,0,0,1,5.20892,2.50531c0,.09253-.00623.18347-.01392.274a4.80574,4.80574,0,0,1,3.11346,3.54413,4.764,4.764,0,0,0-3.11346-5.54437c.00769-.09052.01392-.18146.01392-.27393a3.21348,3.21348,0,0,0-5.20892-2.50531A6.01711,6.01711,0,0,0,94.6121,19.66149a4.76494,4.76494,0,0,0-3.13855,5.55334A4.80624,4.80624,0,0,1,94.6121,21.66167Z" style="fill:#fff"/><path d="M109.8364,26.99651H96.17979a4.81364,4.81364,0,0,1-4.70624-3.78186,4.75148,4.75148,0,0,0-.11371.98206,4.81,4.81,0,0,0,4.81995,4.8H109.8364a4.81,4.81,0,0,0,4.82-4.8,4.75032,4.75032,0,0,0-.11377-.98193A4.8136,4.8136,0,0,1,109.8364,26.99651Z" style="fill:#5cbeff;opacity:0.30000000000000004"/><path d="M109.83594,29.99658H96.17969a5.79411,5.79411,0,0,1-2.60645-10.98193v-.01807a7.02459,7.02459,0,0,1,13.09863-3.50391,4.22141,4.22141,0,0,1,5.75391,3.51367,5.79416,5.79416,0,0,1-2.58984,10.99023Zm-9.23828-16a5.018,5.018,0,0,0-5.02441,5,4.9453,4.9453,0,0,0,.0332.5542,1.00024,1.00024,0,0,1-.66992,1.05664,3.795,3.795,0,0,0,1.24316,7.38916h13.65625a3.7948,3.7948,0,0,0,1.26367-7.38184.99985.99985,0,0,1-.667-1.03027c.00488-.062.01074-.12451.01074-.188a2.21413,2.21413,0,0,0-3.58887-1.72119.99953.99953,0,0,1-1.55566-.43115A5.04748,5.04748,0,0,0,100.59766,13.99658Z" style="fill:#6d6daa"/><path d="M96.1798,19.39668a4.83105,4.83105,0,0,0-1.58084.26412" style="fill:#eef6ff"/><path d="M94.59863,20.66113a1.0003,1.0003,0,0,1-.32617-1.9458,5.8382,5.8382,0,0,1,1.90723-.31885,1,1,0,0,1,0,2,3.83246,3.83246,0,0,0-1.25488.20947A1.0036,1.0036,0,0,1,94.59863,20.66113Z" style="fill:#6d6daa"/><path d="M111.4299,19.66522a4.831,4.831,0,0,0-1.59349-.26853" style="fill:#eef6ff"/><path d="M111.42969,20.66553a.99646.99646,0,0,1-.3291-.05615,3.83782,3.83782,0,0,0-1.26465-.21289,1,1,0,0,1,0-2,5.8289,5.8289,0,0,1,1.92285.32422,1.00032,1.00032,0,0,1-.3291,1.94482Z" style="fill:#6d6daa"/><path d="M106.25532,16.87188a3.2171,3.2171,0,0,0-.87391,1.04223" style="fill:#eef6ff"/><path d="M105.38086,18.91406a.99923.99923,0,0,1-.88379-1.46533,4.249,4.249,0,0,1,1.14355-1.36621,1.00035,1.00035,0,0,1,1.22852,1.5791,2.2266,2.2266,0,0,0-.60254.71777A.99937.99937,0,0,1,105.38086,18.91406Z" style="fill:#6d6daa"/><path d="M86.26584,56.015A7.98432,7.98432,0,0,1,98.1412,47.16774a10.48932,10.48932,0,0,1,18.80249,5.25052,7.49626,7.49626,0,0,1-2.44322,14.5843l-28.00086.00021A5.49632,5.49632,0,0,1,86.26584,56.015Z" style="fill:#eef6ff"/><path d="M86.26581,59.01525a7.62435,7.62435,0,0,1-.20245-2.97186,5.4694,5.4694,0,0,0-4.84137,6.9967A5.4833,5.4833,0,0,1,86.26581,59.01525Z" style="fill:#fff"/><path d="M93.99988,49.003a7.94932,7.94932,0,0,1,4.1413,1.165,10.4893,10.4893,0,0,1,18.80249,5.25055,7.5,7.5,0,0,1,4.897,5.62262,7.49379,7.49379,0,0,0-4.897-8.62292,10.48933,10.48933,0,0,0-18.80249-5.25055,7.98713,7.98713,0,0,0-12.14075,6.83472,7.71983,7.71983,0,0,0,.1535,1.44745A8,8,0,0,1,93.99988,49.003Z" style="fill:#fff"/><path d="M86.26581,53.01464c-.04785-.18445-.076-.3761-.11188-.56506-.03839.19507-.06665.39362-.09058.59351C86.13215,53.03759,86.19635,53.01757,86.26581,53.01464Z" style="fill:#5cbeff"/><path d="M114.50049,64.00225l-28.00085.00018A5.49887,5.49887,0,0,1,81.222,60.03978,5.43593,5.43593,0,0,0,81,61.503a5.49971,5.49971,0,0,0,5.49963,5.49976l28.00085-.00018a7.43038,7.43038,0,0,0,7.34021-8.96167A7.50129,7.50129,0,0,1,114.50049,64.00225Z" style="fill:#5cbeff;opacity:0.30000000000000004"/><path d="M86.5,68.00293a6.49743,6.49743,0,0,1-1.41992-12.83838A8.54133,8.54133,0,0,1,85,54.00244a8.98613,8.98613,0,0,1,12.89063-8.10693,11.489,11.489,0,0,1,19.96777,5.80566A8.4957,8.4957,0,0,1,114.5,68.00244Zm7.5-21a6.97219,6.97219,0,0,0-6.7666,8.76123.99939.99939,0,0,1-.92578,1.25A4.49637,4.49637,0,0,0,86.5,66.00293l28-.00049a6.496,6.496,0,0,0,2.11719-12.63867,1.00065,1.00065,0,0,1-.66895-.84326,9.48831,9.48831,0,0,0-17.00977-4.748,1.00005,1.00005,0,0,1-1.31543.25049A6.98476,6.98476,0,0,0,94,47.00293Z" style="fill:#6d6daa"/><path d="M116.4873,57.75244a1.00141,1.00141,0,0,1-.95117-1.30908A9.50962,9.50962,0,0,0,106.5,44.00293a1,1,0,0,1,0-2,11.50951,11.50951,0,0,1,10.93848,15.05762A1.00022,1.00022,0,0,1,116.4873,57.75244Z" style="fill:#6d6daa"/><path d="M90.12207,58.36475a.999.999,0,0,1-.65918-.24756A4.49326,4.49326,0,0,0,86.5,57.00293a1,1,0,0,1,0-2,6.49922,6.49922,0,0,1,4.28125,1.60938,1.00044,1.00044,0,0,1-.65918,1.75244Z" style="fill:#6d6daa"/><path d="M100.50488,50.34473a.99834.99834,0,0,1-.81348-.41748A7.02025,7.02025,0,0,0,94,47.00293a1,1,0,0,1,0-2,9.023,9.023,0,0,1,7.31641,3.75928.99978.99978,0,0,1-.81152,1.58252Z" style="fill:#6d6daa"/><path d="M118,78a1.39038,1.39038,0,0,1-.2002-.02.649.649,0,0,1-.17969-.06006.762.762,0,0,1-.18066-.09033c-.0498-.03955-.09961-.07959-.14941-.11963A1.04871,1.04871,0,0,1,117,77a1,1,0,0,1,.08008-.38037.93069.93069,0,0,1,.21-.32959,1.53349,1.53349,0,0,1,.14941-.12012.762.762,0,0,1,.18066-.09033.6318.6318,0,0,1,.17969-.05957.9906.9906,0,0,1,.90039.27.99052.99052,0,0,1,0,1.41992A1.0413,1.0413,0,0,1,118,78Z" style="fill:#fff"/><path d="M115.998,81.99951h-6a1,1,0,0,1,0-2h6a1,1,0,0,1,0,2Z" style="fill:#fff"/><path d="M113.998,77.999h-7a1,1,0,1,1,0-2h7a1,1,0,0,1,0,2Z" style="fill:#fff"/><path d="M105.99707,81.999h-1.999a1,1,0,1,1,0-2h1.999a1,1,0,0,1,0,2Z" style="fill:#fff"/><path d="M113.998,86h-8.001a1,1,0,0,1,0-2h8.001a1,1,0,1,1,0,2Z" style="fill:#fff"/><path d="M24,76.02a.96752.96752,0,0,1-.7002-.29.87916.87916,0,0,1-.21973-.32031A.99759.99759,0,0,1,23,75.02979a1.26489,1.26489,0,0,1,.01953-.2002,1.44838,1.44838,0,0,1,.06055-.18994.87829.87829,0,0,1,.08984-.16992.64314.64314,0,0,1,.12988-.1499,1.02182,1.02182,0,0,1,.32031-.22021A.9586.9586,0,0,1,24.2002,74.04c.05957.02.11914.03955.18945.05957.06055.03027.11035.06006.16992.09033a1.78124,1.78124,0,0,1,.15039.12988.9756.9756,0,0,1,.29.71.98814.98814,0,0,1-.07031.37988A1.0179,1.0179,0,0,1,24.71,75.73a1.78124,1.78124,0,0,1-.15039.12988c-.05957.02979-.10937.06006-.16992.08984-.07031.02-.12988.04-.18945.06006A1.31627,1.31627,0,0,1,24,76.02Z" style="fill:#fff"/><path d="M25.001,72.0249h-2a1,1,0,1,1,0-2h2a1,1,0,0,1,0,2Z" style="fill:#fff"/><path d="M28.001,68.02393H18.002a1,1,0,1,1,0-2h9.999a1,1,0,0,1,0,2Z" style="fill:#fff"/><path d="M19,72.02393H15.001a1,1,0,1,1,0-2H19a1,1,0,0,1,0,2Z" style="fill:#fff"/><path d="M20,76.02539H12a1,1,0,0,1,0-2h8a1,1,0,0,1,0,2Z" style="fill:#fff"/><path d="M108.499,118.00049H24a1,1,0,0,1,0-2h84.499a1,1,0,0,1,0,2Z" style="fill:#6d6daa"/><path d="M112.5,118.00049h-1a1,1,0,0,1,0-2h1a1,1,0,0,1,0,2Z" style="fill:#6d6daa"/><path d="M14.998,118.00049H14a1,1,0,0,1,0-2h.998a1,1,0,1,1,0,2Z" style="fill:#6d6daa"/><path d="M20.999,118.00049h-3a1,1,0,0,1,0-2h3a1,1,0,1,1,0,2Z" style="fill:#6d6daa"/></g><path d="M57.75283,36.86078l-35.00655,70.0131a6.98418,6.98418,0,0,0,6.24681,10.1075h70.0131a6.98418,6.98418,0,0,0,6.24681-10.1075L70.24644,36.86078A6.98411,6.98411,0,0,0,57.75283,36.86078Z" style="fill:#fff27d"/><path d="M99.00619,113H28.99311a6.90809,6.90809,0,0,1-6.7017-5,7.022,7.022,0,0,0,6.7017,8.98138H99.00619A7.022,7.022,0,0,0,105.70789,108,6.90809,6.90809,0,0,1,99.00619,113Z" style="fill:#750000;opacity:0.2"/><path d="M105.253,106.87388,70.24644,36.86074a6.98416,6.98416,0,0,0-12.49364,0L22.74629,106.87388a6.9842,6.9842,0,0,0,6.24682,10.1075h2.95222a6.50016,6.50016,0,0,1-5.40571-9.39663L58.32725,42.37117a6.27181,6.27181,0,0,1,11.3448,0l31.78763,65.21358a6.50021,6.50021,0,0,1-5.40577,9.39663h2.95228A6.9842,6.9842,0,0,0,105.253,106.87388Z" style="fill:#fff;opacity:0.75"/><path d="M99.00586,117.98145H28.99316a7.98511,7.98511,0,0,1-7.1416-11.55469L56.8584,36.41357h0A7.94143,7.94143,0,0,1,64,32h.001a7.93852,7.93852,0,0,1,7.13965,4.41357l35.00684,70.01318a7.98447,7.98447,0,0,1-7.1416,11.55469ZM58.64746,37.30811,23.64063,107.32129a5.98463,5.98463,0,0,0,5.35254,8.66016h70.0127a5.984,5.984,0,0,0,5.35254-8.66016L69.35156,37.30811A5.8751,5.8751,0,0,0,64,34h0a5.87673,5.87673,0,0,0-5.35254,3.30811Z" style="fill:#6d6daa"/><circle cx="64" cy="100" r="6" style="fill:#750000;opacity:0.2"/><path d="M63.8322,93.86716,56.91388,72.03093a7.4084,7.4084,0,1,1,14.14247,0L64.138,93.86716Z" style="fill:#750000;opacity:0.2"/><path d="M64,91.76a5.04,5.04,0,1,0,5.04,5.04A5.03986,5.03986,0,0,0,64,91.76Zm0-33.6a6.17558,6.17558,0,0,0-5.89446,8.01763L64,85.04l5.89446-18.86237A6.17558,6.17558,0,0,0,64,58.16Z" style="fill:#eef6ff"/><path d="M58.33564,65.714a6.17649,6.17649,0,0,1,11.32872,0l.2301-.73633C71,62,68.16626,58.16,64,58.16S57,62,58.10554,64.97763Z" style="fill:#fff"/><path d="M64,91.76a5.03986,5.03986,0,0,0-5.04,5.04c0,.92275.26609-.024.699.7199a4.999,4.999,0,0,1,8.682,0c.43292-.74392.699.20285.699-.7199A5.03986,5.03986,0,0,0,64,91.76Z" style="fill:#fff"/><path d="M64,85.87988a.99883.99883,0,0,1-.9541-.70166l-5.89453-18.8623a7.17546,7.17546,0,1,1,13.69727,0L64.9541,85.17822A.99883.99883,0,0,1,64,85.87988ZM64,59a5.176,5.176,0,0,0-4.94043,6.71924L64,81.52734l4.94043-15.80811A5.176,5.176,0,0,0,64,59Z" style="fill:#6d6daa"/><path d="M64.04,103a6.04,6.04,0,1,1,6.04-6.04A6.04709,6.04709,0,0,1,64.04,103Zm0-10.08008a4.04,4.04,0,1,0,4.04,4.04A4.0448,4.0448,0,0,0,64.04,92.91992Z" style="fill:#6d6daa"/></svg>